<svg width="174" height="117" viewBox="0 0 174 117" fill="none" xmlns="http://www.w3.org/2000/svg">
<path opacity="0.46" d="M58.0252 105.028C37.0715 82.1266 22.8578 89.5043 9.07382 73.9971C-4.91163 58.2633 -0.979317 42.5296 9.07561 28.8663C19.1305 15.203 27.8651 16.1118 45.3476 8.10313C62.8302 0.0944793 74.7647 0.934893 84.9486 0.0944795C96.6649 -0.894243 107.541 6.17512 119.208 7.41102C128.057 8.35031 137.153 5.92794 145.755 8.10313C155.791 10.6738 166.78 25.9956 170.784 35.5368C174.788 45.0779 181.71 81.864 140.191 96.7237C98.6708 111.583 78.9788 127.929 58.0252 105.028Z" fill="#D2D6FF"/>
<g clip-path="url(#clip0)">
<path d="M106.309 61.1937C103.493 61.1937 100.727 60.7533 98.107 59.8873C96.8229 59.4493 95.2444 59.8511 94.4607 60.656L89.2885 64.5605C83.2902 61.3586 79.5953 57.6649 76.4371 51.7116L80.2267 46.6741C81.2113 45.6909 81.5645 44.2546 81.1413 42.9069C80.2717 40.2727 79.8299 37.5088 79.8299 34.6913C79.83 32.6559 78.1741 31 76.1388 31H67.6911C65.6559 31 64 32.6559 64 34.6911C64 58.0206 82.9796 77 106.309 77C108.344 77 110 75.3441 110 73.3089V64.8848C110 62.8496 108.344 61.1937 106.309 61.1937Z" fill="#911368"/>
</g>
<defs>
<clipPath id="clip0">
<rect x="64" y="31" width="46" height="46" fill="white"/>
</clipPath>
</defs>
</svg>
