<svg width="472" height="322" viewBox="0 0 472 322" fill="none" xmlns="http://www.w3.org/2000/svg">
<g opacity="0.3">
<path d="M59.6982 249.22L30.7891 267.68L49.2495 296.589L78.1587 278.129L59.6982 249.22Z" fill="#3D4773"/>
<path d="M88.5146 230.78L59.6055 249.24L78.066 278.149L106.975 259.689L88.5146 230.78Z" fill="white"/>
<path d="M117.464 212.372L88.5547 230.833L107.015 259.742L135.924 241.281L117.464 212.372Z" fill="#3D4773"/>
<path d="M146.276 193.933L117.367 212.393L135.828 241.302L164.737 222.842L146.276 193.933Z" fill="white"/>
<path d="M175.179 175.44L146.27 193.901L164.73 222.81L193.639 204.349L175.179 175.44Z" fill="#3D4773"/>
<path d="M204.046 157.084L175.137 175.545L193.597 204.454L222.506 185.994L204.046 157.084Z" fill="white"/>
<path d="M232.944 138.593L204.035 157.053L222.496 185.962L251.405 167.502L232.944 138.593Z" fill="#3D4773"/>
<path d="M261.757 120.153L232.848 138.614L251.308 167.523L280.217 149.063L261.757 120.153Z" fill="white"/>
<path d="M290.714 101.744L261.805 120.205L280.265 149.114L309.174 130.653L290.714 101.744Z" fill="#3D4773"/>
<path d="M319.526 83.3057L290.617 101.766L309.078 130.675L337.987 112.215L319.526 83.3057Z" fill="white"/>
<path d="M348.425 64.8118L319.516 83.2723L337.976 112.181L366.885 93.721L348.425 64.8118Z" fill="#3D4773"/>
<path d="M377.237 46.3742L348.328 64.8347L366.789 93.7438L395.698 75.2833L377.237 46.3742Z" fill="white"/>
<path d="M406.194 27.9637L377.285 46.4241L395.746 75.3333L424.655 56.8728L406.194 27.9637Z" fill="#3D4773"/>
<path d="M106.987 259.679L78.0781 278.14L96.5386 307.049L125.448 288.589L106.987 259.679Z" fill="#3D4773"/>
<path d="M135.8 241.241L106.891 259.701L125.351 288.61L154.26 270.15L135.8 241.241Z" fill="white"/>
<path d="M164.718 222.747L135.809 241.208L154.269 270.117L183.178 251.657L164.718 222.747Z" fill="#3D4773"/>
<path d="M193.585 204.392L164.676 222.853L183.136 251.762L212.045 233.301L193.585 204.392Z" fill="white"/>
<path d="M222.468 185.9L193.559 204.361L212.019 233.27L240.928 214.809L222.468 185.9Z" fill="#3D4773"/>
<path d="M251.28 167.46L222.371 185.921L240.832 214.83L269.741 196.369L251.28 167.46Z" fill="white"/>
<path d="M280.237 149.053L251.328 167.513L269.789 196.422L298.698 177.962L280.237 149.053Z" fill="#3D4773"/>
<path d="M309.05 130.612L280.141 149.073L298.601 177.982L327.51 159.521L309.05 130.612Z" fill="white"/>
<path d="M337.968 112.12L309.059 130.581L327.519 159.49L356.428 141.029L337.968 112.12Z" fill="#3D4773"/>
<path d="M366.835 93.7658L337.926 112.226L356.386 141.135L385.295 122.675L366.835 93.7658Z" fill="white"/>
<path d="M395.718 75.2713L366.809 93.7318L385.269 122.641L414.178 104.18L395.718 75.2713Z" fill="#3D4773"/>
<path d="M424.53 56.8335L395.621 75.294L414.082 104.203L442.991 85.7427L424.53 56.8335Z" fill="white"/>
</g>
<path d="M206.711 199.595L241.36 251.551C242.609 253.354 245.053 253.918 246.874 252.767L307.081 214.352C309 213.182 309.546 210.64 308.278 208.739L269.594 148.175L206.711 199.595Z" fill="#3D4773"/>
<path d="M237.189 141.264L224.364 149.438L220.624 151.759L207.799 159.933C207.799 159.933 216.412 188.847 244.952 233.087L282.447 251.564L283.813 250.7L287.552 248.38L288.918 247.517L287.979 205.687C259.796 161.178 237.189 141.264 237.189 141.264Z" fill="#3D4773"/>
<path d="M201.333 119.026C200.976 119.295 200.485 119.386 200.055 119.262L154.663 111.403C154.036 111.316 153.552 110.897 153.344 110.325C153.136 109.753 153.206 109.029 153.624 108.544L175.97 80.4009C176.228 80.1496 176.487 79.8983 176.88 79.8254L216.483 68.519C217.153 68.2932 217.797 68.4788 218.3 68.9958C218.803 69.5129 218.93 70.2012 218.745 70.8458L202.091 118.173C201.949 118.505 201.708 118.854 201.333 119.026ZM158.293 108.493L199.264 115.544L214.127 72.8203L178.403 83.1028L158.293 108.493Z" fill="#3D4773"/>
<path d="M193.233 103.848C193.055 103.983 192.858 104.019 192.662 104.056L155.389 111.472C154.406 111.654 153.473 111.014 153.291 110.03C153.109 109.047 153.75 108.115 154.733 107.932L191.416 100.625L215.672 69.0764C216.233 68.2605 217.431 68.1402 218.149 68.7191C218.965 69.2798 219.085 70.478 218.506 71.1955L193.75 103.345C193.59 103.578 193.412 103.713 193.233 103.848Z" fill="#3D4773"/>
<path d="M161.911 129.079L157.36 131.957C153.816 134.241 148.947 133.211 146.645 129.569L133.346 108.846C131.062 105.303 132.092 100.433 135.733 98.1313L140.285 95.2537C143.828 92.9697 148.697 93.9996 151 97.6411L164.317 118.463C166.601 122.006 165.553 126.777 161.911 129.079Z" fill="#3D4773"/>
<path d="M233.751 83.2185L229.199 86.0961C225.656 88.3801 220.787 87.3502 218.485 83.7087L205.186 62.9853C202.902 59.4422 203.932 54.573 207.573 52.2708L212.125 49.3931C215.668 47.1092 220.537 48.1391 222.839 51.7805L236.139 72.504C238.441 76.1454 237.393 80.9163 233.751 83.2185Z" fill="#3D4773"/>
<path d="M149.268 36.7363C153.365 34.1463 158.682 35.3983 161.174 39.5132C171.391 56.2311 195.29 92.9913 219.953 120.152C238.609 140.696 239.724 139.574 239.724 139.574L205.443 161.488C205.443 161.488 202.993 146.077 186.51 114.756C174.23 91.3011 155.383 62.0458 146.608 48.7218C144.134 44.7053 145.27 39.308 149.268 36.7363Z" fill="#911368"/>
<path d="M207.821 160.031L187.097 173.33C187.097 173.33 201.137 201.341 245.072 233.167L258.495 227.12C258.298 227.156 227.66 202.324 207.821 160.031Z" fill="#911368"/>
<path d="M237.191 141.264L257.914 127.965C257.914 127.965 277.416 152.522 287.785 205.724L276.646 215.314C276.763 215.394 267.124 177.11 237.191 141.264Z" fill="#911368"/>
<path d="M257.799 245.86L255.114 266.495L259.872 274.055L289.422 255.153L276.068 234.135L257.799 245.86Z" fill="#911368"/>
<path d="M293.439 223.083L313.317 229.366L318.074 236.926L288.506 255.729L275.152 234.711L293.439 223.083Z" fill="#911368"/>
<path d="M311.223 243.916L269.496 270.548L282.678 291.201L324.405 264.569L311.223 243.916Z" fill="#3D4773"/>
<path d="M286.666 288.614L288.514 295.29C288.903 296.845 286.831 297.737 285.968 296.372L282.65 291.088L286.666 288.614Z" fill="#3D4773"/>
<path d="M320.414 267.105L325.724 271.612C326.926 272.61 328.692 271.164 327.829 269.799L324.511 264.515L320.414 267.105Z" fill="#3D4773"/>
<path d="M207.814 160.031C207.814 160.031 204.508 139.998 174.528 87.9906L185.078 81.2554C185.078 81.2554 216.163 121.667 237.284 141.246L231.017 165.596L207.814 160.031Z" fill="#3D4773"/>
<path d="M252.032 197.196C247.401 200.19 241.242 198.789 238.248 194.157L226.468 175.593C223.473 170.961 224.874 164.803 229.506 161.809C234.138 158.814 240.297 160.216 243.291 164.847L255.071 183.412C258.066 188.043 256.664 194.202 252.032 197.196Z" fill="#B92C8B"/>
<path opacity="0.61" d="M229.522 161.907C226.791 163.634 225.28 166.456 225.022 169.454C225.193 169.829 225.365 170.204 225.616 170.462L237.396 189.026C240.39 193.658 246.531 194.961 251.181 192.065C253.912 190.339 255.423 187.516 255.681 184.519C255.51 184.144 255.338 183.769 255.087 183.51L243.307 164.946C240.313 160.314 234.154 158.913 229.522 161.907Z" fill="#3D4773"/>
<path d="M297.854 268.845C295.123 270.572 291.427 269.833 289.682 267.004L282.659 255.999C280.932 253.268 281.671 249.572 284.5 247.827C287.231 246.1 290.928 246.839 292.673 249.668L299.696 260.673C301.324 263.422 300.585 267.119 297.854 268.845Z" fill="#3D4773"/>
<path d="M186.993 173.349L232.898 200.437C232.898 200.437 210.901 170.646 207.735 160.148L186.993 173.349Z" fill="#B92C8B"/>
<path d="M257.931 128.063L263.084 181.113C263.084 181.113 253.984 161.645 237.109 141.381L257.931 128.063Z" fill="#B92C8B"/>
<path d="M264.2 289.219L259.649 292.097C256.106 294.381 251.236 293.351 248.934 289.709L235.635 268.986C233.351 265.443 234.381 260.574 238.022 258.271L242.574 255.394C246.117 253.11 250.986 254.14 253.289 257.781L266.588 278.505C268.792 282.164 267.762 287.033 264.2 289.219Z" fill="#3D4773"/>
<path d="M336.064 243.457L331.512 246.334C327.969 248.618 323.1 247.588 320.797 243.947L307.498 223.223C305.214 219.68 306.244 214.811 309.886 212.509L314.437 209.631C317.981 207.347 322.85 208.377 325.152 212.019L338.451 232.742C340.637 236.303 339.607 241.173 336.064 243.457Z" fill="#3D4773"/>
<path d="M316.044 259.836L282.156 281.465L286.729 288.63L320.617 267.001L316.044 259.836Z" fill="white"/>
<path d="M186.998 173.348C186.998 173.348 198.007 152.086 193.743 129.078C193.743 129.078 204.751 149.514 205.562 161.568L186.998 173.348Z" fill="#911368"/>
<path d="M257.933 128.063C257.933 128.063 234.029 129.137 214.922 115.491C214.922 115.491 228.84 134.066 239.387 139.942L257.933 128.063Z" fill="#911368"/>
<path d="M224.379 231.815L265.176 245.612L242.614 259.964L224.379 231.815Z" fill="#911368"/>
<path d="M296.321 185.936L291.637 228.706L314.101 214.373L296.321 185.936Z" fill="#911368"/>
<path d="M277.154 233.424L275.155 234.71L251.868 204.549L259.151 199.945L277.154 233.424Z" fill="#777E9D"/>
<path d="M265.819 247.242L256.211 271.188L259.367 272.454L268.974 248.509L265.819 247.242Z" fill="#3D4773"/>
<path d="M290.381 234.815L316.145 236.182L316.325 232.787L290.561 231.419L290.381 234.815Z" fill="#3D4773"/>
<path d="M262.782 213.51L267.189 191.742L241.459 208.207L262.782 213.51Z" fill="#777E9D"/>
<path opacity="0.3" d="M223.951 177.382L223.222 176.195C219.365 170.197 221.144 162.24 227.142 158.382C233.139 154.524 241.097 156.304 244.954 162.302L245.952 163.846" stroke="white" stroke-width="0.9484" stroke-miterlimit="10" stroke-linecap="round" stroke-linejoin="round"/>
<path d="M109.865 77.093C118.692 71.4906 130.11 54.6275 152.752 40.1589C175.395 25.6904 201.64 18.5886 201.64 18.5886L216.109 41.2311C216.109 41.2311 184.931 42.026 162.111 56.6293C139.271 71.1343 123.335 98.1915 123.335 98.1915L109.865 77.093Z" fill="#B92C8B"/>
<path d="M118.263 69.739C115.179 72.8532 112.397 75.4029 109.863 77.093L123.333 98.1915C123.333 98.1915 125.725 94.0869 130.124 88.1865L118.263 69.739Z" fill="white"/>
<path d="M202.221 42.5843C210.437 41.3667 216.107 41.2311 216.107 41.2311L201.62 18.4903C201.62 18.4903 196.777 19.7948 189.443 22.4762L202.221 42.5843Z" fill="white"/>
<path opacity="0.4" d="M119.036 91.4621L123.334 98.1915C123.334 98.1915 139.27 71.1343 162.091 56.531C184.912 41.9277 216.107 41.2311 216.107 41.2311L210.811 32.9577C145.15 35.3638 119.036 91.4621 119.036 91.4621Z" fill="#911368"/>
</svg>
