<svg width="557" height="373" viewBox="0 0 557 373" fill="none" xmlns="http://www.w3.org/2000/svg">
<g clip-path="url(#clip0)">
<path d="M236.149 66.8693C217.595 -0.361084 134.219 -21.9278 86.3871 28.3142C85.6642 29.0371 85.0618 29.76 84.3389 30.483C15.6627 105.063 48.073 288.681 191.209 335.188C334.344 381.695 483.143 296.754 491.456 220.728C499.77 144.702 433.744 120.846 331.332 142.052C273.5 154.221 247.595 108.677 236.149 66.8693Z" fill="#F5F6FF"/>
<path d="M58.797 215.668C49.3992 198.679 31.688 199.402 25.3023 217.475C23.254 223.379 22.4106 231.09 24.2179 240.969C31.0855 278.681 53.6161 291.934 68.9177 270.368C78.5564 256.994 68.1948 232.536 58.797 215.668Z" fill="#88B374"/>
<path d="M518.002 339.195C521.134 339.677 524.508 338.834 526.676 336.544C528.122 334.978 529.086 333.171 529.086 331.364C529.086 331.364 529.086 331.364 529.086 331.243C529.086 318.351 544.87 319.195 549.93 303.532C554.99 287.748 534.99 286.423 523.423 296.182C515.23 303.17 505.23 293.411 493.302 301.604C482.941 308.712 488.724 326.062 471.615 320.64C466.193 318.954 461.253 320.52 457.157 323.653C452.458 327.267 449.325 332.207 448 337.629L449.325 338.593C483.181 359.195 498.363 335.942 518.002 339.195Z" fill="#88B374"/>
<path d="M484.745 338.472L529.324 309.797C529.927 309.435 530.047 308.592 529.686 307.99C529.324 307.387 528.481 307.267 527.879 307.628L479.926 338.472H484.745Z" fill="#ACD29A"/>
<path d="M488.558 279.043C486.63 250.97 486.389 221.571 488.438 202.053C491.209 176.51 497.354 158.799 506.751 149.281C507.354 148.678 508.438 148.678 509.041 149.281C509.643 149.883 509.643 150.967 509.041 151.57C492.534 168.197 486.63 212.776 491.811 280.729L488.558 279.043Z" fill="#88B374"/>
<path d="M492.775 179.522C492.775 179.522 479.281 179.522 480.245 155.907C480.245 155.787 500.847 161.691 492.775 179.522Z" fill="#88B374"/>
<path d="M491.573 191.691C491.573 191.691 490.85 178.317 514.465 177.956C514.585 177.836 509.886 198.679 491.573 191.691Z" fill="#ACD29A"/>
<path d="M501.932 158.438C501.932 158.438 496.751 146.028 518.92 137.835C518.92 137.835 521.45 159.04 501.932 158.438Z" fill="#ACD29A"/>
<path d="M488.56 216.029C488.56 216.029 475.909 220.608 468.801 197.956C468.801 197.956 490.127 196.511 488.56 216.029Z" fill="#88B374"/>
<path d="M489.284 228.56C489.284 228.56 486.272 215.427 509.525 210.969C509.525 211.089 508.441 232.415 489.284 228.56Z" fill="#ACD29A"/>
<path d="M488.558 245.909C488.558 245.909 476.028 250.729 468.438 228.198C468.558 228.198 489.884 226.391 488.558 245.909Z" fill="#88B374"/>
<path d="M98.313 341.574L94.6984 341.454L92.7707 341.333L87.2284 341.092C87.2284 341.092 36.3839 254.705 68.1918 226.511C77.9511 217.836 95.1804 225.065 91.3249 264.946C87.8308 301.935 98.313 341.574 98.313 341.574Z" fill="#ACD29A"/>
<path d="M94.5773 341.454L92.6496 341.333C83.7337 320.369 79.2758 297.959 77.1071 282.175C74.4564 263.38 74.3359 249.885 74.3359 249.644C74.3359 249.162 74.6974 248.801 75.1793 248.801C75.6613 248.801 76.0227 249.162 76.0227 249.644C76.0227 249.765 76.1432 263.259 78.7939 281.934C81.0831 297.838 85.541 320.489 94.5773 341.454Z" fill="#88B374"/>
<path d="M108.432 357.924L103.492 359.731L100.842 360.695L93.3715 363.466C93.3715 363.466 -22.7756 276.356 4.09243 220.933C12.4059 203.824 39.2739 203.945 56.5032 259.247C72.2867 310.694 108.432 357.924 108.432 357.924Z" fill="#ACD29A"/>
<path d="M103.37 359.731L100.719 360.695C77.225 337.682 58.6704 310.091 46.8629 290.332C32.8867 266.717 25.1757 248.644 25.0552 248.524C24.8142 247.921 25.0552 247.078 25.7781 246.837C26.3805 246.596 27.2239 246.837 27.4649 247.56C27.5854 247.801 35.1759 265.753 49.1521 289.127C60.9596 309.007 79.6347 336.839 103.37 359.731Z" fill="#88B374"/>
<path d="M497.189 364.543C497.197 362.495 496.964 360.566 496.49 358.516C492.347 339.343 503.807 335.773 518.77 329.806C533.733 323.84 535.609 305.895 525.065 290.914C514.52 275.933 533.602 264.078 526.7 241.642C519.799 219.205 495.283 234.05 489.902 254.632C485.99 269.437 466.604 266.23 459.301 285.479C452.971 302.202 473.875 317.705 449.628 325.323C441.908 327.702 437.548 333.71 435.352 340.569C432.791 348.632 433.241 356.947 436.105 364.187L497.19 364.423L497.189 364.543Z" fill="#ACD29A"/>
<path d="M467.547 364.429L507.928 265.907C508.293 264.945 507.816 263.858 506.974 263.494C506.011 263.129 504.925 263.606 504.56 264.448L463.692 364.294L467.547 364.308L467.547 364.429Z" fill="#88B374"/>
<path d="M142.771 65.6644C142.771 65.6644 143.614 47.9532 132.77 44.4591C115.903 39.1578 111.324 47.8327 108.674 53.616C105.42 60.9655 106.746 75.5442 116.866 76.8695C131.807 79.0382 141.807 70.6043 142.771 65.6644Z" fill="#7C135A"/>
<path d="M153.614 125.063C162.41 125.063 169.88 118.919 171.687 110.364C173.012 104.219 174.217 98.7977 174.217 95.6651V95.5446C174.338 94.5807 174.337 93.6168 174.337 92.653C174.458 78.6768 165.783 53.0135 135.421 57.11C135.421 57.11 110.24 60.0016 107.348 84.5805C107.348 84.5805 106.143 95.906 105.3 104.219C105.3 104.34 105.3 104.46 105.3 104.701C104.215 115.545 112.77 125.063 123.734 125.063H153.614Z" fill="#911368"/>
<path d="M189.64 154.341C189.64 154.341 195.061 196.872 201.206 218.8C201.206 218.8 209.881 214.704 221.327 209.282C233.737 203.258 251.448 192.414 251.448 192.414L255.906 203.258C255.906 203.258 210.001 246.632 194.7 249.042C179.519 251.452 170.121 196.993 170.121 196.993L189.64 154.341Z" fill="#766FCE"/>
<path d="M250.484 193.499C250.484 193.499 249.279 187.474 251.93 183.378C254.581 179.281 258.798 171.57 263.617 170.004C267.713 168.679 261.689 175.546 261.569 179.884C261.569 179.884 267.593 179.161 271.93 177.715C275.786 176.51 283.256 174.944 286.87 174.221C287.834 173.98 288.437 175.185 287.714 175.908C286.509 176.992 283.979 178.197 278.798 179.522C278.798 179.522 291.328 177.113 292.654 179.04C293.979 180.968 278.196 183.619 278.196 183.619C278.196 183.619 290.485 182.896 290.726 184.824C290.967 186.028 278.196 188.679 278.196 188.679C278.196 188.679 289.762 189.041 286.991 190.848C286.148 191.33 263.737 193.86 255.906 203.137C256.026 203.137 250.725 197.715 250.484 193.499Z" fill="#FFA681"/>
<path d="M112.169 145.907C112.169 145.907 86.5062 153.498 64.337 158.438C64.337 158.438 63.7346 148.799 63.1322 136.148C62.5297 122.413 63.6141 101.569 63.6141 101.569L51.9271 102.774C51.9271 102.774 35.6617 163.859 40.722 178.438C45.7824 193.017 110.362 172.655 110.362 172.655L112.169 145.907Z" fill="#766FCE"/>
<path d="M63.0111 103.135C63.0111 103.135 68.9148 101.328 71.204 96.9904C73.4932 92.653 79.8789 83.9781 75.9029 80.725C74.4571 79.5202 73.3727 84.701 69.6377 86.8697C69.6377 86.8697 67.469 81.2069 66.6256 76.749C65.9027 72.773 63.6135 65.4235 62.6496 62.0499C62.4086 61.086 60.9628 61.2065 60.8423 62.0499C60.4809 63.6162 60.6014 66.3873 61.9267 71.5682C61.9267 71.5682 58.0712 59.3992 55.6615 59.1583C53.3723 58.9173 58.4327 74.0983 58.4327 74.0983C58.4327 74.0983 53.2518 63.0138 51.4446 63.6162C50.3602 63.9776 53.9747 76.3876 53.9747 76.3876C53.9747 76.3876 48.1915 66.3873 47.9505 69.6404C47.83 70.6043 56.2639 91.5686 51.9265 102.774C52.047 102.894 59.276 104.942 63.0111 103.135Z" fill="#F7D5A5"/>
<path d="M188.681 319.284L188.922 320.248C168.922 333.863 93.9805 324.586 93.9805 324.586C94.101 323.019 94.2214 321.333 94.4624 319.646C94.7034 317.718 94.9443 315.79 95.3058 313.742C96.2697 308.32 97.4745 302.417 98.7999 296.272C99.2818 294.344 99.6432 292.416 100.125 290.489C101.451 284.705 102.896 278.802 104.222 273.139C104.704 271.211 105.186 269.283 105.547 267.356C106.149 264.705 106.752 262.054 107.354 259.524C108.077 256.15 108.8 252.897 109.282 249.765C109.643 247.717 110.005 245.668 110.246 243.861C110.487 241.813 110.728 240.006 110.848 238.198C109.643 233.74 108.559 229.523 107.475 225.306C106.993 223.138 106.511 221.089 105.908 219.041C104.342 212.415 103.017 206.149 101.812 200.366C101.451 198.197 100.969 196.149 100.607 194.101C99.2818 187.233 98.1974 180.968 97.354 175.426C96.9926 173.257 96.7516 171.209 96.3902 169.281C96.1492 167.233 95.7877 165.185 95.6673 163.498C94.7034 155.787 94.3419 151.329 94.3419 151.329C94.4624 151.208 94.7034 151.088 94.9443 150.967C97.2336 149.401 100.728 147.835 104.704 146.51C108.921 145.064 113.499 143.859 117.595 142.895C118.198 142.775 118.8 142.654 119.403 142.413C124.704 141.208 128.68 140.485 128.68 140.485C146.873 144.341 152.054 141.811 152.054 141.811L161.331 144.582L162.416 144.943L169.163 147.353L169.404 147.473L181.452 151.69L189.525 154.462L186.392 168.92L185.067 175.185L180.97 194.101L179.645 200.366L175.549 219.282L174.223 225.427L170.85 241.09L171.573 244.102L172.898 249.885L174.946 259.163L176.874 267.476L178.199 273.259L182.175 290.609L183.5 296.392L187.476 313.622L188.681 319.284Z" fill="#766FCE"/>
<path d="M162.536 144.823C160.609 156.148 155.066 167.594 143.62 168.799C129.765 170.245 122.656 153.016 119.523 142.293C124.825 141.088 130.367 139.883 130.367 139.883C148.56 143.738 152.054 141.329 152.054 141.329L161.452 144.461L162.536 144.823Z" fill="#F7D5A5"/>
<path d="M142.292 159.281C127.834 159.281 124.34 141.449 124.34 141.208C124.22 140.847 124.581 140.485 124.942 140.365C125.304 140.244 125.665 140.606 125.786 140.967C125.906 141.69 129.159 158.558 143.256 157.835C155.546 157.233 156.268 143.618 156.268 143.015C156.268 142.654 156.63 142.293 156.991 142.293C157.353 142.293 157.714 142.654 157.714 143.015C157.714 143.136 156.871 158.438 143.377 159.16C142.895 159.281 142.533 159.281 142.292 159.281Z" fill="white"/>
<path d="M112.775 157.835C114.705 157.835 116.269 156.271 116.269 154.341C116.269 152.411 114.705 150.847 112.775 150.847C110.846 150.847 109.281 152.411 109.281 154.341C109.281 156.271 110.846 157.835 112.775 157.835Z" fill="#8982E1"/>
<path d="M105.67 175.064C107.6 175.064 109.164 173.5 109.164 171.57C109.164 169.641 107.6 168.076 105.67 168.076C103.74 168.076 102.176 169.641 102.176 171.57C102.176 173.5 103.74 175.064 105.67 175.064Z" fill="#8982E1"/>
<path d="M128.197 183.257C130.127 183.257 131.691 181.693 131.691 179.763C131.691 177.834 130.127 176.269 128.197 176.269C126.267 176.269 124.703 177.834 124.703 179.763C124.703 181.693 126.267 183.257 128.197 183.257Z" fill="#8982E1"/>
<path d="M114.087 193.978C115.879 193.262 116.752 191.229 116.036 189.437C115.32 187.645 113.287 186.772 111.495 187.488C109.703 188.204 108.83 190.237 109.546 192.029C110.262 193.821 112.295 194.694 114.087 193.978Z" fill="#8982E1"/>
<path d="M143.135 199.402C145.064 199.402 146.629 197.838 146.629 195.908C146.629 193.979 145.064 192.414 143.135 192.414C141.205 192.414 139.641 193.979 139.641 195.908C139.641 197.838 141.205 199.402 143.135 199.402Z" fill="#8982E1"/>
<path d="M165.67 206.631C167.6 206.631 169.164 205.067 169.164 203.137C169.164 201.208 167.6 199.643 165.67 199.643C163.74 199.643 162.176 201.208 162.176 203.137C162.176 205.067 163.74 206.631 165.67 206.631Z" fill="#8982E1"/>
<path d="M170.244 161.329C172.174 161.329 173.738 159.765 173.738 157.835C173.738 155.905 172.174 154.341 170.244 154.341C168.314 154.341 166.75 155.905 166.75 157.835C166.75 159.765 168.314 161.329 170.244 161.329Z" fill="#8982E1"/>
<path d="M144.588 221.933C146.518 221.933 148.082 220.369 148.082 218.439C148.082 216.509 146.518 214.945 144.588 214.945C142.658 214.945 141.094 216.509 141.094 218.439C141.094 220.369 142.658 221.933 144.588 221.933Z" fill="#8982E1"/>
<path d="M122.775 232.897C124.705 232.897 126.269 231.333 126.269 229.403C126.269 227.473 124.705 225.909 122.775 225.909C120.846 225.909 119.281 227.473 119.281 229.403C119.281 231.333 120.846 232.897 122.775 232.897Z" fill="#8982E1"/>
<path d="M120.244 213.017C122.174 213.017 123.738 211.453 123.738 209.523C123.738 207.593 122.174 206.029 120.244 206.029C118.314 206.029 116.75 207.593 116.75 209.523C116.75 211.453 118.314 213.017 120.244 213.017Z" fill="#8982E1"/>
<path d="M155.068 184.101C156.998 184.101 158.562 182.536 158.562 180.607C158.562 178.677 156.998 177.113 155.068 177.113C153.139 177.113 151.574 178.677 151.574 180.607C151.574 182.536 153.139 184.101 155.068 184.101Z" fill="#8982E1"/>
<path d="M174.709 179.643C176.639 179.643 178.203 178.078 178.203 176.149C178.203 174.219 176.639 172.655 174.709 172.655C172.779 172.655 171.215 174.219 171.215 176.149C171.215 178.078 172.779 179.643 174.709 179.643Z" fill="#8982E1"/>
<path d="M162.174 227.837C164.103 227.837 165.668 226.272 165.668 224.343C165.668 222.413 164.103 220.849 162.174 220.849C160.244 220.849 158.68 222.413 158.68 224.343C158.68 226.272 160.244 227.837 162.174 227.837Z" fill="#8982E1"/>
<path d="M163.139 255.789C165.068 255.789 166.633 254.225 166.633 252.295C166.633 250.365 165.068 248.801 163.139 248.801C161.209 248.801 159.645 250.365 159.645 252.295C159.645 254.225 161.209 255.789 163.139 255.789Z" fill="#8982E1"/>
<path d="M146.716 245.144C148.508 244.428 149.38 242.395 148.664 240.604C147.948 238.812 145.915 237.939 144.123 238.655C142.332 239.371 141.459 241.404 142.175 243.196C142.891 244.988 144.924 245.86 146.716 245.144Z" fill="#8982E1"/>
<path d="M122.618 255.522C124.41 254.806 125.283 252.773 124.567 250.981C123.851 249.189 121.818 248.317 120.026 249.033C118.234 249.749 117.362 251.782 118.078 253.574C118.793 255.366 120.826 256.238 122.618 255.522Z" fill="#8982E1"/>
<path d="M196.15 363.864L195.428 359.406L192.656 342.297L191.693 336.514L188.921 320.128L183.981 320.369L118.317 323.381L93.9795 324.465L92.4132 337.116L91.6903 343.02L89.5216 360.611L89.1602 363.864H196.15Z" fill="#9C78ED"/>
<path d="M196.148 363.864L195.425 359.888V359.526L194.943 356.755L194.461 353.984L192.533 342.538L191.931 339.164L191.569 336.755V336.393L189.039 321.453L188.919 320.369L188.678 319.405L188.437 318.561L187.352 313.622L185.184 303.983L184.581 301.212L183.497 296.392L182.172 290.609L181.328 286.633L180.726 283.862L178.316 273.139L177.473 269.283L177.111 267.356L176.87 266.512L175.183 259.042C148.556 266.874 120.242 262.295 107.712 259.404C107.11 261.934 106.507 264.584 105.905 267.235C105.784 267.837 105.664 268.44 105.543 269.042C105.302 270.006 105.061 270.85 104.82 271.813C104.7 272.295 104.579 272.657 104.459 273.139C103.375 277.476 102.29 281.934 101.326 286.392C101.085 287.356 100.965 288.199 100.724 289.163C100.604 289.645 100.483 290.127 100.363 290.609C99.8806 292.537 99.5191 294.465 99.0372 296.392C98.4348 298.922 97.9528 301.453 97.4709 303.862C97.2299 304.826 97.1095 305.67 96.8685 306.513C96.3865 309.043 95.9046 311.453 95.5432 313.742C95.1817 315.79 94.9407 317.718 94.6998 319.646C94.5793 320.248 94.5793 320.851 94.4588 321.333C94.3383 322.297 94.2178 323.14 94.2178 324.104C94.2178 324.224 94.2178 324.345 94.2178 324.465L92.6515 337.116L92.4106 339.044L92.0491 341.815L91.9286 343.02L90.2418 356.876L89.8804 359.647L89.7599 360.49L89.3984 363.743H196.148V363.864Z" fill="#5D599C"/>
<path d="M163.859 97.2314C163.859 97.2314 168.196 91.6891 171.449 96.2675C174.702 100.846 170.124 114.22 162.172 110.967L163.859 97.2314Z" fill="#F4C38B"/>
<path d="M130.484 125.425V141.931C130.484 141.931 138.195 147.835 144.099 148.317C150.123 148.799 152.172 141.811 152.172 141.811V126.509L130.484 125.425Z" fill="#F7D5A5"/>
<path d="M130.484 126.991V133.618C134.46 138.076 141.569 139.642 152.172 138.076V128.075L130.484 126.991Z" fill="#F4C38B"/>
<path d="M166.505 103.497C166.264 105.063 166.143 106.75 165.782 108.316C163.854 119.039 157.107 130.606 148.553 132.533C130.119 136.75 122.408 122.172 119.395 111.449C119.034 110.244 119.636 108.918 119.395 107.473C118.793 104.099 117.468 100.364 117.106 96.6289C116.865 93.9783 116.745 91.4481 116.624 89.1589C116.383 82.6527 120.118 76.6285 126.022 74.3393C134.576 70.9657 147.468 68.3151 159.637 75.4237C164.095 78.0743 166.987 83.0142 167.107 88.3155C167.228 92.5325 167.228 97.9543 166.505 103.497Z" fill="#F7D5A5"/>
<path d="M167.23 101.81C167.11 101.93 166.869 101.93 166.748 101.569C164.339 97.2314 166.628 88.677 159.399 85.4239C153.857 82.8937 151.929 77.7129 151.929 77.7129C150.724 79.8816 147.35 81.8094 147.35 81.8094C147.35 81.8094 139.037 86.7492 130.362 90.0023C127.832 90.9662 126.025 92.0505 124.699 92.8939C124.82 92.8939 124.82 92.8939 124.82 92.8939C124.82 92.8939 122.41 96.7494 124.217 102.774C126.025 108.798 123.735 118.798 119.88 121.087C120 120.967 122.892 113.979 121.205 108.436C120.241 105.183 120.241 100.123 119.398 96.9904C118.434 96.2675 116.145 95.1831 115.302 94.7012C115.061 92.0505 114.94 89.3999 114.82 87.1107C114.458 80.484 118.434 74.3393 124.699 71.9296C133.615 68.4356 147.23 65.7849 160.122 73.014C164.821 75.6646 167.833 80.725 167.953 86.1468C168.074 90.7252 167.953 96.147 167.23 101.81Z" fill="#911368"/>
<path d="M119.393 97.2314C119.393 97.2314 114.333 91.0866 111.321 95.5446C108.309 100.003 112.767 113.497 119.996 110.364L119.393 97.2314Z" fill="#F4C38B"/>
<path d="M386.748 230.246C375.061 238.68 356.627 244.463 356.627 244.463L352.892 230.969L350 220.367L347.952 212.897H326.867C327.952 216.873 329.156 220.849 330.361 224.824C331.928 230.005 333.373 234.945 334.819 239.644C336.867 246.15 338.675 251.934 340.241 255.91C340.602 256.873 340.964 257.958 341.446 259.042C344.217 266.633 346.506 274.946 357.229 269.765C366.748 265.187 379.519 258.922 385.905 254.705L386.748 230.246Z" fill="#F7D5A5"/>
<path d="M330.242 224.825C331.808 229.885 333.254 234.945 334.7 239.644C343.254 238.68 349.279 234.463 352.773 230.969L349.881 220.367L330.242 224.825Z" fill="#F4C38B"/>
<path d="M325.786 150.967C325.786 150.967 347.714 203.378 357.232 220.367C357.232 220.367 343.979 231.572 331.087 231.933C331.087 231.933 323.617 174.341 325.786 150.967Z" fill="#81145E"/>
<path d="M274.336 363.864C274.577 360.249 274.818 356.755 274.938 353.502C275.661 340.249 276.264 331.212 276.264 331.212L271.083 330.971L268.191 330.851L233.01 329.285C233.01 329.285 232.407 339.405 231.564 354.225C231.443 357.237 231.203 360.49 231.082 363.864H274.336Z" fill="#5D599C"/>
<path d="M271.085 330.971L276.266 331.212C276.266 331.212 275.784 340.249 274.94 353.502C261.446 354.586 246.626 355.068 231.445 354.225C232.168 339.405 232.891 329.285 232.891 329.285L268.073 330.851L271.085 330.971Z" fill="#4E4B83"/>
<path d="M269.278 363.864C270.122 349.767 270.724 337.598 271.086 330.971L268.194 330.851C267.833 337.478 267.11 349.646 266.387 363.864H269.278Z" fill="#4E4B83"/>
<path d="M285.662 363.864H328.916C328.796 360.49 328.555 357.237 328.434 354.225C327.711 339.405 326.988 329.285 326.988 329.285L291.807 330.851L288.915 330.971L283.734 331.212C283.734 331.212 284.216 340.249 285.06 353.502C285.301 356.755 285.542 360.249 285.662 363.864Z" fill="#9C78ED"/>
<path d="M289.04 330.971L283.859 331.212C283.859 331.212 284.341 340.249 285.185 353.502C298.679 354.586 313.499 355.068 328.68 354.225C327.957 339.405 327.234 329.285 327.234 329.285L292.052 330.851L289.04 330.971Z" fill="#7846D1"/>
<path d="M293.738 363.864C292.895 349.646 292.292 337.478 291.931 330.851L289.039 330.971C289.401 337.598 290.123 349.767 290.846 363.864H293.738Z" fill="#7846D1"/>
<path d="M225.309 304.224C225.309 304.947 225.309 305.67 225.309 306.393C225.309 319.284 225.429 329.285 225.429 334.104C237.839 337.478 250.249 339.646 262.779 340.61C263.382 340.61 263.864 340.731 264.466 340.731C264.828 340.731 265.068 340.731 265.43 340.731C266.153 340.731 266.755 340.851 267.478 340.851C268.201 340.851 268.924 340.972 269.647 340.972C278.081 341.333 286.635 341.213 295.069 340.49C296.756 340.369 298.443 340.128 300.25 340.008C300.37 340.008 300.491 340.008 300.611 340.008C301.093 340.008 301.455 339.887 301.937 339.887C302.178 339.887 302.419 339.767 302.78 339.767C312.66 338.562 322.419 336.634 332.299 333.984C332.299 331.815 332.299 328.441 332.299 324.345C332.299 323.622 332.299 322.778 332.299 321.935C332.299 316.031 332.299 308.561 332.178 300.248C332.178 299.525 332.178 298.802 332.178 298.079C332.178 292.537 332.058 286.513 332.058 280.368C332.058 279.645 332.058 278.922 332.058 278.199C331.937 271.813 331.937 265.187 331.817 258.44C331.696 254.343 331.696 250.126 331.576 246.03C331.455 241.813 331.455 237.596 331.335 233.379C331.335 232.415 331.335 231.572 331.215 230.608C330.251 190.968 328.564 154.703 325.793 150.606C323.865 147.835 319.527 144.461 314.347 141.208C313.744 140.847 313.021 140.365 312.419 140.003C310.25 138.678 292.298 132.533 290.009 131.208L271.093 129.883C270.972 130.003 252.9 136.027 252.779 136.148C252.056 136.63 251.213 136.991 250.49 137.473C243.743 141.329 237.116 145.425 233.381 148.919C232.779 149.401 232.297 149.883 231.935 150.365C231.574 150.727 231.333 151.088 231.092 151.449C230.851 151.811 230.61 152.293 230.489 153.136C228.2 161.45 226.995 194.221 226.393 229.885C226.393 232.415 226.272 235.066 226.272 237.596C226.272 238.68 226.272 239.885 226.272 240.969C226.272 241.692 226.272 242.536 226.272 243.259C226.272 243.62 226.272 243.982 226.272 244.464C226.272 246.391 226.272 248.319 226.152 250.247C226.152 251.693 226.152 253.138 226.152 254.464C225.309 272.536 225.309 290.007 225.309 304.224Z" fill="#911368"/>
<path d="M191.45 355.068C190.968 360.129 197.113 357.357 195.426 347.116C193.739 336.875 198.679 327.598 200.727 327.839C202.896 328.2 198.92 339.044 200.848 342.899C202.775 346.875 205.185 339.164 207.595 334.586C210.125 329.767 210.004 319.284 208.8 311.814C207.595 304.344 221.209 258.922 221.33 245.668L223.017 240.126L229.041 219.644L238.559 187.595C238.559 187.595 232.896 163.377 223.258 165.426C223.258 165.426 218.197 182.293 212.776 201.33C211.812 204.583 210.968 207.836 210.004 211.089C206.149 224.945 202.534 238.56 200.848 246.632C196.39 267.958 196.028 312.296 196.028 312.296C196.028 312.296 188.197 328.562 187.956 335.911C187.835 343.863 191.932 350.008 191.45 355.068Z" fill="#F7D5A5"/>
<path d="M210.004 211.33L223.016 240.247L229.04 219.764L212.775 201.571C211.811 204.824 210.968 208.077 210.004 211.33Z" fill="#F4C38B"/>
<path d="M209.398 202.776C215.061 212.535 220.844 222.174 226.628 231.933C228.555 225.547 230.483 219.523 232.291 213.86C233.013 211.571 233.736 209.402 234.459 207.354V207.234C234.7 206.511 234.941 205.788 235.182 205.065C237.953 196.752 240.002 190.125 240.724 186.269C242.411 175.908 237.833 155.546 231.568 151.57C231.447 151.931 230.965 150.847 230.604 151.449C229.519 153.98 224.579 160.365 222.17 166.51C221.808 167.353 221.567 168.076 221.206 168.92C217.712 178.077 213.374 189.884 209.398 202.776Z" fill="#911368"/>
<path d="M279.405 148.799C287.598 148.799 293.381 141.329 293.622 140.967C293.984 140.485 293.863 139.883 293.502 139.521C293.02 139.16 292.417 139.28 292.056 139.642C291.935 139.762 286.634 146.63 279.405 146.63C272.296 146.63 267.839 138.799 267.839 138.678C267.598 138.196 266.995 137.955 266.513 138.317C266.031 138.558 265.911 139.28 266.152 139.762C266.393 140.244 271.092 148.799 279.405 148.799Z" fill="#B42F89"/>
<path d="M314.103 220.608C314.224 220.608 314.465 220.608 314.585 220.487C315.067 220.246 315.308 219.523 315.067 219.041L311.453 211.451C311.212 210.969 310.609 210.728 310.127 210.969C309.645 211.21 309.404 211.933 309.645 212.415L313.26 220.005C313.501 220.367 313.742 220.608 314.103 220.608Z" fill="#B42F89"/>
<path d="M321.576 214.342C321.696 214.463 321.817 214.463 322.058 214.463C322.66 214.463 323.142 214.101 323.142 213.499L323.865 205.065C323.865 204.463 323.503 203.981 322.901 203.86C322.299 203.86 321.817 204.222 321.817 204.824L321.094 213.258C321.094 213.74 321.335 214.222 321.576 214.342Z" fill="#B42F89"/>
<path d="M302.412 201.33C302.894 201.33 303.376 200.969 303.376 200.487L304.701 192.173C304.822 191.571 304.46 191.089 303.858 190.968C303.256 190.848 302.774 191.209 302.653 191.812L301.328 200.125C301.207 200.728 301.569 201.21 302.171 201.33C302.292 201.33 302.292 201.33 302.412 201.33Z" fill="#B42F89"/>
<path d="M270.244 204.463C270.364 204.463 270.605 204.463 270.726 204.342C271.208 204.101 271.328 203.378 271.087 202.896L266.991 195.547C266.75 195.065 266.147 194.824 265.666 195.185C265.184 195.426 265.063 196.149 265.304 196.631L269.401 203.981C269.521 204.222 269.882 204.463 270.244 204.463Z" fill="#B42F89"/>
<path d="M309.765 171.691C310.005 171.691 310.126 171.691 310.246 171.57L316.873 166.992C317.355 166.63 317.476 166.028 317.114 165.546C316.873 165.064 316.15 164.944 315.789 165.185L309.162 169.763C308.68 170.125 308.56 170.727 308.921 171.209C309.042 171.57 309.403 171.691 309.765 171.691Z" fill="#B42F89"/>
<path d="M280.131 239.644C280.251 239.644 280.492 239.644 280.613 239.524C281.094 239.283 281.335 238.56 281.094 238.078L277.48 230.487C277.239 230.005 276.637 229.764 276.155 230.005C275.673 230.246 275.432 230.969 275.673 231.451L279.287 239.042C279.408 239.403 279.769 239.644 280.131 239.644Z" fill="#B42F89"/>
<path d="M295.789 177.354C296.151 177.354 296.392 177.233 296.633 176.872C296.873 176.39 296.753 175.667 296.271 175.426L289.524 170.968C289.042 170.606 288.44 170.847 288.199 171.329C287.958 171.811 288.078 172.534 288.56 172.775L295.307 177.233C295.428 177.354 295.669 177.354 295.789 177.354Z" fill="#B42F89"/>
<path d="M311.812 145.907C311.812 146.148 311.813 146.269 311.933 146.51C312.053 146.871 312.415 146.991 312.776 147.112C313.379 147.112 313.861 146.751 313.861 146.148L314.222 141.329C313.62 140.967 312.897 140.485 312.294 140.124L311.812 145.907Z" fill="#B42F89"/>
<path d="M320.731 192.414C321.092 192.414 321.333 192.294 321.574 191.932C321.815 191.45 321.694 190.727 321.212 190.486L314.465 186.028C313.983 185.667 313.381 185.908 313.14 186.39C312.899 186.872 313.02 187.595 313.501 187.836L320.249 192.294C320.369 192.294 320.61 192.414 320.731 192.414Z" fill="#B42F89"/>
<path d="M267.113 155.425C267.354 155.425 267.474 155.425 267.715 155.305C268.197 154.943 268.318 154.341 267.956 153.859L264.101 147.594C263.739 147.112 263.137 146.991 262.775 147.232C262.293 147.594 262.173 148.196 262.534 148.678L266.39 154.943C266.51 155.305 266.872 155.425 267.113 155.425Z" fill="#B42F89"/>
<path d="M263.74 262.898C263.981 262.898 264.222 262.777 264.463 262.536L270.005 256.391C270.367 255.91 270.367 255.307 270.005 254.825C269.644 254.464 268.921 254.464 268.559 254.825L263.017 260.97C262.656 261.452 262.656 262.054 263.017 262.536C263.258 262.777 263.499 262.898 263.74 262.898Z" fill="#B42F89"/>
<path d="M283.857 261.572C284.098 261.572 284.339 261.452 284.58 261.211L290.122 255.066C290.484 254.584 290.484 253.982 290.122 253.5C289.761 253.138 289.038 253.138 288.677 253.5L283.134 259.765C282.773 260.247 282.773 260.849 283.134 261.331C283.375 261.452 283.616 261.572 283.857 261.572Z" fill="#B42F89"/>
<path d="M298.439 302.898C298.56 302.658 298.56 302.296 298.439 302.055L295.066 294.465C294.825 293.983 294.222 293.742 293.741 293.983C293.259 294.224 293.018 294.826 293.259 295.428L296.632 303.019C296.873 303.501 297.476 303.742 297.958 303.501C298.198 303.38 298.319 303.139 298.439 302.898Z" fill="#B42F89"/>
<path d="M240.486 328.2C240.607 327.959 240.607 327.598 240.486 327.357L237.113 319.766C236.872 319.284 236.269 319.043 235.787 319.284C235.305 319.525 235.065 320.128 235.305 320.73L238.679 328.321C238.92 328.803 239.522 329.044 240.004 328.803C240.245 328.682 240.366 328.441 240.486 328.2Z" fill="#B42F89"/>
<path d="M265.426 340.851C266.149 340.851 266.751 340.972 267.474 340.972L268.197 336.152C268.317 335.55 267.956 335.068 267.354 334.947C266.751 334.827 266.269 335.309 266.269 335.791L265.426 340.851Z" fill="#B42F89"/>
<path d="M257.355 326.393C257.596 326.272 257.716 326.032 257.716 325.67L258.921 317.236C259.042 316.634 258.68 316.152 258.078 316.031C257.475 315.911 256.994 316.393 256.994 316.875L255.789 325.309C255.668 325.911 256.03 326.393 256.632 326.513C256.994 326.634 257.235 326.634 257.355 326.393Z" fill="#B42F89"/>
<path d="M305.549 256.391C305.67 256.391 305.911 256.391 306.031 256.271C306.513 256.03 306.634 255.307 306.393 254.825L302.417 247.476C302.176 246.994 301.573 246.753 301.091 247.114C300.609 247.355 300.489 248.078 300.73 248.56L304.706 255.91C304.947 256.15 305.308 256.391 305.549 256.391Z" fill="#B42F89"/>
<path d="M293.983 238.078C294.344 238.078 294.705 237.837 294.826 237.475L298.441 229.885C298.681 229.403 298.561 228.68 297.959 228.439C297.477 228.198 296.874 228.319 296.633 228.921L293.019 236.512C292.778 236.993 292.898 237.716 293.501 237.957C293.621 238.078 293.742 238.078 293.983 238.078Z" fill="#B42F89"/>
<path d="M325.547 236.993C325.667 237.114 325.788 237.234 325.908 237.234C326.27 237.355 326.631 237.355 326.993 237.114L331.089 233.499C331.089 232.536 331.089 231.692 330.969 230.728L325.667 235.548C325.185 235.789 325.185 236.512 325.547 236.993Z" fill="#B42F89"/>
<path d="M293.983 158.076C294.344 158.076 294.705 157.835 294.826 157.474L298.441 149.883C298.681 149.401 298.561 148.678 297.959 148.437C297.477 148.196 296.874 148.317 296.633 148.919L293.019 156.51C292.778 156.992 292.898 157.715 293.501 157.956C293.742 158.076 293.862 158.076 293.983 158.076Z" fill="#B42F89"/>
<path d="M270.73 185.667C270.85 185.667 270.85 185.667 270.971 185.667C271.453 185.547 271.814 184.944 271.814 184.462L270.369 176.149C270.248 175.546 269.766 175.185 269.164 175.305C268.682 175.426 268.32 176.028 268.32 176.51L269.766 184.824C269.766 185.306 270.248 185.667 270.73 185.667Z" fill="#B42F89"/>
<path d="M283.617 193.017C283.737 193.017 283.737 193.017 283.858 193.017C284.34 192.896 284.701 192.294 284.701 191.812L283.255 183.498C283.135 182.896 282.653 182.534 282.05 182.655C281.568 182.775 281.207 183.378 281.207 183.86L282.653 192.173C282.773 192.655 283.255 193.017 283.617 193.017Z" fill="#B42F89"/>
<path d="M274.339 165.546C274.7 165.546 274.941 165.426 275.182 165.064L279.399 157.956C279.64 157.474 279.52 156.751 279.038 156.51C278.556 156.148 277.953 156.389 277.712 156.871L273.495 163.98C273.255 164.462 273.375 165.185 273.857 165.426C273.977 165.546 274.218 165.546 274.339 165.546Z" fill="#B42F89"/>
<path d="M313.381 239.403C313.622 239.042 313.743 238.68 313.502 238.198L310.128 230.487C309.887 230.005 309.285 229.764 308.803 230.005C308.321 230.246 308.08 230.849 308.321 231.451L311.695 239.162C311.936 239.644 312.538 239.885 313.02 239.644C313.14 239.524 313.261 239.524 313.381 239.403Z" fill="#B42F89"/>
<path d="M287.595 217.234C287.957 217.234 288.318 216.993 288.559 216.511L291.451 208.559C291.692 207.957 291.451 207.354 290.848 207.234C290.366 206.993 289.764 207.234 289.523 207.836L286.631 215.788C286.39 216.391 286.631 216.993 287.234 217.113C287.354 217.113 287.475 217.234 287.595 217.234Z" fill="#B42F89"/>
<path d="M255.908 265.91C256.028 265.91 256.269 265.91 256.39 265.789C256.872 265.548 257.113 264.825 256.872 264.343L253.257 256.753C253.016 256.271 252.414 256.03 251.932 256.271C251.45 256.512 251.209 257.235 251.45 257.717L255.065 265.307C255.185 265.789 255.546 265.91 255.908 265.91Z" fill="#B42F89"/>
<path d="M308.559 320.369C308.559 320.489 308.559 320.73 308.679 320.851C308.92 321.333 309.522 321.574 310.004 321.333L316.993 317.477C317.474 317.236 317.715 316.513 317.474 316.031C317.233 315.549 316.631 315.308 316.149 315.549L309.161 319.405C308.679 319.525 308.559 319.887 308.559 320.369Z" fill="#B42F89"/>
<path d="M327.598 325.188C327.598 325.309 327.598 325.55 327.718 325.67C327.959 326.152 328.562 326.393 329.043 326.152L332.056 324.465C332.056 323.742 332.056 322.899 332.056 322.056L328.08 324.224C327.839 324.345 327.598 324.827 327.598 325.188Z" fill="#B42F89"/>
<path d="M298.081 334.586L300.49 340.128C300.972 340.128 301.334 340.008 301.816 340.008C302.057 340.008 302.298 339.887 302.659 339.887L300.008 333.743C299.767 333.261 299.165 333.02 298.683 333.261C298.081 333.381 297.84 334.104 298.081 334.586Z" fill="#B42F89"/>
<path d="M242.893 246.632C243.375 246.632 243.856 246.271 243.856 245.789L245.182 237.475C245.302 236.873 244.941 236.391 244.338 236.271C243.736 236.15 243.254 236.511 243.134 237.114L241.808 245.427C241.688 246.03 242.049 246.512 242.652 246.632C242.772 246.632 242.893 246.632 242.893 246.632Z" fill="#B42F89"/>
<path d="M242.053 184.944C242.173 184.944 242.414 184.944 242.534 184.824C243.016 184.583 243.137 183.86 242.896 183.378L238.799 176.028C238.558 175.546 237.956 175.305 237.474 175.667C236.992 175.908 236.872 176.631 237.113 177.113L241.209 184.462C241.45 184.703 241.691 184.944 242.053 184.944Z" fill="#B42F89"/>
<path d="M255.061 214.583C255.302 214.583 255.423 214.583 255.543 214.463L262.17 209.884C262.652 209.523 262.772 208.921 262.411 208.439C262.17 207.957 261.447 207.836 261.086 208.077L254.459 212.656C253.977 213.017 253.857 213.619 254.218 214.101C254.459 214.463 254.7 214.583 255.061 214.583Z" fill="#B42F89"/>
<path d="M325.552 264.343C325.673 264.343 325.914 264.343 326.034 264.223C326.516 263.982 326.757 263.259 326.516 262.777L322.902 255.187C322.661 254.705 322.058 254.464 321.576 254.705C321.095 254.946 320.854 255.669 321.095 256.15L324.709 263.741C324.83 264.102 325.191 264.343 325.552 264.343Z" fill="#B42F89"/>
<path d="M243.738 226.029C244.1 226.029 244.341 225.909 244.582 225.547C244.823 225.065 244.702 224.343 244.22 224.102L237.473 219.644C236.991 219.282 236.389 219.523 236.148 220.005C235.907 220.487 236.027 221.21 236.509 221.451L243.256 225.909C243.377 226.029 243.497 226.029 243.738 226.029Z" fill="#B42F89"/>
<path d="M259.887 236.752C260.128 236.993 260.489 237.114 260.851 236.993C261.333 236.873 261.694 236.271 261.574 235.668L259.525 227.475C259.405 226.873 258.802 226.511 258.32 226.752C257.839 226.873 257.477 227.475 257.598 228.078L259.646 236.271C259.646 236.512 259.766 236.632 259.887 236.752Z" fill="#B42F89"/>
<path d="M231.445 150.365L233.132 153.136C233.373 153.498 233.614 153.618 233.975 153.618C234.216 153.618 234.337 153.618 234.578 153.498C235.06 153.136 235.18 152.534 234.819 152.052L232.891 148.919C232.409 149.401 231.927 149.883 231.445 150.365Z" fill="#B42F89"/>
<path d="M223.863 169.04L225.671 172.052C225.912 172.414 226.152 172.534 226.514 172.534C226.755 172.534 226.875 172.534 227.116 172.414C227.598 172.052 227.719 171.45 227.357 170.968L224.707 166.751C224.466 167.353 224.225 168.197 223.863 169.04Z" fill="#B42F89"/>
<path d="M310.248 290.73C310.489 290.73 310.73 290.609 310.971 290.368L316.513 284.223C316.875 283.741 316.875 283.139 316.513 282.657C316.152 282.296 315.429 282.296 315.067 282.657L309.525 288.802C309.164 289.284 309.164 289.886 309.525 290.368C309.766 290.609 310.007 290.73 310.248 290.73Z" fill="#B42F89"/>
<path d="M273.74 312.176C273.981 312.176 274.222 312.055 274.463 311.814L280.005 305.67C280.367 305.188 280.367 304.585 280.005 304.103C279.644 303.742 278.921 303.742 278.559 304.103L273.017 310.248C272.656 310.73 272.656 311.332 273.017 311.814C273.258 312.055 273.499 312.176 273.74 312.176Z" fill="#B42F89"/>
<path d="M263.619 303.621C263.74 303.38 263.86 303.139 263.86 302.778L262.896 294.344C262.776 293.742 262.294 293.38 261.812 293.38C261.209 293.501 260.848 293.983 260.968 294.585L261.932 303.019C262.053 303.621 262.535 303.983 263.017 303.983C263.258 303.983 263.499 303.862 263.619 303.621Z" fill="#B42F89"/>
<path d="M284.463 327.357C284.704 327.357 284.945 327.236 285.186 326.995L290.728 320.851C291.089 320.369 291.089 319.766 290.728 319.284C290.366 318.923 289.644 318.923 289.282 319.284L283.74 325.429C283.378 325.911 283.378 326.513 283.74 326.995C283.86 327.236 284.222 327.357 284.463 327.357Z" fill="#B42F89"/>
<path d="M225.309 304.224C225.309 304.947 225.309 305.67 225.309 306.393L231.453 306.995C232.056 306.995 232.538 306.633 232.538 306.031C232.538 305.429 232.176 304.947 231.574 304.826L225.309 304.224Z" fill="#B42F89"/>
<path d="M297.838 277.838C298.079 277.838 298.32 277.717 298.561 277.476L304.103 271.332C304.464 270.85 304.464 270.247 304.103 269.765C303.741 269.404 303.019 269.404 302.657 269.765L297.115 275.91C296.753 276.392 296.753 276.994 297.115 277.476C297.356 277.717 297.597 277.838 297.838 277.838Z" fill="#B42F89"/>
<path d="M271.453 275.187C271.453 275.428 271.574 275.789 271.815 275.91L277.839 281.332C278.321 281.693 278.923 281.693 279.285 281.211C279.646 280.729 279.526 280.127 279.164 279.765L273.14 274.344C272.658 273.982 272.056 273.982 271.694 274.464C271.574 274.705 271.453 274.946 271.453 275.187Z" fill="#B42F89"/>
<path d="M242.534 305.188C242.654 305.188 242.895 305.188 243.016 305.067C243.497 304.826 243.618 304.103 243.377 303.621L239.401 296.272C239.16 295.79 238.558 295.549 238.076 295.91C237.594 296.151 237.473 296.874 237.714 297.356L241.69 304.706C241.931 305.067 242.172 305.188 242.534 305.188Z" fill="#B42F89"/>
<path d="M235.67 283.38C236.032 283.38 236.393 283.139 236.513 282.778L240.128 275.187C240.369 274.705 240.248 273.982 239.646 273.741C239.164 273.5 238.562 273.621 238.321 274.223L234.706 281.814C234.465 282.296 234.586 283.019 235.188 283.26C235.429 283.38 235.55 283.38 235.67 283.38Z" fill="#B42F89"/>
<path d="M246.514 197.836C246.875 197.836 247.237 197.595 247.357 197.234L250.972 189.643C251.213 189.161 251.092 188.438 250.49 188.197C250.008 187.956 249.405 188.077 249.164 188.679L245.55 196.27C245.309 196.752 245.429 197.475 246.032 197.715C246.273 197.836 246.393 197.836 246.514 197.836Z" fill="#B42F89"/>
<path d="M242.539 166.269C242.659 166.269 242.659 166.269 242.78 166.269C243.262 166.149 243.623 165.546 243.623 165.064L242.177 156.751C242.057 156.148 241.575 155.787 240.972 155.907C240.49 156.028 240.129 156.63 240.129 157.112L241.575 165.426C241.695 165.908 242.057 166.269 242.539 166.269Z" fill="#B42F89"/>
<path d="M224.343 194.944C224.464 194.944 224.464 194.944 224.584 194.944C225.066 194.824 225.428 194.221 225.428 193.739L223.982 185.426C223.861 184.824 223.379 184.462 222.777 184.583C222.295 184.703 221.934 185.306 221.934 185.788L223.379 194.101C223.379 194.583 223.861 194.944 224.343 194.944Z" fill="#B42F89"/>
<path d="M255.543 173.498C255.663 173.498 255.663 173.498 255.783 173.498C256.265 173.378 256.627 172.775 256.627 172.293L255.181 163.98C255.061 163.377 254.579 163.016 253.976 163.136C253.494 163.257 253.133 163.859 253.133 164.341L254.579 172.655C254.699 173.257 255.061 173.498 255.543 173.498Z" fill="#B42F89"/>
<path d="M249.524 144.582C249.765 144.582 249.885 144.582 250.126 144.582C250.487 144.461 250.728 144.22 250.728 143.859L252.415 136.268C251.692 136.75 250.849 137.112 250.126 137.594L248.801 143.377C248.68 143.859 249.042 144.461 249.524 144.582Z" fill="#B42F89"/>
<path d="M226.749 207.836C227.11 207.836 227.351 207.716 227.592 207.354L231.809 200.246C232.05 199.764 231.93 199.041 231.448 198.8C230.966 198.438 230.364 198.679 230.123 199.161L225.906 206.27C225.665 206.752 225.785 207.475 226.267 207.716C226.388 207.836 226.508 207.836 226.749 207.836Z" fill="#B42F89"/>
<path d="M255.069 284.705C255.31 284.344 255.43 283.982 255.189 283.5L251.816 275.789C251.575 275.308 250.972 275.067 250.491 275.308C250.009 275.548 249.768 276.151 250.009 276.753L253.382 284.464C253.623 284.946 254.226 285.187 254.707 284.946C254.948 284.946 255.069 284.826 255.069 284.705Z" fill="#B42F89"/>
<path d="M325.308 299.163L331.935 300.368C331.935 299.645 331.935 298.922 331.935 298.2L325.549 297.115C324.947 296.995 324.465 297.477 324.465 297.959C324.465 298.441 324.826 299.043 325.308 299.163Z" fill="#B42F89"/>
<path d="M327.356 279.524L331.814 280.247C331.814 279.524 331.814 278.802 331.814 278.079L327.717 277.356C327.115 277.235 326.633 277.717 326.633 278.199C326.512 278.922 326.874 279.524 327.356 279.524Z" fill="#B42F89"/>
<path d="M229.4 262.536C229.761 262.536 230.123 262.295 230.364 261.813L233.255 253.861C233.496 253.259 233.255 252.656 232.653 252.536C232.171 252.295 231.569 252.536 231.328 253.138L228.436 261.09C228.195 261.693 228.436 262.295 229.039 262.416C229.159 262.536 229.279 262.536 229.4 262.536Z" fill="#B42F89"/>
<path d="M225.66 237.596C227.588 229.885 229.877 221.21 232.287 213.86C233.01 211.571 233.733 209.402 234.456 207.354V207.234C234.697 206.631 234.937 206.029 235.058 205.426C235.058 205.306 235.058 205.186 235.058 205.065C235.058 204.704 234.817 204.342 234.456 204.222C233.974 204.101 233.492 204.342 233.371 204.704C230.961 211.21 228.19 220.608 225.781 229.885C225.781 232.536 225.781 235.066 225.66 237.596Z" fill="#7A1A5B"/>
<path d="M254.34 87.9541C254.34 87.9541 247.352 80.2431 250.003 71.3272C252.653 62.4114 259.762 62.5318 259.762 62.5318C259.762 62.5318 263.979 53.0136 271.087 52.7726C278.196 52.4111 284.943 39.7603 291.449 43.2543C297.955 46.7484 290.726 54.2184 290.726 54.2184C290.726 54.2184 301.811 42.5314 305.546 45.905C309.16 49.399 300.486 58.5558 300.486 58.5558C300.486 58.5558 309.883 51.9292 312.895 54.4594C315.908 56.9895 305.546 67.7127 305.546 67.7127C305.546 67.7127 312.293 79.8816 305.546 85.3034L254.34 87.9541Z" fill="#3C323A"/>
<path d="M303.014 90.6047C303.014 90.6047 307.472 84.701 310.725 89.5204C313.978 94.4602 309.4 108.918 301.207 105.424L303.014 90.6047Z" fill="#F4C38B"/>
<path d="M257.11 90.6047C257.11 90.6047 252.652 84.701 249.399 89.5204C246.145 94.4602 250.724 108.918 258.917 105.424L257.11 90.6047Z" fill="#F4C38B"/>
<path d="M269.039 117.714V132.172C269.039 132.172 273.376 139.521 279.16 140.003C284.943 140.485 290.124 133.738 290.124 133.738V118.678L269.039 117.714Z" fill="#F7D5A5"/>
<path d="M269.039 117.714V124.099C272.895 128.437 279.883 129.521 290.124 127.955V118.678L269.039 117.714Z" fill="#F4C38B"/>
<path d="M253.854 80.725C254.095 86.2673 254.698 93.3759 255.662 98.9182C255.903 100.243 256.264 101.569 256.505 102.774C256.746 103.497 256.867 104.219 257.108 104.942C260.481 115.666 268.433 131.208 288.313 124.099C296.626 121.087 301.084 112.412 303.253 103.135C303.374 102.533 303.494 102.051 303.615 101.448C303.735 101.087 303.735 100.725 303.856 100.364L303.976 99.882C303.976 99.7616 303.976 99.7616 303.976 99.6411C305.301 92.412 305.542 85.1829 305.422 79.8816C305.301 74.5803 302.41 69.7609 297.831 67.1102C285.301 60.0017 272.048 62.6523 263.373 66.0259C257.469 68.3151 253.613 74.2188 253.854 80.725Z" fill="#F7D5A5"/>
<path d="M255.785 98.9182C255.906 99.5206 256.629 102.051 257.351 104.942C260.725 115.666 268.677 131.208 288.557 124.099C296.87 121.087 301.328 112.412 303.497 103.135C303.618 102.533 303.738 102.051 303.858 101.448C303.979 101.087 303.979 100.725 304.099 100.364L304.22 99.882C304.22 99.7616 304.22 99.7616 304.22 99.6411L301.328 99.0386C300.726 101.81 299.521 104.46 298.075 106.75C295.545 100.846 283.015 104.701 283.015 104.701C282.292 104.942 281.448 105.063 280.725 105.063C279.882 105.063 279.159 104.942 278.316 104.701C278.316 104.701 265.906 100.605 263.376 106.268C260.846 102.292 259.038 98.6772 259.038 98.6772L255.785 98.9182ZM280.484 107.352C294.702 105.424 292.412 113.135 292.412 113.135C290.846 114.581 289.4 115.666 288.436 116.147C285.304 117.834 282.292 118.557 280.123 118.437C277.954 118.316 277.352 118.798 271.81 115.786C270.846 115.304 269.882 114.461 268.918 113.617C268.677 112.051 266.267 104.942 280.484 107.352Z" fill="#3C323A"/>
<path d="M253.854 80.725C254.095 86.2673 254.698 93.3759 255.782 98.9182L258.794 98.6772C258.794 98.6772 258.071 93.9783 257.71 90.8457C257.348 87.7131 256.746 82.0503 259.397 81.3274C262.047 80.6045 260.481 74.0984 264.096 71.2067C267.71 68.3151 275.903 67.5922 281.325 70.8453C286.747 74.0984 292.771 70.6043 295.301 71.2067C297.831 71.8091 301.205 75.1827 300.241 78.4358C299.277 81.5684 302.048 83.6166 302.771 86.8697C303.494 90.1228 301.325 99.0386 301.325 99.0386L304.217 99.6411C305.542 92.412 305.783 85.1829 305.663 79.8816C305.542 74.5803 302.651 69.7609 298.072 67.1102C285.542 60.0017 272.289 62.6523 263.614 66.0259C257.469 68.3151 253.613 74.2188 253.854 80.725Z" fill="#3C323A"/>
<path d="M379.889 234.825C378.082 251.813 366.997 289.645 359.286 297.115C349.286 306.754 316.394 327.116 299.285 337.598C296.152 339.526 310.731 352.056 310.731 352.056C310.731 352.056 356.154 332.658 373.503 317.357C378.443 313.019 388.323 299.404 399.649 273.259C403.022 265.307 411.335 249.403 410.854 239.042C410.372 226.993 391.456 229.041 379.889 234.825Z" fill="#4E4B83"/>
<path d="M344.345 332.297C344.345 332.297 331.935 336.996 327.598 342.176C323.26 347.357 317.477 351.695 318.802 353.743C320.248 355.791 326.634 349.887 326.634 349.887C326.634 349.887 328.441 356.394 334.586 357.117C340.851 357.839 352.538 345.67 352.538 345.67L344.345 332.297Z" fill="#F7D5A5"/>
<path d="M466.399 282.175C466.399 283.26 466.399 284.464 466.399 285.91C466.399 287.356 466.399 288.922 466.279 290.73C466.279 291.934 466.158 293.139 466.158 294.585C466.158 295.669 466.038 296.874 466.038 298.079C466.038 299.284 465.917 300.609 465.917 301.935C465.074 319.646 463.026 344.225 458.447 363.864H362.301C365.554 349.526 370.373 326.995 374.349 297.718C374.47 296.513 374.711 295.187 374.831 293.983C374.952 292.778 375.193 291.452 375.313 290.127C375.434 289.404 375.434 288.802 375.554 288.079C375.675 287.476 375.675 286.995 375.795 286.392C375.916 284.826 376.156 283.26 376.277 281.693C376.397 280.368 376.518 279.163 376.638 277.958C378.325 258.319 377.723 243.5 380.132 234.704C382.904 224.463 415.073 212.656 415.073 212.656L435.194 213.74C435.194 213.74 454.471 220.005 464.713 229.041C474.954 238.078 466.399 264.946 466.64 280.247C466.399 280.85 466.399 281.452 466.399 282.175Z" fill="#5D599C"/>
<path d="M466.395 286.031C457.599 287.115 448.563 287.476 439.527 287.476C410.249 287.476 382.658 283.019 376.031 281.814C376.152 280.488 376.272 279.284 376.393 278.079C384.104 279.404 428.924 286.874 466.395 282.175C466.395 283.26 466.395 284.585 466.395 286.031Z" fill="#766FCE"/>
<path d="M466.281 290.73C466.281 291.934 466.161 293.139 466.161 294.585C457.486 295.669 448.449 296.031 439.533 296.031C408.569 296.031 379.653 290.971 375.074 290.248C375.195 289.525 375.195 288.922 375.315 288.199C375.436 287.597 375.436 287.115 375.556 286.513C380.014 287.235 427.124 295.549 466.281 290.73Z" fill="#766FCE"/>
<path d="M466.036 298.079C466.036 299.284 465.915 300.609 465.915 301.935C456.879 303.139 447.481 303.501 438.204 303.501C408.203 303.501 380.13 298.802 374.227 297.838C374.347 296.633 374.588 295.308 374.708 294.103C381.576 295.187 427.842 303.019 466.036 298.079Z" fill="#766FCE"/>
<path d="M420.613 232.054C430.613 232.054 439.89 221.451 440.252 220.969C440.492 220.728 440.492 220.246 440.131 220.005C439.89 219.764 439.408 219.764 439.167 220.126C439.047 220.246 429.408 231.451 419.649 230.728C419.287 230.728 418.926 230.969 418.926 231.331C418.926 231.692 419.167 232.054 419.528 232.054C420.01 232.054 420.251 232.054 420.613 232.054Z" fill="#5D599C"/>
<path d="M429.293 351.936C429.654 351.936 429.895 351.695 430.015 351.333C430.015 350.972 429.775 350.61 429.413 350.49C403.509 347.478 392.786 302.658 392.665 302.176C392.545 301.814 392.183 301.573 391.822 301.694C391.46 301.814 391.219 302.176 391.34 302.537C391.701 304.465 402.304 348.803 429.293 351.936Z" fill="#5D599C"/>
<path d="M418.926 338.441C419.167 338.441 419.408 338.321 419.529 338.08C419.77 337.719 419.649 337.357 419.288 337.116C405.553 328.682 403.504 316.152 403.504 316.031C403.504 315.67 403.143 315.429 402.661 315.429C402.3 315.429 402.059 315.79 402.059 316.272C402.179 316.754 404.227 329.526 418.565 338.441C418.685 338.321 418.806 338.441 418.926 338.441Z" fill="#5D599C"/>
<path d="M427.009 194.462C442.646 194.462 455.323 181.786 455.323 166.149C455.323 150.511 442.646 137.835 427.009 137.835C411.372 137.835 398.695 150.511 398.695 166.149C398.695 181.786 411.372 194.462 427.009 194.462Z" fill="#B74918"/>
<path d="M399.174 161.088C399.174 161.088 391.102 158.919 392.186 151.088C393.03 144.461 400.861 148.799 400.138 143.618C399.415 138.437 397.969 133.738 404.596 132.413C410.5 131.329 410.62 135.304 418.211 129.521C427.368 122.654 434.356 138.558 442.428 139.04C454.356 139.762 455.922 146.51 457.127 151.931C458.332 157.353 453.633 161.209 453.633 161.209H399.174V161.088Z" fill="#B74918"/>
<path d="M403.392 174.101C403.392 174.101 398.934 168.076 395.56 173.016C392.187 177.956 396.886 192.655 405.079 189.041L403.392 174.101Z" fill="#F4C38B"/>
<path d="M436.041 201.451V216.029C436.041 216.029 430.017 222.415 424.234 222.897C418.33 223.379 414.836 216.391 414.836 216.391V202.414L436.041 201.451Z" fill="#F7D5A5"/>
<path d="M436.041 201.451V207.957C432.065 212.294 425.077 213.378 414.715 211.933V202.535L436.041 201.451Z" fill="#F4C38B"/>
<path d="M451.345 164.1C451.104 169.763 450.502 176.872 449.417 182.534C449.176 183.98 448.815 185.306 448.453 186.51C445.441 197.234 437.73 215.668 416.284 207.957C406.766 204.583 402.428 193.98 400.501 183.257C399.175 176.028 398.934 168.558 399.055 163.377C399.175 157.956 402.067 153.136 406.766 150.486C419.417 143.256 432.79 146.028 441.586 149.401C447.73 151.57 451.706 157.594 451.345 164.1Z" fill="#F7D5A5"/>
<path d="M402.666 178.679C402.184 175.787 401.582 172.173 401.943 170.245C402.666 166.871 405.438 164.944 404.474 161.691C403.51 158.438 407.004 154.943 409.413 154.462C411.944 153.859 417.727 155.184 423.51 152.413C429.052 149.763 438.571 151.69 440.137 155.184C442.065 159.401 439.414 159.883 444.595 164.462C446.643 166.269 444.234 171.088 443.872 174.221C443.752 175.667 443.752 176.39 443.752 177.836V178.558H449.896C450.619 173.739 450.981 168.438 451.222 163.98C451.583 157.474 447.607 151.449 441.462 149.16C432.667 145.787 419.293 143.136 406.642 150.245C401.943 152.895 399.052 157.835 398.931 163.136C398.811 167.353 398.931 172.775 399.654 178.558H402.666V178.679Z" fill="#B74918"/>
<path d="M447.371 181.33C447.371 179.763 447.492 178.077 447.733 176.51C448.094 174.341 448.696 172.414 450.986 171.45C452.793 170.727 454.721 170.727 456.046 172.775C459.42 177.715 455.685 193.137 447.492 189.523L447.371 181.33Z" fill="#F4C38B"/>
<path d="M460.37 225.909C450.249 241.21 411.573 294.224 402.899 300.368C391.573 308.32 360.608 319.766 342.777 331.574C336.753 335.55 350.97 346.996 350.97 346.996C350.97 346.996 394.344 334.827 413.863 322.296C419.405 318.802 442.297 295.79 456.996 275.428C462.056 268.44 470.129 258.681 471.334 248.439C472.659 236.632 468.924 230.246 460.37 225.909Z" fill="#706BBA"/>
<path d="M383.744 363.864H263.259C261.693 363.864 260.488 362.659 260.488 361.093V351.454C260.488 349.887 261.693 348.683 263.259 348.683H383.744C385.31 348.683 386.515 349.887 386.515 351.454V361.093C386.515 362.538 385.31 363.864 383.744 363.864Z" fill="#1A0B42"/>
<path d="M260.489 363.863L236.753 275.187C235.428 270.247 239.163 265.307 244.344 265.307H296.514C300.008 265.307 303.14 267.596 304.104 271.09L330.249 363.984H260.489V363.863Z" fill="#403657"/>
<path d="M304.106 270.97L330.01 363.02H335.914L310.01 270.97C309.046 267.597 305.913 265.187 302.419 265.187H296.516C300.01 265.187 303.142 267.597 304.106 270.97Z" fill="#1A0B42"/>
</g>
<defs>
<clipPath id="clip0">
<rect y="0.723145" width="557" height="372.177" fill="white"/>
</clipPath>
</defs>
</svg>
