<svg width="680" height="565" viewBox="0 0 680 565" fill="none" xmlns="http://www.w3.org/2000/svg">
<path d="M536.655 235.667C534.538 180.478 546.184 124.893 569.742 74.9985" stroke="#ACD29A" stroke-miterlimit="10"/>
<path d="M561.8 123.172C562.858 122.246 565.638 120.393 568.417 119.202C588.931 110.07 591.313 124.364 581.916 99.3501C579.799 93.6593 577.284 84.6597 576.622 78.3071C567.623 98.8208 544.992 119.599 539.301 174.92C544.992 140.113 589.328 140.642 588.136 119.467C580.328 118.54 567.888 118.937 561.8 123.172Z" fill="#ACD29A"/>
<path d="M538.768 180.611C538.635 182.463 538.503 184.449 538.238 187.625C538.503 185.243 538.635 182.86 538.768 180.611Z" fill="#1C887B"/>
<path d="M565.767 53.0291C570.532 49.7204 578.075 49.191 584.031 49.0587C584.825 38.2063 582.443 25.8982 579.663 20.2073C565.899 56.7348 531.754 48.9264 536.519 130.054C541.151 209.462 534.93 180.611 545.518 142.892C558.885 94.1887 578.208 94.321 583.766 52.235C577.281 50.9115 569.87 51.4409 565.767 53.0291Z" fill="#88B374"/>
<path d="M523.943 249.828C535.854 179.949 523.678 106.497 491.121 43.6326" stroke="#ACD29A" stroke-miterlimit="10"/>
<path d="M524.078 98.2914C524.475 95.5121 525.798 91.5418 526.592 89.1595C537.047 58.8523 550.944 80.16 503.961 44.5589C490.197 33.9712 500.388 32.9125 515.607 122.908C529.636 185.375 520.504 182.86 530.96 142.098C538.503 114.438 555.179 93.7916 541.547 74.6015C531.357 82.5422 525.269 93.1299 524.078 98.2914Z" fill="#ACD29A"/>
<path d="M527.652 179.287C527.917 181.669 527.785 181.934 528.182 188.287C528.049 185.243 528.049 182.199 527.652 179.287Z" fill="#1C887B"/>
<path d="M468.625 30.9273C467.831 25.2364 470.213 17.031 472.066 10.4137C460.155 2.34057 447.582 -0.571046 440.965 0.0906836C456.846 13.8547 459.626 28.2804 464.39 42.0444C481.595 94.9828 519.711 119.864 527.651 179.287C521.961 119.864 516.27 108.35 510.579 77.1161C505.153 52.235 495.756 28.148 475.375 12.7959C471.801 18.3544 468.89 26.0305 468.625 30.9273Z" fill="#88B374"/>
<path d="M471.936 156.656C467.172 151.759 458.569 148.583 451.555 147.524C439.511 145.804 443.085 150.701 442.952 135.878C442.555 123.967 440.305 112.85 431.571 104.247C413.439 86.6451 430.512 71.4253 425.483 59.6465C437.526 75.925 454.731 58.5877 474.848 84.2628C483.053 94.8505 476.304 87.4391 473.657 106.497C475.509 102.262 478.686 97.8945 481.597 94.3211C485.171 100.674 485.7 102.527 490.597 111.261C506.478 141.039 517.595 146.73 525.404 154.539C516.14 161.553 509.125 169.229 506.346 176.508C511.375 168.17 519.316 161.421 527.257 156.524C549.756 180.081 511.772 198.874 503.831 223.094C499.596 235.534 507.802 234.608 496.817 217.8C471.804 179.949 439.247 200.992 442.555 151.23C454.599 149.245 466.51 152.686 471.936 156.656Z" fill="#88B374"/>
<path d="M506.214 281.458C507.405 204.168 479.744 129.658 433.82 70.1018" stroke="#ACD29A" stroke-miterlimit="10"/>
<path d="M495.36 193.978C492.713 184.184 478.949 168.303 453.539 166.45" stroke="#ACD29A" stroke-miterlimit="10"/>
<path d="M491.389 180.346C487.287 166.714 493.11 151.23 503.565 142.23" stroke="#ACD29A" stroke-miterlimit="10"/>
<path d="M476.438 140.907C472.336 131.775 457.645 128.069 447.852 128.202" stroke="#ACD29A" stroke-miterlimit="10"/>
<path d="M479.477 147.921C475.375 138.657 481.198 127.54 489.006 120.79" stroke="#ACD29A" stroke-miterlimit="10"/>
<path d="M457.774 105.306C452.215 96.3064 439.378 91.4096 430.113 93.1301" stroke="#ACD29A" stroke-miterlimit="10"/>
<path d="M458.038 105.703C454.2 99.3502 458.171 89.8213 463.068 83.998" stroke="#ACD29A" stroke-miterlimit="10"/>
<path d="M134.188 386.67C116.652 400.052 28.5095 372.364 4.97417 383.901C-7.94718 390.361 7.28155 434.202 16.9726 467.889C26.6636 501.577 38.662 550.955 38.662 550.955H203.409C203.409 551.417 148.032 376.056 134.188 386.67Z" fill="#524C82"/>
<path d="M115.743 551.417L599.926 550.578C599.926 550.578 610.446 423.588 644.134 348.367C677.822 273.146 712.894 182.236 616.907 177.159C520.92 172.545 457.236 197.926 383.4 201.156C310.025 204.386 155.892 150.855 113.436 194.234C74.6716 233.921 151.738 432.356 137.432 441.124C137.432 441.124 87.1315 428.203 115.743 551.417Z" fill="#6E649F"/>
<path d="M137.428 441.124C137.428 441.124 130.045 439.278 122.661 443.893L328.48 525.113L609.519 478.965C615.98 437.432 627.055 386.67 643.668 348.829C659.358 313.756 675.049 275.454 678.279 244.074C658.435 302.22 608.135 368.672 507.533 376.979C389.395 386.67 387.087 251.457 388.933 201.156C387.087 201.156 385.241 201.156 383.857 201.618C376.473 202.079 368.167 201.618 359.399 201.156C356.63 251.457 338.632 398.207 220.033 375.133C88.5119 349.29 113.432 195.157 113.432 195.157C74.2061 234.382 151.734 432.356 137.428 441.124Z" fill="#645A95"/>
<path d="M641.362 354.366C641.362 354.366 540.299 422.203 365.86 419.434C169.271 416.204 122.201 355.751 122.201 355.751C133.276 400.514 143.429 437.432 137.43 441.124C137.43 441.124 128.662 438.816 120.816 445.277L126.354 472.966L613.673 454.968C620.134 421.28 628.902 384.362 641.362 354.366Z" fill="#524C82"/>
<path d="M80.6623 551.417C79.7393 548.187 48.8204 453.584 59.4343 440.663C70.0483 427.741 459.996 432.356 468.764 440.663C477.071 448.969 479.378 458.66 449.382 551.417H80.6623Z" fill="#645A95"/>
<path opacity="0.3" d="M269.86 448.969C473.371 448.969 468.295 440.663 468.295 440.663C459.988 432.356 69.5788 427.741 58.9648 440.663C59.4263 440.663 66.3485 448.969 269.86 448.969Z" fill="#6E649F"/>
<path d="M644.112 348.367C677.8 273.146 712.872 182.235 616.885 177.159C610.886 176.698 604.887 176.698 599.349 176.698C623.346 178.544 637.19 185.927 645.958 204.848C666.263 247.304 601.195 377.44 581.813 388.054C562.431 398.668 503.362 375.594 487.21 382.055C471.059 388.516 471.059 433.74 464.598 467.889C458.137 502.039 447.523 550.955 447.523 550.955L599.919 550.578C600.38 551.039 610.425 423.588 644.112 348.367Z" fill="#524C82"/>
<path opacity="0.1" d="M130.947 196.541C160.481 169.314 332.612 204.386 333.996 225.614C337.688 289.298 280.004 363.134 224.165 356.674C147.56 347.906 107.873 218.231 130.947 196.541Z" fill="#6E649F"/>
<path opacity="0.1" d="M407.387 221C412.925 204.848 583.21 177.159 609.053 191.004C634.434 204.848 548.138 394.515 453.997 351.597C402.311 324.37 402.311 237.151 407.387 221Z" fill="#6E649F"/>
<path d="M36.8161 425.895C32.2013 401.437 26.6636 373.287 4.97417 383.901C-7.94718 390.361 7.28155 434.202 16.9726 467.889C26.6636 501.577 38.662 550.955 38.662 550.955H66.812C56.6595 516.806 49.2759 490.04 36.8161 425.895Z" fill="#6E649F"/>
<path d="M468.766 425.895C473.38 401.437 478.918 373.287 500.607 383.901C513.529 390.361 498.3 434.202 488.609 467.889C478.918 502.039 466.92 550.955 466.92 550.955H438.77C449.383 516.806 456.306 490.04 468.766 425.895Z" fill="#6E649F"/>
<path d="M178.965 256.072C178.965 256.072 196.501 268.07 205.269 290.683C204.808 290.683 186.348 277.3 178.965 256.072Z" fill="#564F84"/>
<path d="M176.188 287.914C176.188 287.914 185.879 266.224 204.799 256.072C204.338 256.072 193.262 278.684 176.188 287.914Z" fill="#564F84"/>
<path d="M193.733 268.993C195.117 271.762 195.117 274.992 193.271 276.377C191.425 277.761 188.656 276.838 187.272 274.069C185.888 271.3 185.888 268.07 187.733 266.686C189.579 264.84 192.348 266.224 193.733 268.993Z" fill="#635C91"/>
<path d="M263.422 331.292C263.422 331.292 280.958 343.291 289.726 365.903C289.726 365.903 271.267 352.52 263.422 331.292Z" fill="#564F84"/>
<path d="M260.645 363.134C260.645 363.134 270.336 341.445 289.256 331.292C289.256 331.292 278.181 353.905 260.645 363.134Z" fill="#564F84"/>
<path d="M278.635 344.214C280.019 346.983 280.019 350.213 278.174 351.597C276.328 352.982 273.559 352.059 272.174 349.29C270.79 346.521 270.79 343.291 272.636 341.906C274.482 340.061 277.251 341.445 278.635 344.214Z" fill="#635C91"/>
<path d="M439.23 331.292C439.23 331.292 456.767 343.291 465.535 365.903C465.535 365.903 447.076 352.52 439.23 331.292Z" fill="#564F84"/>
<path d="M436.453 363.134C436.453 363.134 446.144 341.445 465.065 331.292C465.065 331.292 453.989 353.905 436.453 363.134Z" fill="#564F84"/>
<path d="M454.448 344.214C455.832 346.983 455.832 350.213 453.986 351.597C452.14 352.982 449.371 352.059 447.987 349.29C446.602 346.521 446.602 343.291 448.448 341.906C450.294 340.061 453.063 341.445 454.448 344.214Z" fill="#635C91"/>
<path d="M352.938 256.072C352.938 256.072 370.474 268.07 379.242 290.683C379.242 290.683 360.783 277.3 352.938 256.072Z" fill="#564F84"/>
<path d="M350.16 287.914C350.16 287.914 359.851 266.224 378.772 256.072C378.772 256.072 367.696 278.684 350.16 287.914Z" fill="#564F84"/>
<path d="M368.151 268.993C369.535 271.762 369.535 274.992 367.689 276.377C365.843 277.761 363.074 276.838 361.69 274.069C360.306 271.3 360.306 268.07 362.151 266.686C363.997 264.84 366.766 266.224 368.151 268.993Z" fill="#635C91"/>
<path d="M527.379 256.072C527.379 256.072 544.915 268.07 553.683 290.683C553.222 290.683 534.763 277.3 527.379 256.072Z" fill="#564F84"/>
<path d="M524.602 287.914C524.602 287.914 534.293 266.224 553.213 256.072C553.213 256.072 541.676 278.684 524.602 287.914Z" fill="#564F84"/>
<path d="M542.147 268.993C543.531 271.762 543.531 274.992 541.685 276.377C539.839 277.761 537.07 276.838 535.686 274.069C534.302 271.3 534.302 268.07 536.148 266.686C537.993 264.84 540.762 266.224 542.147 268.993Z" fill="#635C91"/>
<path d="M236.151 422.666C236.151 422.666 223.691 500.194 214 550.033H228.306C228.306 550.033 263.839 480.35 267.07 458.661C269.839 436.971 267.07 413.436 267.07 413.436L236.151 422.666Z" fill="#524C82"/>
<path d="M349.229 216.385C349.229 216.385 341.846 203.464 346.922 197.003C346.922 197.003 342.307 191.465 345.076 185.928C347.845 180.39 352.46 180.39 352.46 180.39C351.537 169.776 367.227 170.237 368.15 174.391C370.919 161.931 402.299 167.469 400.915 183.159C400.915 183.159 411.067 180.851 409.683 191.927C409.221 191.927 362.612 221.923 349.229 216.385Z" fill="#B74918"/>
<path d="M279.996 424.511C279.996 424.511 288.764 500.194 291.994 550.494H306.3C306.3 550.494 319.222 476.658 318.299 455.43C317.837 433.741 309.069 414.359 309.069 414.359L279.996 424.511Z" fill="#524C82"/>
<path d="M429.055 215.001C429.055 215.001 430.901 200.696 429.516 196.542C405.058 199.773 380.6 200.696 356.142 198.388C357.064 200.696 359.372 202.541 361.218 203.464C361.679 207.156 362.141 210.848 362.602 214.54C346.912 216.847 330.76 219.616 315.993 226.077C307.686 229.307 298.457 234.383 300.303 244.536C302.61 255.611 309.994 266.225 316.455 274.993C323.838 285.607 332.145 295.76 339.528 306.374C340.913 318.834 342.759 331.293 341.836 343.753C341.374 353.906 339.528 365.904 331.222 373.288C329.376 375.134 326.146 373.288 323.838 374.672C320.608 376.518 311.84 383.44 311.84 383.44C293.842 386.209 274.922 388.978 257.386 394.977C245.849 398.669 243.08 413.436 242.618 424.05C242.157 425.435 242.157 427.742 241.695 430.972C290.612 430.972 339.99 432.357 388.906 432.357C395.367 426.819 399.52 419.435 402.289 413.436C403.212 411.59 403.674 409.283 404.597 407.437C404.135 406.976 404.597 407.437 404.597 407.437C417.518 382.979 427.67 348.829 433.67 321.141C440.592 309.604 451.667 300.374 461.82 291.606C472.895 281.915 484.432 272.224 494.123 260.687C499.199 254.688 506.121 245.459 499.199 238.075C491.816 229.769 478.433 226.538 468.28 223.769C454.897 219.616 441.976 216.847 429.055 215.001ZM376.908 268.994C376.446 270.378 375.985 271.301 375.524 271.763C359.833 271.301 345.989 262.533 335.375 250.996C333.991 249.612 330.299 246.382 331.222 244.536C332.145 242.228 340.451 239.921 342.759 238.998C349.219 236.229 355.68 233.46 362.602 230.692C362.141 236.691 362.602 241.767 364.448 247.305C365.833 251.458 367.678 258.38 370.909 262.072C372.293 264.379 375.524 264.841 377.831 264.841C377.369 267.148 377.369 268.071 376.908 268.994C376.446 270.378 376.908 268.994 376.908 268.994ZM403.212 406.976C403.674 406.976 403.674 406.976 403.212 406.976V406.976ZM403.674 406.976C403.674 406.976 404.135 407.437 403.674 406.976V406.976ZM459.512 249.612C458.589 250.996 456.743 252.381 455.359 253.304C451.206 256.534 446.129 259.765 441.515 262.533C430.901 268.533 420.748 272.224 408.75 272.686C407.365 265.764 407.365 258.38 408.288 251.458C416.595 249.612 421.21 237.614 423.979 230.692C427.67 232.076 460.897 246.843 459.512 249.612Z" fill="#524C82"/>
<path d="M401.37 272.224C418.906 269.455 444.287 251.919 444.287 249.15C444.749 246.381 395.832 224.23 395.832 224.23V213.616C439.211 215.462 488.127 232.537 486.743 245.458C484.436 265.763 429.52 299.913 417.521 322.986C417.521 322.525 383.834 274.993 401.37 272.224Z" fill="#E5C2B8"/>
<path d="M395.832 224.23C395.832 224.23 415.214 232.998 429.52 239.92C432.75 229.768 438.749 223.307 441.98 220.077C427.674 216.385 411.061 213.616 395.832 213.155V224.23Z" fill="#CEA79F"/>
<path d="M446.586 244.536C435.972 240.382 421.205 228.845 403.207 226.538V227.923C417.051 234.383 444.74 247.305 444.278 249.612C443.817 251.919 422.589 267.148 405.514 271.763C405.514 271.763 420.743 272.686 447.97 253.304C447.97 253.304 466.429 254.227 472.89 248.227C473.351 246.382 464.122 250.996 446.586 244.536Z" fill="#CEA79F"/>
<path d="M353.381 271.301C335.845 268.532 315.54 247.304 316.463 244.997C316.924 244.074 323.846 240.843 333.076 237.152C348.305 230.691 369.071 222.846 369.071 222.846V212.232C333.076 215.924 285.544 225.615 285.082 240.382C284.621 260.687 322.923 300.374 330.768 316.987C330.768 317.449 370.917 274.07 353.381 271.301Z" fill="#F4E2D4"/>
<path d="M212.613 548.648C212.613 548.648 207.998 553.725 199.691 556.955C191.385 560.185 186.309 559.262 186.309 561.57C186.309 563.877 217.228 564.8 217.228 562.493C217.689 560.185 216.305 554.186 217.228 548.648C218.612 542.649 212.613 548.648 212.613 548.648Z" fill="#F7D5A5"/>
<path d="M217.233 556.494C215.848 555.571 211.234 552.802 205.234 554.648C209.849 551.879 212.618 548.648 212.618 548.648C212.618 548.648 218.617 543.111 217.694 548.648C216.771 551.879 216.771 554.186 217.233 556.494Z" fill="#F4C38B"/>
<path d="M289.246 545.419C289.246 545.419 289.246 551.879 280.477 555.571C271.709 559.263 270.786 558.34 271.248 561.109C271.709 563.878 295.706 565.262 295.706 562.493C295.706 559.724 293.86 552.341 294.322 545.419C295.245 538.958 289.246 545.419 289.246 545.419Z" fill="#F7D5A5"/>
<path d="M282.324 554.648C289.246 550.956 289.246 545.419 289.246 545.419C289.246 545.419 290.631 544.034 291.554 543.111L293.861 542.65C294.323 543.111 294.323 544.034 294.323 545.419C293.861 549.572 294.323 552.802 294.784 555.571C292.938 554.187 288.323 552.341 282.324 554.648Z" fill="#F4C38B"/>
<path d="M316 244.997C316.461 244.074 323.384 240.843 332.613 237.152C347.842 230.691 368.608 222.846 368.608 222.846V219.154C312.77 236.229 309.539 240.382 309.078 243.612C308.616 246.381 329.383 270.378 351.072 271.301C334.459 267.148 315.539 247.304 316 244.997Z" fill="#E5C2B8"/>
<path d="M297.065 383.44C326.138 374.211 343.213 383.44 343.674 423.589L227.844 424.05C227.844 424.05 228.767 403.745 237.996 396.823C242.611 393.593 276.299 387.132 297.065 383.44Z" fill="#20A2B7"/>
<path d="M308.156 403.284C308.156 403.284 296.157 407.899 278.16 410.668C260.162 413.436 252.317 413.898 250.471 416.667C248.625 419.897 250.933 449.893 248.164 463.276C245.856 474.813 220.937 532.959 214.938 549.572H220.937C220.937 549.572 256.47 480.351 259.239 458.661C260.624 444.355 261.547 432.357 261.547 432.357H299.849C306.771 430.511 308.156 403.284 308.156 403.284Z" fill="#0B8C9E"/>
<path d="M297.062 383.44C297.062 383.44 322.905 383.901 325.213 406.514L371.822 392.208C371.36 392.208 327.981 373.287 297.062 383.44Z" fill="#0B8C9E"/>
<path d="M391.685 382.517C391.685 382.517 390.301 411.59 381.071 424.05H272.163C272.163 424.05 267.548 404.668 276.316 396.823C286.469 388.055 358.459 383.44 391.685 382.517Z" fill="#2BAEC7"/>
<path d="M297.062 383.44C297.062 383.44 312.291 380.21 344.133 388.055C369.976 394.515 389.819 407.437 389.819 407.437C413.816 361.289 428.583 280.992 419.354 274.531C417.969 273.608 396.741 273.608 373.668 272.686C351.978 271.763 327.981 269.455 327.058 270.378C322.444 275.454 323.828 298.067 325.674 315.603C328.443 336.369 328.904 362.212 316.445 373.749C314.137 375.595 311.83 373.287 309.061 375.133C305.831 376.979 297.062 383.44 297.062 383.44Z" fill="#F4E2D4"/>
<path d="M368.145 396.361C381.066 401.899 389.372 407.436 389.372 407.436C413.369 361.289 429.982 280.53 419.368 272.685C418.445 272.224 407.37 274.069 393.064 273.608C394.449 294.374 396.756 356.212 368.145 396.361Z" fill="#E5C2B8"/>
<path d="M310.924 454.969C310.462 443.432 310.001 440.202 307.693 432.818H373.684C382.914 425.434 387.067 413.897 388.913 407.898L362.147 395.9C362.147 395.9 359.379 408.36 354.302 411.129C349.226 413.897 293.387 413.897 291.08 416.205C288.773 418.512 298.464 440.663 299.848 456.815C301.694 472.966 291.542 550.033 291.542 550.033H297.541C298.925 549.572 311.385 476.197 310.924 454.969Z" fill="#1395AA"/>
<path d="M227.846 422.666C227.846 422.666 215.386 500.194 206.156 549.572H220.462C220.462 549.572 255.996 480.35 258.765 458.661C261.533 436.971 258.765 413.436 258.765 413.436L227.846 422.666Z" fill="#20A2B7"/>
<path d="M272.152 424.511C272.152 424.511 280.92 500.193 284.151 549.571H298.457C298.457 549.571 311.378 476.658 310.455 454.968C309.993 433.279 301.225 413.897 301.225 413.897L272.152 424.511Z" fill="#2BAEC7"/>
<path d="M310.917 454.969C310.456 435.587 303.534 418.051 302.149 414.359C301.226 414.359 300.303 414.359 299.38 414.359L291.535 417.128C291.535 422.665 299.38 442.047 300.765 455.892C302.611 472.043 292.458 549.11 292.458 549.11H298.457C298.457 549.11 299.38 544.495 300.303 537.573C304.456 515.884 311.379 471.121 310.917 454.969Z" fill="#1395AA"/>
<path d="M259.239 413.436C256.009 413.436 252.779 413.898 250.933 415.743C249.087 418.974 250.933 449.431 248.164 462.814C245.856 474.351 220.937 532.497 214.938 549.11H220.937C232.012 529.267 256.932 477.12 259.239 458.199C261.085 445.278 262.008 424.511 259.239 413.436Z" fill="#0B8C9E"/>
<path d="M354.301 271.763C354.301 271.763 357.07 279.608 374.144 281.454C391.219 283.3 401.371 272.224 401.371 272.224C401.371 272.224 371.375 272.686 354.301 271.763Z" fill="#F4BE84"/>
<path d="M409.215 191.927C425.367 191.927 406.446 252.381 391.217 250.996C376.911 250.073 375.527 179.929 409.215 191.927Z" fill="#B74918"/>
<path d="M390.283 203.003C390.283 203.003 396.282 211.31 404.588 210.387C414.741 209.002 415.664 203.003 415.664 202.542C416.125 219.616 402.742 252.381 391.667 251.458C386.591 250.997 383.36 242.69 382.438 232.537L390.283 203.003Z" fill="#AA4017"/>
<path d="M396.75 232.075C396.75 232.075 389.828 257.918 394.904 275.915L359.832 272.685C359.832 272.685 363.985 269.455 363.985 253.303C364.908 230.691 396.75 232.075 396.75 232.075Z" fill="#F4BE84"/>
<path d="M401.366 272.224C401.366 272.224 398.597 272.224 393.983 272.224C390.752 254.687 396.751 232.075 396.751 232.075C396.751 232.075 364.448 230.691 364.448 253.303C364.448 261.61 363.064 266.224 362.141 268.993C365.832 271.762 373.678 277.761 384.291 280.992C395.367 279.146 401.366 272.224 401.366 272.224Z" fill="#F4C38B"/>
<path d="M391.681 238.536C388.45 255.15 387.527 254.688 372.299 264.379C369.068 266.225 359.377 265.764 357.07 263.918C354.763 262.072 354.763 259.764 351.994 253.765C348.763 246.843 347.379 240.382 347.379 236.691C347.379 231.614 348.302 228.384 348.302 225.154C348.763 218.231 347.84 212.232 348.763 204.849C349.686 197.465 358.916 193.312 370.453 194.696C396.295 196.542 395.372 207.156 391.681 238.536Z" fill="#F7D5A5"/>
<path d="M369.058 263.456C389.825 252.381 391.209 207.156 383.364 200.234C399.516 204.849 395.362 220.078 391.209 241.767C388.902 253.765 386.594 256.996 371.365 264.841C368.135 266.687 358.906 265.302 357.06 263.456C356.598 262.995 356.598 262.995 356.137 262.533C359.367 263.918 366.289 264.841 369.058 263.456Z" fill="#F1BC72"/>
<path d="M394.905 201.157C394.905 201.157 391.213 206.233 379.676 200.234C354.756 187.312 349.219 201.157 349.219 201.157C349.219 201.157 357.064 170.238 394.905 201.157Z" fill="#B74918"/>
<path d="M395.83 226.538L392.138 234.383H389.369C389.369 234.383 394.907 204.387 387.523 196.542C387.523 197.004 401.829 194.696 395.83 226.538Z" fill="#B74918"/>
<mask id="mask0" mask-type="alpha" maskUnits="userSpaceOnUse" x="236" y="391" width="120" height="42">
<path d="M256 391.285C246.77 393.592 239.848 395.438 238.002 396.823C237.079 397.284 236.618 398.207 236.156 398.669C236.156 398.669 242.617 394.977 254.615 399.591C269.844 405.591 271.69 419.435 271.69 419.435C271.69 419.435 266.614 397.746 286.919 397.746C315.069 397.746 322.452 432.356 322.452 432.356H345.988C345.988 432.356 360.293 408.821 353.833 394.977L256 391.285Z" fill="url(#paint0_linear)"/>
</mask>
<g mask="url(#mask0)">
<path opacity="0.4" d="M256 391.285C246.77 393.592 239.848 395.438 238.002 396.823C237.079 397.284 236.618 398.207 236.156 398.669C236.156 398.669 242.617 394.977 254.615 399.591C269.844 405.591 271.69 419.435 271.69 419.435C271.69 419.435 266.614 397.746 286.919 397.746C315.069 397.746 322.452 432.356 322.452 432.356H345.988C345.988 432.356 360.293 408.821 353.833 394.977L256 391.285Z" fill="#0B8C9E"/>
<path d="M318.305 387.131C318.305 387.131 362.145 388.516 387.526 413.897L389.834 407.898C389.834 407.898 363.991 391.285 331.688 386.208L318.305 387.131Z" fill="#0B8C9E"/>
</g>
<g clip-path="url(#clip0)">
<path d="M218.164 388.978H313.228L293.384 315.141H198.32L218.164 388.978Z" fill="#A9B0D3"/>
<path d="M218.636 390.009L218.621 395.547L358.449 395.931L358.464 390.393L218.636 390.009Z" fill="#CBDCF6"/>
<path d="M218.167 388.516L310.924 388.978L291.542 316.526H198.785L218.167 388.516Z" fill="#CBDCF6"/>
<path d="M313.358 390.061L313.344 395.599L358.568 395.716L358.583 390.179L313.358 390.061Z" fill="#A9B0D3"/>
<path d="M284.116 388.936L284.109 391.243L301.645 391.293L301.652 388.985L284.116 388.936Z" fill="#A9B0D3"/>
<path d="M224.428 388.901L224.422 391.208L239.189 391.25L239.196 388.942L224.428 388.901Z" fill="#A9B0D3"/>
</g>
<defs>
<linearGradient id="paint0_linear" x1="295.661" y1="392.676" x2="295.661" y2="428.246" gradientUnits="userSpaceOnUse">
<stop stop-color="white"/>
<stop offset="1"/>
</linearGradient>
<clipPath id="clip0">
<rect x="198.32" y="315.141" width="160.132" height="80.7584" fill="white"/>
</clipPath>
</defs>
</svg>
