<svg width="545" height="498" viewBox="0 0 545 498" fill="none" xmlns="http://www.w3.org/2000/svg">
<path d="M478.759 193.019C482.118 189.328 486.772 180.609 491.623 179.446C494.206 178.771 504.638 179.847 506.43 184.329C506.989 185.277 505.969 187.158 506.019 189.047C506.011 190.117 507.323 191.259 507.251 192.58C507.365 194.218 505.908 195.719 506.022 197.356C506.071 199.245 507.19 201.141 507.182 202.211C507.345 205.737 502.574 204.509 495.966 205.221C489.357 205.932 481.581 202.858 477.465 198.047L478.759 193.019Z" fill="#F7D5A5"/>
<path d="M473.058 190.212C475.763 190.104 478.281 189.681 480.987 189.573C481.781 192.725 479.62 195.921 480.35 199.325C477.387 200.439 473.677 200.288 470.656 200.583C470.801 197.94 471.197 195.361 471.026 192.905L473.058 190.212Z" fill="white"/>
<path d="M145.797 362.2C140.699 371.608 138.59 385.002 140.084 395.839C140.742 400.565 140.974 412.149 136.043 415.704C128.707 421.32 128.248 406.461 127.841 401.8C127.328 394.432 126.701 385.426 126.001 377.742C124.807 368.858 123.027 371.616 121.859 367.831C120.691 364.047 120.235 357.497 119.901 351.515C125.569 350.294 131.44 347.248 136.907 347.852C142.941 348.333 141.735 349.898 145.414 354.329L145.797 362.2Z" fill="#2B2B33"/>
<path d="M476.729 283.085C484.388 276.212 490.377 265.425 492.528 254.99C493.376 250.652 496.976 239.786 502.459 238.249C510.97 235.348 506.593 249.23 505.494 253.503C503.431 260.477 501.045 268.707 499.42 276.061C497.536 284.42 500.127 282.675 499.975 286.388C499.758 290.352 498.205 296.385 496.279 301.786C491.071 300.177 485.094 300.515 480.266 298.468C474.75 295.976 475.754 296.235 473.906 290.935L476.729 283.085Z" fill="#2B2B33"/>
<path d="M152.213 362.243C149.192 362.538 143.847 362.502 141.458 362.423C137.497 362.208 137.007 351.629 139.792 349.13C144.521 347.399 148.661 349.001 154.702 348.412L152.213 362.243Z" fill="white"/>
<path d="M471.474 279.588C474.487 280.363 477.63 280.636 479.631 282.223C480.757 283.049 479.74 293.24 476.833 295.172C471.423 295.387 466.531 293.592 463.088 291.366L471.474 279.588Z" fill="white"/>
<path d="M272.194 259.118C265.467 267.571 263.894 285.123 261.79 289.138C251.593 307.954 242.118 331.245 236.806 335.238C231.244 339.166 216.444 333.213 185.752 342.198C164.956 348.102 152.135 346.947 151.503 347.32C144.621 351.177 144.867 360.621 149.501 363.421C161.934 366.085 201.239 366.285 206.398 366.005C222.248 365.796 236.827 367.404 248.941 361.946C260.172 356.796 269.376 344.961 279.764 334.77C293.826 320.7 307.932 291.902 305.974 275.585C304.787 265.631 294.542 264.87 284.254 261.15L272.194 259.118Z" fill="#39317B"/>
<path d="M408.608 179.52C427.764 183.111 455.465 187.828 474.579 188.46C474.274 195.885 477.013 199.807 473.669 201.358C469.061 203.656 418.677 204.893 403.805 200.261C388.934 195.63 333.304 182.92 327.042 179.164C324.223 177.634 321.686 171.889 323.068 163.4C325.976 143.78 380.166 164.16 408.608 179.52Z" fill="#766FCE"/>
<path d="M326.499 149.007C341.104 155.714 352.06 171.398 347.821 183.708C342.87 198.782 339.49 213.993 334.167 228.436C332.5 232.831 327.873 246.649 323.874 251.784C315.754 261.486 305.387 260.158 296.782 249.903C285.179 236.732 294.327 206.389 298.338 190.805C302.277 176.542 308.97 164.06 315.001 156.232L326.499 149.007Z" fill="#E0E5F9"/>
<path d="M375.422 106.656C383.941 102.685 387.236 99.2445 383.085 90.404C379.924 83.9621 375.127 77.6352 369.246 73.4413C360.983 68.0984 347.868 63.9191 338.053 64.6088C329.435 64.803 332.677 68.8534 337.424 73.2915C331.075 72.9972 318.01 70.7067 312.447 74.6352C305.176 80.0001 315.673 80.8257 316.704 86.1832C318.164 92.9914 304.377 86.2266 301.082 89.6668C297.722 93.3582 306.351 100.403 309.664 103.132C303.866 104.856 291.71 107.355 293.73 115.112C295.384 121.166 307.502 124.016 312.394 125.812C320.049 128.318 330.838 132.167 338.847 129.136L375.422 106.656Z" fill="#3C323A"/>
<path d="M343.832 161.777C337.82 175.774 352.704 169.956 349.535 164.585C345.742 158.516 343.832 161.777 343.832 161.777Z" fill="#911368"/>
<path d="M328.597 120.065C326.866 124.712 324.883 129.294 322.901 133.876C321.946 135.506 319.849 138.45 320.401 140.468C321.082 141.984 327.199 148.382 328.827 149.338C334.02 153.086 341.622 145.394 345.484 141.832C351.5 136.144 350.891 133.307 346.216 127.548C342.602 122.866 341.118 119.268 334.582 118.657L328.597 120.065Z" fill="#F4C38B"/>
<path d="M331.795 121.156C333.677 130.485 346.021 154.299 363.139 143.964C372.677 138.111 367.15 128.38 369.996 117.32C372.466 115.008 377.782 101.635 372.733 95.2437C369.184 90.31 366.052 97.2763 353.722 89.0106C348.902 85.8939 339.402 86.3969 336.271 93.3632C334.798 97.0044 335.904 109.35 332.625 110.65C332.625 110.65 330.856 102.958 326.58 102.929C322.555 102.965 320.393 106.161 319.99 109.81C318.433 125.222 331.795 121.156 331.795 121.156Z" fill="#F7D5A5"/>
<path d="M372.362 94.612C369.056 90.813 365.365 96.8313 353.724 89.0109C348.904 85.8942 339.404 86.3972 336.272 93.3635C336.078 94.1176 335.819 95.123 335.496 96.3798C338.863 91.6183 343.722 89.3846 350.064 90.7489C355.466 91.6034 365.73 98.5334 371.73 94.9855C372.297 94.8634 372.362 94.612 372.362 94.612Z" fill="#DDBF94"/>
<path d="M272.303 261.827C268.692 265.453 264.438 279.903 271.932 287.192C277.985 293.842 290.878 293.677 298.678 293.54C315.475 292.771 329.274 289.086 344.474 283.082C359.673 277.078 372.986 271.124 380.405 271.425C388.075 271.791 410.837 281.134 423.529 282.792C436.723 284.58 450.51 291.345 468.97 295.56C475.301 289.685 477.63 280.636 473.692 277.211C467.689 272.449 412.551 252.63 394.042 246.526C378.482 241.449 351.804 243.159 326.568 245.508C312.784 247.053 299.56 249.545 286.019 252.224L272.303 261.827Z" fill="#5D599C"/>
<path d="M343.384 162.465C338.682 151.606 326.885 139.19 317.903 137.682C314.825 137.158 311.804 137.452 309.35 137.624C277.19 140.872 270.87 197.671 260.097 235.368C257.136 244.791 245.559 254.407 245.36 264.541C259.102 260.037 282.203 265.983 296.433 263.749C305.373 262.298 311.902 263.978 316.996 263.95C318.267 262.133 316.578 252.05 318.097 241.988C322.638 213.944 355.568 191.062 343.384 162.465Z" fill="#766FCE"/>
<path d="M345.308 166.444C327.026 181.303 272.013 214.046 247.515 218.729C239.32 221.444 228.073 228.734 224.292 229.905C229.842 236.426 246.521 243.399 251.12 242.17C264.102 238.543 277.163 232.525 287.908 225.106C305.163 213.198 318.464 200.005 332.907 185.497C338.356 179.931 343.416 175.874 347.115 168.785L345.308 166.444Z" fill="#911368"/>
<path d="M317.001 131.821C321.334 132.669 345.423 158.702 344.608 167.068C337.51 157.201 315.684 140.059 309.35 137.624C309.35 137.624 313.486 130.917 317.001 131.821Z" fill="#E0E5F9"/>
<path d="M140.853 192.081L117.801 205.713L136.814 237.943L160.182 224.125L140.853 192.081ZM137.461 235.43L120.247 206.61L140.458 194.659L157.607 223.73L137.461 235.43Z" fill="#AA8268"/>
<path d="M111.313 165.806L45.8867 204.494L103.353 301.911L168.779 263.224L111.313 165.806Z" fill="#69194F"/>
<path opacity="0.1" d="M122.735 263.533L88.5589 205.959L95.4474 175.034L108.33 167.63L165.742 264.954L152.163 272.983L122.735 263.533Z" fill="#2B2B33"/>
<path d="M125.891 261.666L91.7152 204.091L98.6036 173.167L111.486 165.762L168.898 263.086L155.319 271.116L125.891 261.666Z" fill="#911368"/>
<path d="M109.217 222.173L98.7227 228.38L107.819 243.796L118.313 237.588L109.217 222.173Z" fill="#7B8EE1"/>
<path d="M168.691 195.226C167.899 200.382 169.71 211.033 166.22 215.227C164.318 217.417 154.78 223.271 150.397 220.534C149.206 219.96 148.97 217.755 147.536 216.046C146.726 215.033 144.904 214.832 144.093 213.82C143.097 212.491 143.112 210.351 142.115 209.023C140.932 207.378 138.737 206.545 138.178 205.597C135.747 202.559 140.541 200.577 145.795 195.765C151.301 191.018 159.682 188.619 166.527 190.113L168.691 195.226Z" fill="#F7D5A5"/>
<path d="M174.987 194.702C173.214 196.389 171.125 198.264 168.85 199.822C166.411 197.855 166.313 194.077 163.688 191.793C165.153 189.222 168.375 187.104 170.78 185.042C172.085 187.254 173.389 189.466 174.824 191.175L174.987 194.702Z" fill="white"/>
<path d="M230.252 144.335C225.394 146.569 176.031 171.922 166.69 185.33C163.768 189.402 172.202 197.201 176.235 196.095C191.549 191.728 233.352 159.338 240.771 159.639C251.081 160.149 259.01 159.509 279.299 162.855C296.324 165.361 316.417 161.152 313.26 145.331C310.039 129.761 261.599 131.767 230.252 144.335Z" fill="#6C67B6"/>
<g opacity="0.2">
<path opacity="0.2" d="M332.909 185.498C318.466 200.005 305.165 213.198 287.91 225.106C279.06 231.404 268.582 236.748 257.804 240.138C256.274 242.96 254.242 245.654 252.461 248.411C258.861 250.594 270.827 239.47 274.932 237.042C286.616 230.133 296.421 222.204 306.485 213.27C316.864 204.149 328.134 193.649 336.52 181.871C335.379 183.185 334.302 184.248 332.909 185.498Z" fill="#2B2B33"/>
</g>
<g opacity="0.2">
<path opacity="0.2" d="M307.877 158.954C301.368 163.443 290.669 164.442 280.804 163.243C279.461 166.381 278.117 169.52 276.961 172.974C278.03 172.981 279.163 172.737 280.297 172.493C288.858 171.48 301.28 166.905 307.877 158.954Z" fill="#2B2B33"/>
</g>
<g opacity="0.2">
<path opacity="0.2" d="M271.927 287.192C265.308 280.664 267.846 268.721 271.027 263.643C270.525 263.514 270.209 263.7 269.707 263.571C265.24 272.606 263.698 285.878 262.039 289.203C255.92 300.493 250.232 313.233 245.449 322.454C264.053 324.027 281.828 318.417 297.302 309.267C300.046 303.809 302.222 298.473 303.581 293.195C301.945 293.31 300.309 293.424 298.673 293.539C290.622 293.611 277.98 293.842 271.927 287.192Z" fill="#2B2B33"/>
</g>
<g opacity="0.2">
<path opacity="0.2" d="M296.371 264.001C289.131 265.086 280.019 264.081 270.778 263.579C269.887 264.957 269.054 267.155 268.472 269.417C268.723 269.482 268.723 269.482 268.974 269.547C280.224 270.566 310.489 268.439 311.064 267.247C311.387 265.99 310.577 264.978 310.334 263.843C306.689 263.441 301.975 263.032 296.371 264.001Z" fill="#2B2B33"/>
</g>
</svg>
