<svg width="723" height="274" viewBox="0 0 723 274" fill="none" xmlns="http://www.w3.org/2000/svg">
<path d="M70.6628 272.48C70.6628 272.48 -24.9506 184.471 74.9495 136.416C138.276 105.943 123.117 98.3691 143.556 56.2919C168.614 4.71275 293.105 -33.9765 345.13 45.1154C383.438 103.334 405.183 102.088 433.144 91.8852C465.197 80.183 493.022 54.9678 531.076 72.3945C585.751 97.4345 593.643 150.708 628.56 139.103C722.01 108.007 758.818 244.403 675.772 273.201L70.6628 272.48Z" fill="#F5F6FF"/>
<path d="M390.154 82.0842H355.72V249.503H390.154V82.0842Z" fill="#EFF1FF"/>
<path d="M397.89 82.0834H363.457V249.502H397.89V82.0834Z" fill="#E3E5F5"/>
<path d="M397.889 82.0366H363.471V91.7035H397.889V82.0366Z" fill="#EFF1FF"/>
<path d="M397.889 103.02H363.472V112.687H397.889V103.02Z" fill="#EFF1FF"/>
<path d="M397.889 124.004H363.472V133.671H397.889V124.004Z" fill="#EFF1FF"/>
<path d="M397.889 144.988H363.472V154.655H397.889V144.988Z" fill="#EFF1FF"/>
<path d="M397.889 165.972H363.472V175.639H397.889V165.972Z" fill="#EFF1FF"/>
<path d="M397.889 186.94H363.472V196.607H397.889V186.94Z" fill="#EFF1FF"/>
<path d="M397.889 207.924H363.472V217.59H397.889V207.924Z" fill="#EFF1FF"/>
<path d="M397.889 228.907H363.472V238.574H397.889V228.907Z" fill="#EFF1FF"/>
<path d="M445.199 105.776H410.766V249.503H445.199V105.776Z" fill="#EFF1FF"/>
<path d="M452.935 105.776H418.502V249.502H452.935V105.776Z" fill="#E3E5F5"/>
<path d="M452.921 105.729H418.504V114.041H452.921V105.729Z" fill="#EFF1FF"/>
<path d="M452.922 123.739H418.504V132.052H452.922V123.739Z" fill="#EFF1FF"/>
<path d="M452.922 141.766H418.504V150.078H452.922V141.766Z" fill="#EFF1FF"/>
<path d="M452.922 159.776H418.504V168.089H452.922V159.776Z" fill="#EFF1FF"/>
<path d="M452.922 177.787H418.504V186.099H452.922V177.787Z" fill="#EFF1FF"/>
<path d="M452.922 195.797H418.504V204.11H452.922V195.797Z" fill="#EFF1FF"/>
<path d="M452.922 213.808H418.504V222.12H452.922V213.808Z" fill="#EFF1FF"/>
<path d="M452.922 231.818H418.504V240.131H452.922V231.818Z" fill="#EFF1FF"/>
<path d="M337.09 265.378H351.505V244.363H337.09V265.378Z" fill="#E3E5F5"/>
<path d="M139.394 160.337V147.463H143.333V125.327H164.472V147.463H184.226V111.395H206.035V134.807H211.001V106.865H232.81V159.263H260.378V189.835H270.683V197.525H294.344V184.278H307.934V148.241H324.715V214.742H341.496V272.619H324.715H310.331H307.934H294.344H286.67H274.372H270.683H260.378H250.696H232.81H227.33H216.418H211.001H206.035H194.625H186.857H184.226H164.472H143.691H143.333H139.394H122.567V160.337H139.394Z" fill="#E3E5F5"/>
<path d="M324.713 148.615H307.776V156.928H324.713V148.615Z" fill="#EFF1FF"/>
<path d="M324.713 160.975H307.777V169.287H324.713V160.975Z" fill="#EFF1FF"/>
<path d="M324.713 173.335H307.777V181.647H324.713V173.335Z" fill="#EFF1FF"/>
<path d="M324.713 186.302H307.777V194.614H324.713V186.302Z" fill="#EFF1FF"/>
<path d="M324.713 198.864H307.777V207.177H324.713V198.864Z" fill="#EFF1FF"/>
<path d="M324.713 211.411H307.777V219.723H324.713V211.411Z" fill="#EFF1FF"/>
<path d="M324.713 224.549H307.777V232.861H324.713V224.549Z" fill="#EFF1FF"/>
<path d="M308.01 148.615H301.768V184.947H308.01V148.615Z" fill="#EFF1FF"/>
<path d="M294.342 184.948H281.78V198.319H294.342V184.948Z" fill="#EFF1FF"/>
<path d="M184.241 111.458H179.897V147.821H184.225L184.241 111.458Z" fill="#EFF1FF"/>
<path d="M210.999 106.865H208.337V135.041H210.999V106.865Z" fill="#EFF1FF"/>
<path d="M232.81 110.43H211.001V115.816H232.81V110.43Z" fill="#EFF1FF"/>
<path d="M232.81 120.548H211.001V125.935H232.81V120.548Z" fill="#EFF1FF"/>
<path d="M232.81 129.655H211.001V135.041H232.81V129.655Z" fill="#EFF1FF"/>
<path d="M206.049 129.655H184.24V135.041H206.049V129.655Z" fill="#EFF1FF"/>
<path d="M206.049 120.548H184.24V125.935H206.049V120.548Z" fill="#EFF1FF"/>
<path d="M206.049 111.458H184.24V116.844H206.049V111.458Z" fill="#EFF1FF"/>
<path d="M232.809 138.481H184.226V143.867H232.809V138.481Z" fill="#EFF1FF"/>
<path d="M232.809 147.307H184.226V152.693H232.809V147.307Z" fill="#EFF1FF"/>
<path d="M232.809 155.931H184.226V159.356H232.809V155.931Z" fill="#EFF1FF"/>
<path d="M255.862 165.022H252.173V170.237H255.862V165.022Z" fill="#EFF1FF"/>
<path d="M248.951 165.022H245.262V170.237H248.951V165.022Z" fill="#EFF1FF"/>
<path d="M242.195 165.022H238.506V170.237H242.195V165.022Z" fill="#EFF1FF"/>
<path d="M235.797 165.022H232.108V170.237H235.797V165.022Z" fill="#EFF1FF"/>
<path d="M229.259 165.022H225.57V170.237H229.259V165.022Z" fill="#EFF1FF"/>
<path d="M222.66 165.022H218.971V170.237H222.66V165.022Z" fill="#EFF1FF"/>
<path d="M215.748 165.022H212.059V170.237H215.748V165.022Z" fill="#EFF1FF"/>
<path d="M208.992 165.022H205.303V170.237H208.992V165.022Z" fill="#EFF1FF"/>
<path d="M202.578 165.022H198.888V170.237H202.578V165.022Z" fill="#EFF1FF"/>
<path d="M196.057 165.022H192.368V170.237H196.057V165.022Z" fill="#EFF1FF"/>
<path d="M189.254 165.022H185.564V170.237H189.254V165.022Z" fill="#EFF1FF"/>
<path d="M182.342 165.022H178.652V170.237H182.342V165.022Z" fill="#EFF1FF"/>
<path d="M175.587 165.022H171.898V170.237H175.587V165.022Z" fill="#EFF1FF"/>
<path d="M169.174 165.022H165.484V170.237H169.174V165.022Z" fill="#EFF1FF"/>
<path d="M162.65 165.022H158.961V170.237H162.65V165.022Z" fill="#EFF1FF"/>
<path d="M156.034 165.022H152.345V170.237H156.034V165.022Z" fill="#EFF1FF"/>
<path d="M149.123 165.022H145.434V170.237H149.123V165.022Z" fill="#EFF1FF"/>
<path d="M142.369 165.022H138.679V170.237H142.369V165.022Z" fill="#EFF1FF"/>
<path d="M135.969 165.022H132.28V170.237H135.969V165.022Z" fill="#EFF1FF"/>
<path d="M129.431 165.022H125.742V170.237H129.431V165.022Z" fill="#EFF1FF"/>
<path d="M255.862 174.222H252.173V179.437H255.862V174.222Z" fill="#EFF1FF"/>
<path d="M248.951 174.222H245.262V179.437H248.951V174.222Z" fill="#EFF1FF"/>
<path d="M242.195 174.222H238.506V179.437H242.195V174.222Z" fill="#EFF1FF"/>
<path d="M235.797 174.222H232.108V179.437H235.797V174.222Z" fill="#EFF1FF"/>
<path d="M229.259 174.222H225.57V179.437H229.259V174.222Z" fill="#EFF1FF"/>
<path d="M222.66 174.222H218.971V179.437H222.66V174.222Z" fill="#EFF1FF"/>
<path d="M215.748 174.222H212.059V179.437H215.748V174.222Z" fill="#EFF1FF"/>
<path d="M208.992 174.222H205.303V179.437H208.992V174.222Z" fill="#EFF1FF"/>
<path d="M202.578 174.222H198.888V179.437H202.578V174.222Z" fill="#EFF1FF"/>
<path d="M196.057 174.222H192.368V179.437H196.057V174.222Z" fill="#EFF1FF"/>
<path d="M189.254 174.222H185.564V179.437H189.254V174.222Z" fill="#EFF1FF"/>
<path d="M182.342 174.222H178.652V179.437H182.342V174.222Z" fill="#EFF1FF"/>
<path d="M175.587 174.222H171.898V179.437H175.587V174.222Z" fill="#EFF1FF"/>
<path d="M169.174 174.222H165.484V179.437H169.174V174.222Z" fill="#EFF1FF"/>
<path d="M162.65 174.222H158.961V179.437H162.65V174.222Z" fill="#EFF1FF"/>
<path d="M156.034 174.222H152.345V179.437H156.034V174.222Z" fill="#EFF1FF"/>
<path d="M149.123 174.222H145.434V179.437H149.123V174.222Z" fill="#EFF1FF"/>
<path d="M142.369 174.222H138.679V179.437H142.369V174.222Z" fill="#EFF1FF"/>
<path d="M135.969 174.222H132.28V179.437H135.969V174.222Z" fill="#EFF1FF"/>
<path d="M129.431 174.222H125.742V179.437H129.431V174.222Z" fill="#EFF1FF"/>
<path d="M255.862 183.266H252.173V188.481H255.862V183.266Z" fill="#EFF1FF"/>
<path d="M248.951 183.266H245.262V188.481H248.951V183.266Z" fill="#EFF1FF"/>
<path d="M242.195 183.266H238.506V188.481H242.195V183.266Z" fill="#EFF1FF"/>
<path d="M235.797 183.266H232.108V188.481H235.797V183.266Z" fill="#EFF1FF"/>
<path d="M229.259 183.266H225.57V188.481H229.259V183.266Z" fill="#EFF1FF"/>
<path d="M222.66 183.266H218.971V188.481H222.66V183.266Z" fill="#EFF1FF"/>
<path d="M215.748 183.266H212.059V188.481H215.748V183.266Z" fill="#EFF1FF"/>
<path d="M208.992 183.266H205.303V188.481H208.992V183.266Z" fill="#EFF1FF"/>
<path d="M202.578 183.266H198.888V188.481H202.578V183.266Z" fill="#EFF1FF"/>
<path d="M196.057 183.266H192.368V188.481H196.057V183.266Z" fill="#EFF1FF"/>
<path d="M189.254 183.266H185.564V188.481H189.254V183.266Z" fill="#EFF1FF"/>
<path d="M182.342 183.266H178.652V188.481H182.342V183.266Z" fill="#EFF1FF"/>
<path d="M175.587 183.266H171.898V188.481H175.587V183.266Z" fill="#EFF1FF"/>
<path d="M169.174 183.266H165.484V188.481H169.174V183.266Z" fill="#EFF1FF"/>
<path d="M162.65 183.266H158.961V188.481H162.65V183.266Z" fill="#EFF1FF"/>
<path d="M156.034 183.266H152.345V188.481H156.034V183.266Z" fill="#EFF1FF"/>
<path d="M149.123 183.266H145.434V188.481H149.123V183.266Z" fill="#EFF1FF"/>
<path d="M142.369 183.266H138.679V188.481H142.369V183.266Z" fill="#EFF1FF"/>
<path d="M135.969 183.266H132.28V188.481H135.969V183.266Z" fill="#EFF1FF"/>
<path d="M129.431 183.266H125.742V188.481H129.431V183.266Z" fill="#EFF1FF"/>
<path d="M255.862 192.886H252.173V198.101H255.862V192.886Z" fill="#EFF1FF"/>
<path d="M248.951 192.886H245.262V198.101H248.951V192.886Z" fill="#EFF1FF"/>
<path d="M242.195 192.886H238.506V198.101H242.195V192.886Z" fill="#EFF1FF"/>
<path d="M235.797 192.886H232.108V198.101H235.797V192.886Z" fill="#EFF1FF"/>
<path d="M229.259 192.886H225.57V198.101H229.259V192.886Z" fill="#EFF1FF"/>
<path d="M222.66 192.886H218.971V198.101H222.66V192.886Z" fill="#EFF1FF"/>
<path d="M215.748 192.886H212.059V198.101H215.748V192.886Z" fill="#EFF1FF"/>
<path d="M208.992 192.886H205.303V198.101H208.992V192.886Z" fill="#EFF1FF"/>
<path d="M202.578 192.886H198.888V198.101H202.578V192.886Z" fill="#EFF1FF"/>
<path d="M196.057 192.886H192.368V198.101H196.057V192.886Z" fill="#EFF1FF"/>
<path d="M189.254 192.886H185.564V198.101H189.254V192.886Z" fill="#EFF1FF"/>
<path d="M182.342 192.886H178.652V198.101H182.342V192.886Z" fill="#EFF1FF"/>
<path d="M175.587 192.886H171.898V198.101H175.587V192.886Z" fill="#EFF1FF"/>
<path d="M169.174 192.886H165.484V198.101H169.174V192.886Z" fill="#EFF1FF"/>
<path d="M162.65 192.886H158.961V198.101H162.65V192.886Z" fill="#EFF1FF"/>
<path d="M156.034 192.886H152.345V198.101H156.034V192.886Z" fill="#EFF1FF"/>
<path d="M149.123 192.886H145.434V198.101H149.123V192.886Z" fill="#EFF1FF"/>
<path d="M142.369 192.886H138.679V198.101H142.369V192.886Z" fill="#EFF1FF"/>
<path d="M135.969 192.886H132.28V198.101H135.969V192.886Z" fill="#EFF1FF"/>
<path d="M129.431 192.886H125.742V198.101H129.431V192.886Z" fill="#EFF1FF"/>
<path d="M255.862 202.086H252.173V207.301H255.862V202.086Z" fill="#EFF1FF"/>
<path d="M248.951 202.086H245.262V207.301H248.951V202.086Z" fill="#EFF1FF"/>
<path d="M242.195 202.086H238.506V207.301H242.195V202.086Z" fill="#EFF1FF"/>
<path d="M235.797 202.086H232.108V207.301H235.797V202.086Z" fill="#EFF1FF"/>
<path d="M229.259 202.086H225.57V207.301H229.259V202.086Z" fill="#EFF1FF"/>
<path d="M222.66 202.086H218.971V207.301H222.66V202.086Z" fill="#EFF1FF"/>
<path d="M215.748 202.086H212.059V207.301H215.748V202.086Z" fill="#EFF1FF"/>
<path d="M208.992 202.086H205.303V207.301H208.992V202.086Z" fill="#EFF1FF"/>
<path d="M202.578 202.086H198.888V207.301H202.578V202.086Z" fill="#EFF1FF"/>
<path d="M196.057 202.086H192.368V207.301H196.057V202.086Z" fill="#EFF1FF"/>
<path d="M189.254 202.086H185.564V207.301H189.254V202.086Z" fill="#EFF1FF"/>
<path d="M182.342 202.086H178.652V207.301H182.342V202.086Z" fill="#EFF1FF"/>
<path d="M175.587 202.086H171.898V207.301H175.587V202.086Z" fill="#EFF1FF"/>
<path d="M169.174 202.086H165.484V207.301H169.174V202.086Z" fill="#EFF1FF"/>
<path d="M162.65 202.086H158.961V207.301H162.65V202.086Z" fill="#EFF1FF"/>
<path d="M156.034 202.086H152.345V207.301H156.034V202.086Z" fill="#EFF1FF"/>
<path d="M149.123 202.086H145.434V207.301H149.123V202.086Z" fill="#EFF1FF"/>
<path d="M142.369 202.086H138.679V207.301H142.369V202.086Z" fill="#EFF1FF"/>
<path d="M135.969 202.086H132.28V207.301H135.969V202.086Z" fill="#EFF1FF"/>
<path d="M129.431 202.086H125.742V207.301H129.431V202.086Z" fill="#EFF1FF"/>
<path d="M255.862 211.131H252.173V216.345H255.862V211.131Z" fill="#EFF1FF"/>
<path d="M248.951 211.131H245.262V216.345H248.951V211.131Z" fill="#EFF1FF"/>
<path d="M242.195 211.131H238.506V216.345H242.195V211.131Z" fill="#EFF1FF"/>
<path d="M235.797 211.131H232.108V216.345H235.797V211.131Z" fill="#EFF1FF"/>
<path d="M229.259 211.131H225.57V216.345H229.259V211.131Z" fill="#EFF1FF"/>
<path d="M222.66 211.131H218.971V216.345H222.66V211.131Z" fill="#EFF1FF"/>
<path d="M215.748 211.131H212.059V216.345H215.748V211.131Z" fill="#EFF1FF"/>
<path d="M208.992 211.131H205.303V216.345H208.992V211.131Z" fill="#EFF1FF"/>
<path d="M202.578 211.131H198.888V216.345H202.578V211.131Z" fill="#EFF1FF"/>
<path d="M196.057 211.131H192.368V216.345H196.057V211.131Z" fill="#EFF1FF"/>
<path d="M189.254 211.131H185.564V216.345H189.254V211.131Z" fill="#EFF1FF"/>
<path d="M182.342 211.131H178.652V216.345H182.342V211.131Z" fill="#EFF1FF"/>
<path d="M175.587 211.131H171.898V216.345H175.587V211.131Z" fill="#EFF1FF"/>
<path d="M169.174 211.131H165.484V216.345H169.174V211.131Z" fill="#EFF1FF"/>
<path d="M162.65 211.131H158.961V216.345H162.65V211.131Z" fill="#EFF1FF"/>
<path d="M156.034 211.131H152.345V216.345H156.034V211.131Z" fill="#EFF1FF"/>
<path d="M149.123 211.131H145.434V216.345H149.123V211.131Z" fill="#EFF1FF"/>
<path d="M142.369 211.131H138.679V216.345H142.369V211.131Z" fill="#EFF1FF"/>
<path d="M135.969 211.131H132.28V216.345H135.969V211.131Z" fill="#EFF1FF"/>
<path d="M129.431 211.131H125.742V216.345H129.431V211.131Z" fill="#EFF1FF"/>
<path d="M281.781 227.46H196.118V273.334H281.781V227.46Z" fill="#EFF1FF"/>
<path d="M346.74 250.561H261.077V273.319H346.74V250.561Z" fill="#EFF1FF"/>
<path d="M103.593 273.381H189.256V234.667H103.593V273.381Z" fill="#EFF1FF"/>
<path d="M276.065 232.861H260.109V241.423H276.065V232.861Z" fill="#E3E5F5"/>
<path d="M255.565 232.861H239.609V241.423H255.565V232.861Z" fill="#E3E5F5"/>
<path d="M235.469 232.861H219.513V241.423H235.469V232.861Z" fill="#E3E5F5"/>
<path d="M215.762 232.861H199.806V241.423H215.762V232.861Z" fill="#E3E5F5"/>
<path d="M197.005 227.46H188.786V273.334H197.005V227.46Z" fill="#E3E5F5"/>
<path d="M95.0126 218.447H86.7935V273.303H95.0126V218.447Z" fill="#E3E5F5"/>
<path d="M94.7639 273.301H103.59V234.665H94.7639V273.301Z" fill="#E3E5F5"/>
<path d="M321.351 144.988H320.9V148.599H321.351V144.988Z" fill="#E3E5F5"/>
<path d="M305.348 144.988H304.897V148.599H305.348V144.988Z" fill="#E3E5F5"/>
<path d="M141.913 218.307H94.7622V273.303H141.913V218.307Z" fill="#E3E5F5"/>
<path d="M98.7941 207.285H97.9224V218.431H98.7941V207.285Z" fill="#E3E5F5"/>
<path d="M141.913 233.733H83.0867V273.288H141.913V233.733Z" fill="#E3E5F5"/>
<path d="M141.913 228.565H83.0864V241.423H141.913V228.565Z" fill="#EFF1FF"/>
<path d="M137.896 245.237H134.876V249.502H137.896V245.237Z" fill="#E3E5F5"/>
<path d="M132.259 245.237H129.239V249.502H132.259V245.237Z" fill="#E3E5F5"/>
<path d="M126.735 245.237H123.715V249.502H126.735V245.237Z" fill="#E3E5F5"/>
<path d="M121.489 245.237H118.469V249.502H121.489V245.237Z" fill="#E3E5F5"/>
<path d="M116.165 245.237H113.145V249.502H116.165V245.237Z" fill="#E3E5F5"/>
<path d="M110.764 245.237H107.744V249.502H110.764V245.237Z" fill="#E3E5F5"/>
<path d="M105.11 245.237H102.09V249.502H105.11V245.237Z" fill="#E3E5F5"/>
<path d="M99.5829 245.237H96.563V249.502H99.5829V245.237Z" fill="#E3E5F5"/>
<path d="M94.3557 245.237H91.3358V249.502H94.3557V245.237Z" fill="#E3E5F5"/>
<path d="M89.0165 245.237H85.9966V249.502H89.0165V245.237Z" fill="#E3E5F5"/>
<path d="M137.896 252.755H134.876V257.021H137.896V252.755Z" fill="#E3E5F5"/>
<path d="M132.259 252.755H129.239V257.021H132.259V252.755Z" fill="#E3E5F5"/>
<path d="M126.735 252.755H123.715V257.021H126.735V252.755Z" fill="#E3E5F5"/>
<path d="M121.489 252.755H118.469V257.021H121.489V252.755Z" fill="#E3E5F5"/>
<path d="M116.165 252.755H113.145V257.021H116.165V252.755Z" fill="#E3E5F5"/>
<path d="M110.764 252.755H107.744V257.021H110.764V252.755Z" fill="#E3E5F5"/>
<path d="M105.11 252.755H102.09V257.021H105.11V252.755Z" fill="#E3E5F5"/>
<path d="M99.5829 252.755H96.563V257.021H99.5829V252.755Z" fill="#E3E5F5"/>
<path d="M94.3557 252.755H91.3358V257.021H94.3557V252.755Z" fill="#E3E5F5"/>
<path d="M89.0165 252.755H85.9966V257.021H89.0165V252.755Z" fill="#E3E5F5"/>
<path d="M137.896 260.149H134.876V264.415H137.896V260.149Z" fill="#E3E5F5"/>
<path d="M132.259 260.149H129.239V264.415H132.259V260.149Z" fill="#E3E5F5"/>
<path d="M126.735 260.149H123.715V264.415H126.735V260.149Z" fill="#E3E5F5"/>
<path d="M121.489 260.149H118.469V264.415H121.489V260.149Z" fill="#E3E5F5"/>
<path d="M116.165 260.149H113.145V264.415H116.165V260.149Z" fill="#E3E5F5"/>
<path d="M110.764 260.149H107.744V264.415H110.764V260.149Z" fill="#E3E5F5"/>
<path d="M105.11 260.149H102.09V264.415H105.11V260.149Z" fill="#E3E5F5"/>
<path d="M99.5829 260.149H96.563V264.415H99.5829V260.149Z" fill="#E3E5F5"/>
<path d="M94.3557 260.149H91.3358V264.415H94.3557V260.149Z" fill="#E3E5F5"/>
<path d="M89.0165 260.149H85.9966V264.415H89.0165V260.149Z" fill="#E3E5F5"/>
<path d="M137.413 232.176H134.876V236.566H137.413V232.176Z" fill="#E3E5F5"/>
<path d="M112.225 232.176H109.688V236.566H112.225V232.176Z" fill="#E3E5F5"/>
<path d="M92.1777 232.176H89.6404V236.566H92.1777V232.176Z" fill="#E3E5F5"/>
<path d="M389.36 233.733H330.534V273.288H389.36V233.733Z" fill="#E3E5F5"/>
<path d="M389.36 228.565H330.534V241.423H389.36V228.565Z" fill="#EFF1FF"/>
<path d="M385.343 245.237H382.323V249.502H385.343V245.237Z" fill="#E3E5F5"/>
<path d="M379.693 245.237H376.673V249.502H379.693V245.237Z" fill="#E3E5F5"/>
<path d="M374.167 245.237H371.147V249.502H374.167V245.237Z" fill="#E3E5F5"/>
<path d="M368.937 245.237H365.917V249.502H368.937V245.237Z" fill="#E3E5F5"/>
<path d="M363.598 245.237H360.578V249.502H363.598V245.237Z" fill="#E3E5F5"/>
<path d="M358.197 245.237H355.177V249.502H358.197V245.237Z" fill="#E3E5F5"/>
<path d="M352.545 245.237H349.525V249.502H352.545V245.237Z" fill="#E3E5F5"/>
<path d="M347.035 245.237H344.015V249.502H347.035V245.237Z" fill="#E3E5F5"/>
<path d="M341.789 245.237H338.769V249.502H341.789V245.237Z" fill="#E3E5F5"/>
<path d="M336.45 245.237H333.43V249.502H336.45V245.237Z" fill="#E3E5F5"/>
<path d="M385.343 252.755H382.323V257.021H385.343V252.755Z" fill="#E3E5F5"/>
<path d="M379.693 252.755H376.673V257.021H379.693V252.755Z" fill="#E3E5F5"/>
<path d="M374.167 252.755H371.147V257.021H374.167V252.755Z" fill="#E3E5F5"/>
<path d="M368.937 252.755H365.917V257.021H368.937V252.755Z" fill="#E3E5F5"/>
<path d="M363.598 252.755H360.578V257.021H363.598V252.755Z" fill="#E3E5F5"/>
<path d="M358.197 252.755H355.177V257.021H358.197V252.755Z" fill="#E3E5F5"/>
<path d="M352.545 252.755H349.525V257.021H352.545V252.755Z" fill="#E3E5F5"/>
<path d="M347.035 252.755H344.015V257.021H347.035V252.755Z" fill="#E3E5F5"/>
<path d="M341.789 252.755H338.769V257.021H341.789V252.755Z" fill="#E3E5F5"/>
<path d="M336.45 252.755H333.43V257.021H336.45V252.755Z" fill="#E3E5F5"/>
<path d="M385.343 260.149H382.323V264.415H385.343V260.149Z" fill="#E3E5F5"/>
<path d="M379.693 260.149H376.673V264.415H379.693V260.149Z" fill="#E3E5F5"/>
<path d="M374.167 260.149H371.147V264.415H374.167V260.149Z" fill="#E3E5F5"/>
<path d="M368.937 260.149H365.917V264.415H368.937V260.149Z" fill="#E3E5F5"/>
<path d="M363.598 260.149H360.578V264.415H363.598V260.149Z" fill="#E3E5F5"/>
<path d="M358.197 260.149H355.177V264.415H358.197V260.149Z" fill="#E3E5F5"/>
<path d="M352.545 260.149H349.525V264.415H352.545V260.149Z" fill="#E3E5F5"/>
<path d="M347.035 260.149H344.015V264.415H347.035V260.149Z" fill="#E3E5F5"/>
<path d="M341.789 260.149H338.769V264.415H341.789V260.149Z" fill="#E3E5F5"/>
<path d="M336.45 260.149H333.43V264.415H336.45V260.149Z" fill="#E3E5F5"/>
<path d="M384.861 232.176H382.323V236.566H384.861V232.176Z" fill="#E3E5F5"/>
<path d="M359.66 232.176H357.122V236.566H359.66V232.176Z" fill="#E3E5F5"/>
<path d="M339.609 232.176H337.072V236.566H339.609V232.176Z" fill="#E3E5F5"/>
<path d="M451.862 233.733H393.036V273.288H451.862V233.733Z" fill="#E3E5F5"/>
<path d="M451.862 228.565H393.036V241.423H451.862V228.565Z" fill="#EFF1FF"/>
<path d="M447.863 245.237H444.843V249.502H447.863V245.237Z" fill="#EFF1FF"/>
<path d="M442.213 245.237H439.193V249.502H442.213V245.237Z" fill="#EFF1FF"/>
<path d="M436.687 245.237H433.667V249.502H436.687V245.237Z" fill="#EFF1FF"/>
<path d="M431.457 245.237H428.437V249.502H431.457V245.237Z" fill="#EFF1FF"/>
<path d="M426.117 245.237H423.098V249.502H426.117V245.237Z" fill="#EFF1FF"/>
<path d="M420.716 245.237H417.696V249.502H420.716V245.237Z" fill="#EFF1FF"/>
<path d="M415.065 245.237H412.045V249.502H415.065V245.237Z" fill="#EFF1FF"/>
<path d="M409.537 245.237H406.517V249.502H409.537V245.237Z" fill="#EFF1FF"/>
<path d="M404.308 245.237H401.288V249.502H404.308V245.237Z" fill="#EFF1FF"/>
<path d="M398.969 245.237H395.949V249.502H398.969V245.237Z" fill="#EFF1FF"/>
<path d="M447.863 252.755H444.843V257.021H447.863V252.755Z" fill="#EFF1FF"/>
<path d="M442.213 252.755H439.193V257.021H442.213V252.755Z" fill="#EFF1FF"/>
<path d="M436.687 252.755H433.667V257.021H436.687V252.755Z" fill="#EFF1FF"/>
<path d="M431.457 252.755H428.437V257.021H431.457V252.755Z" fill="#EFF1FF"/>
<path d="M426.117 252.755H423.098V257.021H426.117V252.755Z" fill="#EFF1FF"/>
<path d="M420.716 252.755H417.696V257.021H420.716V252.755Z" fill="#EFF1FF"/>
<path d="M415.065 252.755H412.045V257.021H415.065V252.755Z" fill="#EFF1FF"/>
<path d="M409.537 252.755H406.517V257.021H409.537V252.755Z" fill="#EFF1FF"/>
<path d="M404.308 252.755H401.288V257.021H404.308V252.755Z" fill="#EFF1FF"/>
<path d="M398.969 252.755H395.949V257.021H398.969V252.755Z" fill="#EFF1FF"/>
<path d="M447.863 260.15H444.843V264.415H447.863V260.15Z" fill="#EFF1FF"/>
<path d="M442.213 260.15H439.193V264.415H442.213V260.15Z" fill="#EFF1FF"/>
<path d="M436.687 260.15H433.667V264.415H436.687V260.15Z" fill="#EFF1FF"/>
<path d="M431.457 260.15H428.437V264.415H431.457V260.15Z" fill="#EFF1FF"/>
<path d="M426.117 260.15H423.098V264.415H426.117V260.15Z" fill="#EFF1FF"/>
<path d="M420.716 260.15H417.696V264.415H420.716V260.15Z" fill="#EFF1FF"/>
<path d="M415.065 260.15H412.045V264.415H415.065V260.15Z" fill="#EFF1FF"/>
<path d="M409.537 260.15H406.517V264.415H409.537V260.15Z" fill="#EFF1FF"/>
<path d="M404.308 260.15H401.288V264.415H404.308V260.15Z" fill="#EFF1FF"/>
<path d="M398.969 260.15H395.949V264.415H398.969V260.15Z" fill="#EFF1FF"/>
<path d="M447.378 232.177H444.84V236.566H447.378V232.177Z" fill="#E3E5F5"/>
<path d="M422.177 232.177H419.639V236.566H422.177V232.177Z" fill="#E3E5F5"/>
<path d="M402.126 232.177H399.589V236.566H402.126V232.177Z" fill="#E3E5F5"/>
<path d="M514.516 233.733H455.69V273.288H514.516V233.733Z" fill="#E3E5F5"/>
<path d="M514.516 228.565H455.69V241.423H514.516V228.565Z" fill="#EFF1FF"/>
<path d="M510.5 245.237H507.48V249.502H510.5V245.237Z" fill="#EFF1FF"/>
<path d="M504.85 245.237H501.83V249.502H504.85V245.237Z" fill="#EFF1FF"/>
<path d="M499.339 245.237H496.319V249.502H499.339V245.237Z" fill="#EFF1FF"/>
<path d="M494.092 245.237H491.073V249.502H494.092V245.237Z" fill="#EFF1FF"/>
<path d="M488.753 245.237H485.733V249.502H488.753V245.237Z" fill="#EFF1FF"/>
<path d="M483.368 245.237H480.348V249.502H483.368V245.237Z" fill="#EFF1FF"/>
<path d="M477.717 245.237H474.697V249.502H477.717V245.237Z" fill="#EFF1FF"/>
<path d="M472.189 245.237H469.169V249.502H472.189V245.237Z" fill="#EFF1FF"/>
<path d="M466.96 245.237H463.94V249.502H466.96V245.237Z" fill="#EFF1FF"/>
<path d="M461.621 245.237H458.601V249.502H461.621V245.237Z" fill="#EFF1FF"/>
<path d="M510.5 252.755H507.48V257.021H510.5V252.755Z" fill="#EFF1FF"/>
<path d="M504.85 252.755H501.83V257.021H504.85V252.755Z" fill="#EFF1FF"/>
<path d="M499.339 252.755H496.319V257.021H499.339V252.755Z" fill="#EFF1FF"/>
<path d="M494.092 252.755H491.073V257.021H494.092V252.755Z" fill="#EFF1FF"/>
<path d="M488.753 252.755H485.733V257.021H488.753V252.755Z" fill="#EFF1FF"/>
<path d="M483.368 252.755H480.348V257.021H483.368V252.755Z" fill="#EFF1FF"/>
<path d="M477.717 252.755H474.697V257.021H477.717V252.755Z" fill="#EFF1FF"/>
<path d="M472.189 252.755H469.169V257.021H472.189V252.755Z" fill="#EFF1FF"/>
<path d="M466.96 252.755H463.94V257.021H466.96V252.755Z" fill="#EFF1FF"/>
<path d="M461.621 252.755H458.601V257.021H461.621V252.755Z" fill="#EFF1FF"/>
<path d="M510.5 260.15H507.48V264.415H510.5V260.15Z" fill="#EFF1FF"/>
<path d="M504.85 260.15H501.83V264.415H504.85V260.15Z" fill="#EFF1FF"/>
<path d="M499.339 260.15H496.319V264.415H499.339V260.15Z" fill="#EFF1FF"/>
<path d="M494.092 260.15H491.073V264.415H494.092V260.15Z" fill="#EFF1FF"/>
<path d="M488.753 260.15H485.733V264.415H488.753V260.15Z" fill="#EFF1FF"/>
<path d="M483.368 260.15H480.348V264.415H483.368V260.15Z" fill="#EFF1FF"/>
<path d="M477.717 260.15H474.697V264.415H477.717V260.15Z" fill="#EFF1FF"/>
<path d="M472.189 260.15H469.169V264.415H472.189V260.15Z" fill="#EFF1FF"/>
<path d="M466.96 260.15H463.94V264.415H466.96V260.15Z" fill="#EFF1FF"/>
<path d="M461.621 260.15H458.601V264.415H461.621V260.15Z" fill="#EFF1FF"/>
<path d="M510.016 232.177H507.479V236.566H510.016V232.177Z" fill="#E3E5F5"/>
<path d="M484.812 232.177H482.275V236.566H484.812V232.177Z" fill="#E3E5F5"/>
<path d="M464.78 232.177H462.243V236.566H464.78V232.177Z" fill="#E3E5F5"/>
<path d="M94.2651 272.4C94.2807 272.416 94.2807 272.416 94.2807 272.416H95.0902C95.0279 272.4 94.9501 272.4 94.8722 272.4H94.2651Z" fill="#2E3552"/>
<path d="M213.74 195.393C213.709 195.393 213.662 195.377 213.615 195.377C213.646 195.377 213.693 195.377 213.74 195.393Z" fill="#7DABBD"/>
<path d="M99.4813 272.4C99.4657 272.416 99.4657 272.416 99.4657 272.416H98.6562C98.7185 272.4 98.7964 272.4 98.8742 272.4H99.4813Z" fill="#2E3552"/>
<path d="M532.666 273.381C533.444 272.105 533.538 270.813 532.479 269.63C529.957 266.797 522.844 270.299 517.784 273.381H532.666Z" fill="#A8D29F"/>
<path d="M515.792 273.381C520.587 268.011 528.199 258.142 523.311 254.343C518.33 250.467 508.274 264.897 503.106 273.148C503.464 266.703 502.95 258.126 497.47 260.087C491.773 262.111 496.49 268.26 499.868 273.381H515.792Z" fill="#A8D29F"/>
<path d="M224.358 253.448C206.23 253.087 188.269 242.845 173.254 236.973C158.239 231.101 139.958 232.381 125.092 236.973C110.148 241.581 86.3775 209.021 63.9308 209.695C41.4841 210.37 20.4022 227.836 13.4249 240.809C6.44764 253.781 14.9712 265.372 19.828 270.633L257.203 270.571C257.188 270.587 249.466 253.962 224.358 253.448Z" fill="#ACD29A"/>
<path d="M0 273.201C0 273.201 4.10284 262.189 23.1252 265.224C42.1632 268.26 50.5847 266.127 59.9558 263.714C69.3113 261.286 73.3431 261.162 82.2472 264.415C91.1668 267.653 94.2802 274.331 123.296 267.653C152.312 260.975 166.042 255.526 184.146 260.679C202.25 265.831 224.542 256.414 246.864 265.224C269.187 274.051 320.936 273.627 320.936 273.627L0 273.201Z" fill="#88B374"/>
<path d="M311.389 151.64C312.65 150.255 314.397 146.983 316.217 146.546C317.187 146.293 321.102 146.697 321.775 148.379C321.984 148.735 321.602 149.441 321.62 150.15C321.617 150.551 322.11 150.98 322.083 151.476C322.126 152.09 321.579 152.654 321.621 153.268C321.64 153.977 322.06 154.689 322.057 155.09C322.118 156.414 320.328 155.953 317.847 156.22C315.367 156.487 312.448 155.333 310.904 153.527L311.389 151.64Z" fill="#F7D5A5"/>
<path d="M309.25 150.587C310.265 150.546 311.21 150.387 312.226 150.347C312.524 151.53 311.713 152.73 311.987 154.007C310.875 154.425 309.482 154.368 308.349 154.479C308.403 153.487 308.551 152.519 308.487 151.598L309.25 150.587Z" fill="white"/>
<path d="M186.43 215.136C184.517 218.667 183.725 223.694 184.286 227.761C184.533 229.535 184.62 233.883 182.769 235.217C180.016 237.325 179.844 231.748 179.691 229.999C179.498 227.233 179.263 223.853 179.001 220.969C178.552 217.635 177.884 218.67 177.446 217.25C177.008 215.829 176.836 213.371 176.711 211.126C178.838 210.668 181.042 209.525 183.094 209.751C185.358 209.931 184.906 210.519 186.286 212.182L186.43 215.136Z" fill="#2B2B33"/>
<path d="M310.63 185.443C313.504 182.864 315.752 178.815 316.559 174.899C316.878 173.271 318.229 169.193 320.286 168.616C323.481 167.527 321.838 172.737 321.425 174.341C320.651 176.958 319.756 180.047 319.146 182.807C318.439 185.944 319.411 185.289 319.354 186.683C319.273 188.171 318.69 190.435 317.967 192.462C316.013 191.858 313.769 191.985 311.957 191.217C309.887 190.282 310.264 190.379 309.57 188.389L310.63 185.443Z" fill="#2B2B33"/>
<path d="M188.838 215.152C187.704 215.263 185.698 215.249 184.801 215.22C183.315 215.139 183.131 211.169 184.176 210.231C185.951 209.581 187.504 210.182 189.772 209.961L188.838 215.152Z" fill="white"/>
<path d="M308.659 184.131C309.79 184.422 310.969 184.524 311.721 185.12C312.143 185.43 311.762 189.254 310.671 189.98C308.64 190.06 306.804 189.387 305.512 188.551L308.659 184.131Z" fill="white"/>
<path d="M233.865 176.448C231.34 179.621 230.75 186.208 229.96 187.715C226.133 194.777 222.577 203.518 220.584 205.017C218.496 206.491 212.942 204.257 201.422 207.629C193.617 209.845 188.805 209.411 188.568 209.551C185.985 210.999 186.078 214.543 187.817 215.594C192.483 216.594 207.235 216.669 209.171 216.564C215.12 216.486 220.591 217.089 225.138 215.041C229.353 213.108 232.808 208.666 236.706 204.841C241.984 199.561 247.278 188.752 246.543 182.628C246.098 178.892 242.253 178.607 238.392 177.211L233.865 176.448Z" fill="#39317B"/>
<path d="M285.062 146.574C292.251 147.921 302.648 149.692 309.822 149.929C309.707 152.716 310.735 154.188 309.48 154.77C307.751 155.632 288.841 156.097 283.26 154.358C277.678 152.62 256.8 147.85 254.449 146.44C253.391 145.866 252.439 143.71 252.958 140.524C254.049 133.16 274.387 140.809 285.062 146.574Z" fill="#766FCE"/>
<path d="M254.248 135.122C259.73 137.639 263.842 143.526 262.251 148.146C260.393 153.803 259.124 159.512 257.126 164.932C256.501 166.582 254.764 171.768 253.263 173.695C250.216 177.337 246.325 176.838 243.095 172.989C238.74 168.046 242.174 156.658 243.679 150.809C245.157 145.456 247.669 140.771 249.933 137.833L254.248 135.122Z" fill="#E0E5F9"/>
<path d="M272.607 119.227C275.805 117.736 277.041 116.445 275.484 113.127C274.297 110.71 272.497 108.335 270.289 106.761C267.188 104.756 262.266 103.187 258.582 103.446C255.348 103.519 256.565 105.039 258.346 106.705C255.963 106.594 251.06 105.735 248.972 107.209C246.243 109.223 250.183 109.533 250.57 111.543C251.118 114.098 245.943 111.56 244.707 112.851C243.446 114.236 246.684 116.88 247.928 117.904C245.752 118.551 241.189 119.489 241.947 122.4C242.568 124.673 247.116 125.743 248.952 126.416C251.825 127.357 255.875 128.802 258.88 127.664L272.607 119.227Z" fill="#3C323A"/>
<path d="M260.75 139.914C258.494 145.168 264.08 142.984 262.891 140.968C261.467 138.691 260.75 139.914 260.75 139.914Z" fill="#911368"/>
<path d="M255.035 124.26C254.385 126.003 253.641 127.723 252.897 129.443C252.539 130.055 251.752 131.16 251.959 131.917C252.214 132.486 254.51 134.887 255.122 135.246C257.071 136.653 259.924 133.766 261.373 132.429C263.631 130.294 263.402 129.23 261.648 127.068C260.291 125.311 259.734 123.96 257.281 123.731L255.035 124.26Z" fill="#F4C38B"/>
<path d="M256.235 124.669C256.942 128.17 261.575 137.108 267.999 133.229C271.579 131.032 269.505 127.38 270.573 123.229C271.5 122.361 273.495 117.343 271.6 114.944C270.268 113.092 269.093 115.707 264.465 112.604C262.656 111.435 259.09 111.623 257.915 114.238C257.362 115.604 257.778 120.238 256.547 120.726C256.547 120.726 255.883 117.839 254.278 117.828C252.767 117.842 251.956 119.041 251.805 120.411C251.22 126.195 256.235 124.669 256.235 124.669Z" fill="#F7D5A5"/>
<path d="M271.46 114.707C270.219 113.281 268.834 115.54 264.465 112.605C262.656 111.435 259.09 111.624 257.915 114.238C257.842 114.521 257.745 114.899 257.624 115.37C258.887 113.583 260.711 112.745 263.091 113.257C265.119 113.578 268.971 116.178 271.223 114.847C271.436 114.801 271.46 114.707 271.46 114.707Z" fill="#DDBF94"/>
<path d="M233.904 177.464C232.549 178.826 230.953 184.249 233.765 186.984C236.037 189.48 240.876 189.418 243.803 189.367C250.107 189.078 255.287 187.695 260.991 185.442C266.696 183.188 271.692 180.954 274.477 181.067C277.355 181.204 285.898 184.711 290.662 185.333C295.614 186.004 300.788 188.543 307.716 190.125C310.092 187.92 310.966 184.524 309.489 183.238C307.236 181.451 286.541 174.013 279.595 171.722C273.755 169.816 263.742 170.458 254.271 171.34C249.098 171.92 244.134 172.855 239.052 173.861L233.904 177.464Z" fill="#5D599C"/>
<path d="M260.583 140.173C258.819 136.097 254.391 131.437 251.02 130.871C249.865 130.675 248.731 130.785 247.81 130.85C235.74 132.068 233.368 153.386 229.325 167.534C228.213 171.071 223.868 174.68 223.794 178.483C228.951 176.793 237.621 179.024 242.962 178.186C246.317 177.641 248.768 178.272 250.68 178.261C251.157 177.579 250.523 173.795 251.093 170.019C252.797 159.493 265.156 150.906 260.583 140.173Z" fill="#766FCE"/>
<path d="M261.307 141.666C254.446 147.243 233.799 159.532 224.604 161.29C221.529 162.309 217.307 165.045 215.888 165.484C217.971 167.931 224.231 170.548 225.957 170.087C230.829 168.726 235.732 166.467 239.764 163.683C246.24 159.214 251.232 154.262 256.653 148.817C258.698 146.728 260.597 145.205 261.985 142.545L261.307 141.666Z" fill="#911368"/>
<path d="M250.683 128.672C252.309 128.99 261.35 138.76 261.044 141.9C258.38 138.197 250.188 131.763 247.811 130.85C247.811 130.85 249.363 128.332 250.683 128.672Z" fill="#E0E5F9"/>
<path d="M184.577 151.288L175.925 156.404L183.061 168.501L191.831 163.315L184.577 151.288ZM183.304 167.558L176.843 156.741L184.428 152.256L190.865 163.167L183.304 167.558Z" fill="#AA8268"/>
<path d="M173.49 141.427L148.935 155.947L170.503 192.509L195.058 177.989L173.49 141.427Z" fill="#69194F"/>
<path opacity="0.1" d="M177.776 178.105L164.949 156.497L167.535 144.89L172.37 142.111L193.917 178.638L188.821 181.652L177.776 178.105Z" fill="#2B2B33"/>
<path d="M178.962 177.404L166.135 155.796L168.72 144.189L173.555 141.41L195.102 177.937L190.006 180.951L178.962 177.404Z" fill="#911368"/>
<path d="M172.703 162.582L168.764 164.912L172.178 170.697L176.117 168.368L172.703 162.582Z" fill="#7B8EE1"/>
<path d="M195.023 152.469C194.726 154.404 195.405 158.401 194.096 159.975C193.382 160.797 189.802 162.994 188.157 161.967C187.71 161.752 187.622 160.924 187.083 160.283C186.779 159.903 186.095 159.827 185.791 159.447C185.417 158.949 185.423 158.145 185.049 157.647C184.605 157.029 183.781 156.717 183.571 156.361C182.659 155.221 184.458 154.477 186.43 152.671C188.496 150.889 191.642 149.989 194.211 150.549L195.023 152.469Z" fill="#F7D5A5"/>
<path d="M197.387 152.272C196.721 152.905 195.937 153.609 195.083 154.194C194.168 153.455 194.131 152.037 193.146 151.18C193.696 150.215 194.905 149.42 195.808 148.646C196.297 149.477 196.787 150.307 197.325 150.948L197.387 152.272Z" fill="white"/>
<path d="M218.124 133.369C216.301 134.207 197.775 143.722 194.269 148.755C193.172 150.283 196.338 153.21 197.851 152.795C203.599 151.156 219.288 138.999 222.072 139.112C225.942 139.304 228.918 139.064 236.532 140.32C242.922 141.26 250.463 139.68 249.278 133.742C248.069 127.899 229.889 128.652 218.124 133.369Z" fill="#6C67B6"/>
<g opacity="0.2">
<path opacity="0.2" d="M256.652 148.817C251.231 154.262 246.239 159.214 239.763 163.683C236.442 166.047 232.509 168.052 228.464 169.324C227.89 170.384 227.127 171.394 226.459 172.43C228.861 173.249 233.352 169.074 234.892 168.163C239.278 165.569 242.958 162.594 246.735 159.24C250.63 155.817 254.86 151.876 258.007 147.456C257.579 147.949 257.175 148.348 256.652 148.817Z" fill="#2B2B33"/>
</g>
<g opacity="0.2">
<path opacity="0.2" d="M247.257 138.855C244.814 140.54 240.798 140.915 237.096 140.465C236.592 141.643 236.088 142.821 235.653 144.117C236.055 144.12 236.48 144.028 236.906 143.936C240.119 143.556 244.781 141.839 247.257 138.855Z" fill="#2B2B33"/>
</g>
<g opacity="0.2">
<path opacity="0.2" d="M233.764 186.985C231.28 184.534 232.233 180.052 233.427 178.146C233.238 178.098 233.12 178.168 232.931 178.119C231.255 181.51 230.676 186.491 230.053 187.739C227.757 191.977 225.622 196.758 223.827 200.219C230.809 200.809 237.481 198.704 243.288 195.27C244.318 193.221 245.135 191.219 245.644 189.237C245.03 189.281 244.416 189.324 243.802 189.367C240.781 189.394 236.036 189.48 233.764 186.985Z" fill="#2B2B33"/>
</g>
<g opacity="0.2">
<path opacity="0.2" d="M242.939 178.281C240.222 178.688 236.802 178.311 233.334 178.122C233 178.64 232.687 179.464 232.468 180.314C232.563 180.338 232.563 180.338 232.657 180.362C236.879 180.745 248.238 179.946 248.454 179.499C248.575 179.027 248.271 178.647 248.18 178.221C246.812 178.071 245.043 177.917 242.939 178.281Z" fill="#2B2B33"/>
</g>
</svg>
