<svg width="1299" height="514" viewBox="0 0 1299 514" fill="none" xmlns="http://www.w3.org/2000/svg">
<path d="M77.3248 511.108C77.3248 511.108 -101.895 346.023 85.3599 255.884C204.061 198.725 175.646 184.517 213.958 105.59C260.927 8.84 494.275 -63.7318 591.792 84.6258C663.597 193.831 704.357 191.493 756.768 172.355C816.849 150.404 869.004 103.107 940.334 135.795C1042.82 182.764 1057.61 282.692 1123.06 260.924C1298.23 202.596 1367.22 458.442 1211.56 512.46L77.3248 511.108Z" fill="#F5F6FF"/>
<path d="M956.403 63.5885H875.613V456.397H956.403V63.5885Z" fill="#EFF1FF"/>
<path d="M974.555 63.5885H893.766V456.397H974.555V63.5885Z" fill="#E3E5F5"/>
<path d="M974.554 63.4789H893.801V86.1599H974.554V63.4789Z" fill="#EFF1FF"/>
<path d="M974.554 112.712H893.801V135.393H974.554V112.712Z" fill="#EFF1FF"/>
<path d="M974.554 161.946H893.801V184.627H974.554V161.946Z" fill="#EFF1FF"/>
<path d="M974.554 211.179H893.801V233.86H974.554V211.179Z" fill="#EFF1FF"/>
<path d="M974.554 260.412H893.801V283.093H974.554V260.412Z" fill="#EFF1FF"/>
<path d="M974.554 309.609H893.801V332.29H974.554V309.609Z" fill="#EFF1FF"/>
<path d="M974.554 358.843H893.801V381.524H974.554V358.843Z" fill="#EFF1FF"/>
<path d="M974.554 408.076H893.801V430.757H974.554V408.076Z" fill="#EFF1FF"/>
<path d="M1085.56 119.177H1004.77V456.396H1085.56V119.177Z" fill="#EFF1FF"/>
<path d="M1103.71 119.177H1022.92V456.396H1103.71V119.177Z" fill="#E3E5F5"/>
<path d="M1103.67 119.067H1022.92V138.571H1103.67V119.067Z" fill="#EFF1FF"/>
<path d="M1103.67 161.325H1022.92V180.828H1103.67V161.325Z" fill="#EFF1FF"/>
<path d="M1103.67 203.619H1022.92V223.122H1103.67V203.619Z" fill="#EFF1FF"/>
<path d="M1103.67 245.876H1022.92V265.38H1103.67V245.876Z" fill="#EFF1FF"/>
<path d="M1103.67 288.134H1022.92V307.637H1103.67V288.134Z" fill="#EFF1FF"/>
<path d="M1103.67 330.391H1022.92V349.895H1103.67V330.391Z" fill="#EFF1FF"/>
<path d="M1103.67 372.649H1022.92V392.152H1103.67V372.649Z" fill="#EFF1FF"/>
<path d="M1103.67 414.906H1022.92V434.409H1103.67V414.906Z" fill="#EFF1FF"/>
<path d="M831.902 493.645H865.723V444.339H831.902V493.645Z" fill="#E3E5F5"/>
<path d="M368.052 247.191V216.986H377.292V165.05H426.891V216.986H473.239V132.362H524.408V187.293H536.059V121.734H587.228V244.671H651.911V316.403H676.09V334.445H731.605V303.364H763.49V218.812H802.862V374.84H842.234V510.634H802.862H769.114H763.49H731.605H713.599H684.746H676.09H651.911H629.194H587.228H574.372H548.769H536.059H524.408H497.637H479.412H473.239H426.891H378.132H377.292H368.052H328.57V247.191H368.052Z" fill="#E3E5F5"/>
<path d="M802.862 219.689H763.125V239.192H802.862V219.689Z" fill="#EFF1FF"/>
<path d="M802.862 248.688H763.125V268.192H802.862V248.688Z" fill="#EFF1FF"/>
<path d="M802.862 277.688H763.125V297.191H802.862V277.688Z" fill="#EFF1FF"/>
<path d="M802.862 308.112H763.125V327.615H802.862V308.112Z" fill="#EFF1FF"/>
<path d="M802.862 337.586H763.125V357.09H802.862V337.586Z" fill="#EFF1FF"/>
<path d="M802.862 367.024H763.125V386.527H802.862V367.024Z" fill="#EFF1FF"/>
<path d="M802.862 397.85H763.125V417.353H802.862V397.85Z" fill="#EFF1FF"/>
<path d="M763.673 219.689H749.027V304.934H763.673V219.689Z" fill="#EFF1FF"/>
<path d="M731.603 304.934H702.129V336.308H731.603V304.934Z" fill="#EFF1FF"/>
<path d="M473.276 132.508H463.086V217.826H473.239L473.276 132.508Z" fill="#EFF1FF"/>
<path d="M536.058 121.734H529.812V187.841H536.058V121.734Z" fill="#EFF1FF"/>
<path d="M587.228 130.097H536.059V142.734H587.228V130.097Z" fill="#EFF1FF"/>
<path d="M587.228 153.838H536.059V166.475H587.228V153.838Z" fill="#EFF1FF"/>
<path d="M587.228 175.204H536.059V187.841H587.228V175.204Z" fill="#EFF1FF"/>
<path d="M524.443 175.204H473.273V187.841H524.443V175.204Z" fill="#EFF1FF"/>
<path d="M524.443 153.838H473.273V166.475H524.443V153.838Z" fill="#EFF1FF"/>
<path d="M524.443 132.508H473.273V145.145H524.443V132.508Z" fill="#EFF1FF"/>
<path d="M587.228 195.912H473.238V208.55H587.228V195.912Z" fill="#EFF1FF"/>
<path d="M587.228 216.621H473.238V229.258H587.228V216.621Z" fill="#EFF1FF"/>
<path d="M587.228 236.855H473.238V244.89H587.228V236.855Z" fill="#EFF1FF"/>
<path d="M641.316 258.185H632.66V270.42H641.316V258.185Z" fill="#EFF1FF"/>
<path d="M625.101 258.185H616.445V270.42H625.101V258.185Z" fill="#EFF1FF"/>
<path d="M609.25 258.185H600.594V270.42H609.25V258.185Z" fill="#EFF1FF"/>
<path d="M594.238 258.185H585.582V270.42H594.238V258.185Z" fill="#EFF1FF"/>
<path d="M578.898 258.185H570.242V270.42H578.898V258.185Z" fill="#EFF1FF"/>
<path d="M563.414 258.185H554.758V270.42H563.414V258.185Z" fill="#EFF1FF"/>
<path d="M547.199 258.185H538.543V270.42H547.199V258.185Z" fill="#EFF1FF"/>
<path d="M531.347 258.185H522.691V270.42H531.347V258.185Z" fill="#EFF1FF"/>
<path d="M516.297 258.185H507.641V270.42H516.297V258.185Z" fill="#EFF1FF"/>
<path d="M500.996 258.185H492.34V270.42H500.996V258.185Z" fill="#EFF1FF"/>
<path d="M485.035 258.185H476.379V270.42H485.035V258.185Z" fill="#EFF1FF"/>
<path d="M468.816 258.185H460.16V270.42H468.816V258.185Z" fill="#EFF1FF"/>
<path d="M452.969 258.185H444.312V270.42H452.969V258.185Z" fill="#EFF1FF"/>
<path d="M437.922 258.185H429.266V270.42H437.922V258.185Z" fill="#EFF1FF"/>
<path d="M422.617 258.185H413.961V270.42H422.617V258.185Z" fill="#EFF1FF"/>
<path d="M407.094 258.185H398.438V270.42H407.094V258.185Z" fill="#EFF1FF"/>
<path d="M390.879 258.185H382.223V270.42H390.879V258.185Z" fill="#EFF1FF"/>
<path d="M375.027 258.185H366.371V270.42H375.027V258.185Z" fill="#EFF1FF"/>
<path d="M360.015 258.185H351.359V270.42H360.015V258.185Z" fill="#EFF1FF"/>
<path d="M344.676 258.185H336.02V270.42H344.676V258.185Z" fill="#EFF1FF"/>
<path d="M641.316 279.77H632.66V292.005H641.316V279.77Z" fill="#EFF1FF"/>
<path d="M625.101 279.77H616.445V292.005H625.101V279.77Z" fill="#EFF1FF"/>
<path d="M609.25 279.77H600.594V292.005H609.25V279.77Z" fill="#EFF1FF"/>
<path d="M594.238 279.77H585.582V292.005H594.238V279.77Z" fill="#EFF1FF"/>
<path d="M578.898 279.77H570.242V292.005H578.898V279.77Z" fill="#EFF1FF"/>
<path d="M563.414 279.77H554.758V292.005H563.414V279.77Z" fill="#EFF1FF"/>
<path d="M547.199 279.77H538.543V292.005H547.199V279.77Z" fill="#EFF1FF"/>
<path d="M531.347 279.77H522.691V292.005H531.347V279.77Z" fill="#EFF1FF"/>
<path d="M516.297 279.77H507.641V292.005H516.297V279.77Z" fill="#EFF1FF"/>
<path d="M500.996 279.77H492.34V292.005H500.996V279.77Z" fill="#EFF1FF"/>
<path d="M485.035 279.77H476.379V292.005H485.035V279.77Z" fill="#EFF1FF"/>
<path d="M468.816 279.77H460.16V292.005H468.816V279.77Z" fill="#EFF1FF"/>
<path d="M452.969 279.77H444.312V292.005H452.969V279.77Z" fill="#EFF1FF"/>
<path d="M437.922 279.77H429.266V292.005H437.922V279.77Z" fill="#EFF1FF"/>
<path d="M422.617 279.77H413.961V292.005H422.617V279.77Z" fill="#EFF1FF"/>
<path d="M407.094 279.77H398.438V292.005H407.094V279.77Z" fill="#EFF1FF"/>
<path d="M390.879 279.77H382.223V292.005H390.879V279.77Z" fill="#EFF1FF"/>
<path d="M375.027 279.77H366.371V292.005H375.027V279.77Z" fill="#EFF1FF"/>
<path d="M360.015 279.77H351.359V292.005H360.015V279.77Z" fill="#EFF1FF"/>
<path d="M344.676 279.77H336.02V292.005H344.676V279.77Z" fill="#EFF1FF"/>
<path d="M641.316 300.99H632.66V313.225H641.316V300.99Z" fill="#EFF1FF"/>
<path d="M625.101 300.99H616.445V313.225H625.101V300.99Z" fill="#EFF1FF"/>
<path d="M609.25 300.99H600.594V313.225H609.25V300.99Z" fill="#EFF1FF"/>
<path d="M594.238 300.99H585.582V313.225H594.238V300.99Z" fill="#EFF1FF"/>
<path d="M578.898 300.99H570.242V313.225H578.898V300.99Z" fill="#EFF1FF"/>
<path d="M563.414 300.99H554.758V313.225H563.414V300.99Z" fill="#EFF1FF"/>
<path d="M547.199 300.99H538.543V313.225H547.199V300.99Z" fill="#EFF1FF"/>
<path d="M531.347 300.99H522.691V313.225H531.347V300.99Z" fill="#EFF1FF"/>
<path d="M516.297 300.99H507.641V313.225H516.297V300.99Z" fill="#EFF1FF"/>
<path d="M500.996 300.99H492.34V313.225H500.996V300.99Z" fill="#EFF1FF"/>
<path d="M485.035 300.99H476.379V313.225H485.035V300.99Z" fill="#EFF1FF"/>
<path d="M468.816 300.99H460.16V313.225H468.816V300.99Z" fill="#EFF1FF"/>
<path d="M452.969 300.99H444.312V313.225H452.969V300.99Z" fill="#EFF1FF"/>
<path d="M437.922 300.99H429.266V313.225H437.922V300.99Z" fill="#EFF1FF"/>
<path d="M422.617 300.99H413.961V313.225H422.617V300.99Z" fill="#EFF1FF"/>
<path d="M407.094 300.99H398.438V313.225H407.094V300.99Z" fill="#EFF1FF"/>
<path d="M390.879 300.99H382.223V313.225H390.879V300.99Z" fill="#EFF1FF"/>
<path d="M375.027 300.99H366.371V313.225H375.027V300.99Z" fill="#EFF1FF"/>
<path d="M360.015 300.99H351.359V313.225H360.015V300.99Z" fill="#EFF1FF"/>
<path d="M344.676 300.99H336.02V313.225H344.676V300.99Z" fill="#EFF1FF"/>
<path d="M641.316 323.561H632.66V335.797H641.316V323.561Z" fill="#EFF1FF"/>
<path d="M625.101 323.561H616.445V335.797H625.101V323.561Z" fill="#EFF1FF"/>
<path d="M609.25 323.561H600.594V335.797H609.25V323.561Z" fill="#EFF1FF"/>
<path d="M594.238 323.561H585.582V335.797H594.238V323.561Z" fill="#EFF1FF"/>
<path d="M578.898 323.561H570.242V335.797H578.898V323.561Z" fill="#EFF1FF"/>
<path d="M563.414 323.561H554.758V335.797H563.414V323.561Z" fill="#EFF1FF"/>
<path d="M547.199 323.561H538.543V335.797H547.199V323.561Z" fill="#EFF1FF"/>
<path d="M531.347 323.561H522.691V335.797H531.347V323.561Z" fill="#EFF1FF"/>
<path d="M516.297 323.561H507.641V335.797H516.297V323.561Z" fill="#EFF1FF"/>
<path d="M500.996 323.561H492.34V335.797H500.996V323.561Z" fill="#EFF1FF"/>
<path d="M485.035 323.561H476.379V335.797H485.035V323.561Z" fill="#EFF1FF"/>
<path d="M468.816 323.561H460.16V335.797H468.816V323.561Z" fill="#EFF1FF"/>
<path d="M452.969 323.561H444.312V335.797H452.969V323.561Z" fill="#EFF1FF"/>
<path d="M437.922 323.561H429.266V335.797H437.922V323.561Z" fill="#EFF1FF"/>
<path d="M422.617 323.561H413.961V335.797H422.617V323.561Z" fill="#EFF1FF"/>
<path d="M407.094 323.561H398.438V335.797H407.094V323.561Z" fill="#EFF1FF"/>
<path d="M390.879 323.561H382.223V335.797H390.879V323.561Z" fill="#EFF1FF"/>
<path d="M375.027 323.561H366.371V335.797H375.027V323.561Z" fill="#EFF1FF"/>
<path d="M360.015 323.561H351.359V335.797H360.015V323.561Z" fill="#EFF1FF"/>
<path d="M344.676 323.561H336.02V335.797H344.676V323.561Z" fill="#EFF1FF"/>
<path d="M641.316 345.147H632.66V357.382H641.316V345.147Z" fill="#EFF1FF"/>
<path d="M625.101 345.147H616.445V357.382H625.101V345.147Z" fill="#EFF1FF"/>
<path d="M609.25 345.147H600.594V357.382H609.25V345.147Z" fill="#EFF1FF"/>
<path d="M594.238 345.147H585.582V357.382H594.238V345.147Z" fill="#EFF1FF"/>
<path d="M578.898 345.147H570.242V357.382H578.898V345.147Z" fill="#EFF1FF"/>
<path d="M563.414 345.147H554.758V357.382H563.414V345.147Z" fill="#EFF1FF"/>
<path d="M547.199 345.147H538.543V357.382H547.199V345.147Z" fill="#EFF1FF"/>
<path d="M531.347 345.147H522.691V357.382H531.347V345.147Z" fill="#EFF1FF"/>
<path d="M516.297 345.147H507.641V357.382H516.297V345.147Z" fill="#EFF1FF"/>
<path d="M500.996 345.147H492.34V357.382H500.996V345.147Z" fill="#EFF1FF"/>
<path d="M485.035 345.147H476.379V357.382H485.035V345.147Z" fill="#EFF1FF"/>
<path d="M468.816 345.147H460.16V357.382H468.816V345.147Z" fill="#EFF1FF"/>
<path d="M452.969 345.147H444.312V357.382H452.969V345.147Z" fill="#EFF1FF"/>
<path d="M437.922 345.147H429.266V357.382H437.922V345.147Z" fill="#EFF1FF"/>
<path d="M422.617 345.147H413.961V357.382H422.617V345.147Z" fill="#EFF1FF"/>
<path d="M407.094 345.147H398.438V357.382H407.094V345.147Z" fill="#EFF1FF"/>
<path d="M390.879 345.147H382.223V357.382H390.879V345.147Z" fill="#EFF1FF"/>
<path d="M375.027 345.147H366.371V357.382H375.027V345.147Z" fill="#EFF1FF"/>
<path d="M360.015 345.147H351.359V357.382H360.015V345.147Z" fill="#EFF1FF"/>
<path d="M344.676 345.147H336.02V357.382H344.676V345.147Z" fill="#EFF1FF"/>
<path d="M641.316 366.367H632.66V378.602H641.316V366.367Z" fill="#EFF1FF"/>
<path d="M625.101 366.367H616.445V378.602H625.101V366.367Z" fill="#EFF1FF"/>
<path d="M609.25 366.367H600.594V378.602H609.25V366.367Z" fill="#EFF1FF"/>
<path d="M594.238 366.367H585.582V378.602H594.238V366.367Z" fill="#EFF1FF"/>
<path d="M578.898 366.367H570.242V378.602H578.898V366.367Z" fill="#EFF1FF"/>
<path d="M563.414 366.367H554.758V378.602H563.414V366.367Z" fill="#EFF1FF"/>
<path d="M547.199 366.367H538.543V378.602H547.199V366.367Z" fill="#EFF1FF"/>
<path d="M531.347 366.367H522.691V378.602H531.347V366.367Z" fill="#EFF1FF"/>
<path d="M516.297 366.367H507.641V378.602H516.297V366.367Z" fill="#EFF1FF"/>
<path d="M500.996 366.367H492.34V378.602H500.996V366.367Z" fill="#EFF1FF"/>
<path d="M485.035 366.367H476.379V378.602H485.035V366.367Z" fill="#EFF1FF"/>
<path d="M468.816 366.367H460.16V378.602H468.816V366.367Z" fill="#EFF1FF"/>
<path d="M452.969 366.367H444.312V378.602H452.969V366.367Z" fill="#EFF1FF"/>
<path d="M437.922 366.367H429.266V378.602H437.922V366.367Z" fill="#EFF1FF"/>
<path d="M422.617 366.367H413.961V378.602H422.617V366.367Z" fill="#EFF1FF"/>
<path d="M407.094 366.367H398.438V378.602H407.094V366.367Z" fill="#EFF1FF"/>
<path d="M390.879 366.367H382.223V378.602H390.879V366.367Z" fill="#EFF1FF"/>
<path d="M375.027 366.367H366.371V378.602H375.027V366.367Z" fill="#EFF1FF"/>
<path d="M360.015 366.367H351.359V378.602H360.015V366.367Z" fill="#EFF1FF"/>
<path d="M344.676 366.367H336.02V378.602H344.676V366.367Z" fill="#EFF1FF"/>
<path d="M702.132 404.679H501.145V512.314H702.132V404.679Z" fill="#EFF1FF"/>
<path d="M854.542 458.88H653.555V512.277H854.542V458.88Z" fill="#EFF1FF"/>
<path d="M284.055 512.423H485.043V421.59H284.055V512.423Z" fill="#EFF1FF"/>
<path d="M688.722 417.353H651.285V437.441H688.722V417.353Z" fill="#E3E5F5"/>
<path d="M640.624 417.353H603.188V437.441H640.624V417.353Z" fill="#E3E5F5"/>
<path d="M593.472 417.353H556.035V437.441H593.472V417.353Z" fill="#E3E5F5"/>
<path d="M547.233 417.353H509.797V437.441H547.233V417.353Z" fill="#E3E5F5"/>
<path d="M503.226 404.679H483.941V512.314H503.226V404.679Z" fill="#E3E5F5"/>
<path d="M263.925 383.532H244.641V512.241H263.925V383.532Z" fill="#E3E5F5"/>
<path d="M263.342 512.235H284.051V421.584H263.342V512.235Z" fill="#E3E5F5"/>
<path d="M794.973 211.179H793.914V219.652H794.973V211.179Z" fill="#E3E5F5"/>
<path d="M757.426 211.179H756.367V219.652H757.426V211.179Z" fill="#E3E5F5"/>
<path d="M373.969 383.204H263.34V512.241H373.969V383.204Z" fill="#E3E5F5"/>
<path d="M272.799 357.345H270.754V383.496H272.799V357.345Z" fill="#E3E5F5"/>
<path d="M373.967 419.398H235.945V512.204H373.967V419.398Z" fill="#E3E5F5"/>
<path d="M373.967 407.273H235.945V437.441H373.967V407.273Z" fill="#EFF1FF"/>
<path d="M364.543 446.389H357.457V456.396H364.543V446.389Z" fill="#E3E5F5"/>
<path d="M351.32 446.389H344.234V456.396H351.32V446.389Z" fill="#E3E5F5"/>
<path d="M338.355 446.389H331.27V456.396H338.355V446.389Z" fill="#E3E5F5"/>
<path d="M326.046 446.389H318.961V456.396H326.046V446.389Z" fill="#E3E5F5"/>
<path d="M313.554 446.389H306.469V456.396H313.554V446.389Z" fill="#E3E5F5"/>
<path d="M300.882 446.389H293.797V456.396H300.882V446.389Z" fill="#E3E5F5"/>
<path d="M287.625 446.389H280.539V456.396H287.625V446.389Z" fill="#E3E5F5"/>
<path d="M274.656 446.389H267.57V456.396H274.656V446.389Z" fill="#E3E5F5"/>
<path d="M262.386 446.389H255.301V456.396H262.386V446.389Z" fill="#E3E5F5"/>
<path d="M249.859 446.389H242.773V456.396H249.859V446.389Z" fill="#E3E5F5"/>
<path d="M364.543 464.03H357.457V474.037H364.543V464.03Z" fill="#E3E5F5"/>
<path d="M351.32 464.03H344.234V474.037H351.32V464.03Z" fill="#E3E5F5"/>
<path d="M338.355 464.03H331.27V474.037H338.355V464.03Z" fill="#E3E5F5"/>
<path d="M326.046 464.03H318.961V474.037H326.046V464.03Z" fill="#E3E5F5"/>
<path d="M313.554 464.03H306.469V474.037H313.554V464.03Z" fill="#E3E5F5"/>
<path d="M300.882 464.03H293.797V474.037H300.882V464.03Z" fill="#E3E5F5"/>
<path d="M287.625 464.03H280.539V474.037H287.625V464.03Z" fill="#E3E5F5"/>
<path d="M274.656 464.03H267.57V474.037H274.656V464.03Z" fill="#E3E5F5"/>
<path d="M262.386 464.03H255.301V474.037H262.386V464.03Z" fill="#E3E5F5"/>
<path d="M249.859 464.03H242.773V474.037H249.859V464.03Z" fill="#E3E5F5"/>
<path d="M364.543 481.378H357.457V491.386H364.543V481.378Z" fill="#E3E5F5"/>
<path d="M351.32 481.378H344.234V491.386H351.32V481.378Z" fill="#E3E5F5"/>
<path d="M338.355 481.378H331.27V491.386H338.355V481.378Z" fill="#E3E5F5"/>
<path d="M326.046 481.378H318.961V491.386H326.046V481.378Z" fill="#E3E5F5"/>
<path d="M313.554 481.378H306.469V491.386H313.554V481.378Z" fill="#E3E5F5"/>
<path d="M300.882 481.378H293.797V491.386H300.882V481.378Z" fill="#E3E5F5"/>
<path d="M287.625 481.378H280.539V491.386H287.625V481.378Z" fill="#E3E5F5"/>
<path d="M274.656 481.378H267.57V491.386H274.656V481.378Z" fill="#E3E5F5"/>
<path d="M262.386 481.378H255.301V491.386H262.386V481.378Z" fill="#E3E5F5"/>
<path d="M249.859 481.378H242.773V491.386H249.859V481.378Z" fill="#E3E5F5"/>
<path d="M363.41 415.746H357.457V426.046H363.41V415.746Z" fill="#E3E5F5"/>
<path d="M304.317 415.746H298.363V426.046H304.317V415.746Z" fill="#E3E5F5"/>
<path d="M257.274 415.746H251.32V426.046H257.274V415.746Z" fill="#E3E5F5"/>
<path d="M954.541 419.398H816.52V512.204H954.541V419.398Z" fill="#E3E5F5"/>
<path d="M954.541 407.273H816.52V437.441H954.541V407.273Z" fill="#EFF1FF"/>
<path d="M945.117 446.389H938.031V456.397H945.117V446.389Z" fill="#E3E5F5"/>
<path d="M931.859 446.389H924.773V456.397H931.859V446.389Z" fill="#E3E5F5"/>
<path d="M918.894 446.389H911.809V456.397H918.894V446.389Z" fill="#E3E5F5"/>
<path d="M906.621 446.389H899.535V456.397H906.621V446.389Z" fill="#E3E5F5"/>
<path d="M894.093 446.389H887.008V456.397H894.093V446.389Z" fill="#E3E5F5"/>
<path d="M881.422 446.389H874.336V456.397H881.422V446.389Z" fill="#E3E5F5"/>
<path d="M868.164 446.389H861.078V456.397H868.164V446.389Z" fill="#E3E5F5"/>
<path d="M855.234 446.389H848.148V456.397H855.234V446.389Z" fill="#E3E5F5"/>
<path d="M842.925 446.389H835.84V456.397H842.925V446.389Z" fill="#E3E5F5"/>
<path d="M830.398 446.389H823.312V456.397H830.398V446.389Z" fill="#E3E5F5"/>
<path d="M945.117 464.03H938.031V474.037H945.117V464.03Z" fill="#E3E5F5"/>
<path d="M931.859 464.03H924.773V474.037H931.859V464.03Z" fill="#E3E5F5"/>
<path d="M918.894 464.03H911.809V474.037H918.894V464.03Z" fill="#E3E5F5"/>
<path d="M906.621 464.03H899.535V474.037H906.621V464.03Z" fill="#E3E5F5"/>
<path d="M894.093 464.03H887.008V474.037H894.093V464.03Z" fill="#E3E5F5"/>
<path d="M881.422 464.03H874.336V474.037H881.422V464.03Z" fill="#E3E5F5"/>
<path d="M868.164 464.03H861.078V474.037H868.164V464.03Z" fill="#E3E5F5"/>
<path d="M855.234 464.03H848.148V474.037H855.234V464.03Z" fill="#E3E5F5"/>
<path d="M842.925 464.03H835.84V474.037H842.925V464.03Z" fill="#E3E5F5"/>
<path d="M830.398 464.03H823.312V474.037H830.398V464.03Z" fill="#E3E5F5"/>
<path d="M945.117 481.378H938.031V491.386H945.117V481.378Z" fill="#E3E5F5"/>
<path d="M931.859 481.378H924.773V491.386H931.859V481.378Z" fill="#E3E5F5"/>
<path d="M918.894 481.378H911.809V491.386H918.894V481.378Z" fill="#E3E5F5"/>
<path d="M906.621 481.378H899.535V491.386H906.621V481.378Z" fill="#E3E5F5"/>
<path d="M894.093 481.378H887.008V491.386H894.093V481.378Z" fill="#E3E5F5"/>
<path d="M881.422 481.378H874.336V491.386H881.422V481.378Z" fill="#E3E5F5"/>
<path d="M868.164 481.378H861.078V491.386H868.164V481.378Z" fill="#E3E5F5"/>
<path d="M855.234 481.378H848.148V491.386H855.234V481.378Z" fill="#E3E5F5"/>
<path d="M842.925 481.378H835.84V491.386H842.925V481.378Z" fill="#E3E5F5"/>
<path d="M830.398 481.378H823.312V491.386H830.398V481.378Z" fill="#E3E5F5"/>
<path d="M943.985 415.746H938.031V426.046H943.985V415.746Z" fill="#E3E5F5"/>
<path d="M884.856 415.746H878.902V426.046H884.856V415.746Z" fill="#E3E5F5"/>
<path d="M837.813 415.746H831.859V426.046H837.813V415.746Z" fill="#E3E5F5"/>
<path d="M1101.19 419.398H963.164V512.204H1101.19V419.398Z" fill="#E3E5F5"/>
<path d="M1101.19 407.273H963.164V437.441H1101.19V407.273Z" fill="#EFF1FF"/>
<path d="M1091.8 446.389H1084.71V456.397H1091.8V446.389Z" fill="#EFF1FF"/>
<path d="M1078.54 446.389H1071.46V456.397H1078.54V446.389Z" fill="#EFF1FF"/>
<path d="M1065.58 446.389H1058.49V456.397H1065.58V446.389Z" fill="#EFF1FF"/>
<path d="M1053.3 446.389H1046.22V456.397H1053.3V446.389Z" fill="#EFF1FF"/>
<path d="M1040.78 446.389H1033.69V456.397H1040.78V446.389Z" fill="#EFF1FF"/>
<path d="M1028.11 446.389H1021.02V456.397H1028.11V446.389Z" fill="#EFF1FF"/>
<path d="M1014.85 446.389H1007.76V456.397H1014.85V446.389Z" fill="#EFF1FF"/>
<path d="M1001.88 446.389H994.793V456.397H1001.88V446.389Z" fill="#EFF1FF"/>
<path d="M989.609 446.389H982.523V456.397H989.609V446.389Z" fill="#EFF1FF"/>
<path d="M977.082 446.389H969.996V456.397H977.082V446.389Z" fill="#EFF1FF"/>
<path d="M1091.8 464.03H1084.71V474.037H1091.8V464.03Z" fill="#EFF1FF"/>
<path d="M1078.54 464.03H1071.46V474.037H1078.54V464.03Z" fill="#EFF1FF"/>
<path d="M1065.58 464.03H1058.49V474.037H1065.58V464.03Z" fill="#EFF1FF"/>
<path d="M1053.3 464.03H1046.22V474.037H1053.3V464.03Z" fill="#EFF1FF"/>
<path d="M1040.78 464.03H1033.69V474.037H1040.78V464.03Z" fill="#EFF1FF"/>
<path d="M1028.11 464.03H1021.02V474.037H1028.11V464.03Z" fill="#EFF1FF"/>
<path d="M1014.85 464.03H1007.76V474.037H1014.85V464.03Z" fill="#EFF1FF"/>
<path d="M1001.88 464.03H994.793V474.037H1001.88V464.03Z" fill="#EFF1FF"/>
<path d="M989.609 464.03H982.523V474.037H989.609V464.03Z" fill="#EFF1FF"/>
<path d="M977.082 464.03H969.996V474.037H977.082V464.03Z" fill="#EFF1FF"/>
<path d="M1091.8 481.378H1084.71V491.386H1091.8V481.378Z" fill="#EFF1FF"/>
<path d="M1078.54 481.378H1071.46V491.386H1078.54V481.378Z" fill="#EFF1FF"/>
<path d="M1065.58 481.378H1058.49V491.386H1065.58V481.378Z" fill="#EFF1FF"/>
<path d="M1053.3 481.378H1046.22V491.386H1053.3V481.378Z" fill="#EFF1FF"/>
<path d="M1040.78 481.378H1033.69V491.386H1040.78V481.378Z" fill="#EFF1FF"/>
<path d="M1028.11 481.378H1021.02V491.386H1028.11V481.378Z" fill="#EFF1FF"/>
<path d="M1014.85 481.378H1007.76V491.386H1014.85V481.378Z" fill="#EFF1FF"/>
<path d="M1001.88 481.378H994.793V491.386H1001.88V481.378Z" fill="#EFF1FF"/>
<path d="M989.609 481.378H982.523V491.386H989.609V481.378Z" fill="#EFF1FF"/>
<path d="M977.082 481.378H969.996V491.386H977.082V481.378Z" fill="#EFF1FF"/>
<path d="M1090.66 415.746H1084.71V426.046H1090.66V415.746Z" fill="#E3E5F5"/>
<path d="M1031.54 415.746H1025.58V426.046H1031.54V415.746Z" fill="#E3E5F5"/>
<path d="M984.492 415.746H978.539V426.046H984.492V415.746Z" fill="#E3E5F5"/>
<path d="M1248.19 419.398H1110.17V512.204H1248.19V419.398Z" fill="#E3E5F5"/>
<path d="M1248.19 407.273H1110.17V437.441H1248.19V407.273Z" fill="#EFF1FF"/>
<path d="M1238.77 446.389H1231.68V456.396H1238.77V446.389Z" fill="#EFF1FF"/>
<path d="M1225.51 446.389H1218.42V456.396H1225.51V446.389Z" fill="#EFF1FF"/>
<path d="M1212.58 446.389H1205.49V456.396H1212.58V446.389Z" fill="#EFF1FF"/>
<path d="M1200.27 446.389H1193.18V456.396H1200.27V446.389Z" fill="#EFF1FF"/>
<path d="M1187.74 446.389H1180.66V456.396H1187.74V446.389Z" fill="#EFF1FF"/>
<path d="M1175.11 446.389H1168.02V456.396H1175.11V446.389Z" fill="#EFF1FF"/>
<path d="M1161.85 446.389H1154.76V456.396H1161.85V446.389Z" fill="#EFF1FF"/>
<path d="M1148.88 446.389H1141.79V456.396H1148.88V446.389Z" fill="#EFF1FF"/>
<path d="M1136.61 446.389H1129.52V456.396H1136.61V446.389Z" fill="#EFF1FF"/>
<path d="M1124.08 446.389H1117V456.396H1124.08V446.389Z" fill="#EFF1FF"/>
<path d="M1238.77 464.03H1231.68V474.037H1238.77V464.03Z" fill="#EFF1FF"/>
<path d="M1225.51 464.03H1218.42V474.037H1225.51V464.03Z" fill="#EFF1FF"/>
<path d="M1212.58 464.03H1205.49V474.037H1212.58V464.03Z" fill="#EFF1FF"/>
<path d="M1200.27 464.03H1193.18V474.037H1200.27V464.03Z" fill="#EFF1FF"/>
<path d="M1187.74 464.03H1180.66V474.037H1187.74V464.03Z" fill="#EFF1FF"/>
<path d="M1175.11 464.03H1168.02V474.037H1175.11V464.03Z" fill="#EFF1FF"/>
<path d="M1161.85 464.03H1154.76V474.037H1161.85V464.03Z" fill="#EFF1FF"/>
<path d="M1148.88 464.03H1141.79V474.037H1148.88V464.03Z" fill="#EFF1FF"/>
<path d="M1136.61 464.03H1129.52V474.037H1136.61V464.03Z" fill="#EFF1FF"/>
<path d="M1124.08 464.03H1117V474.037H1124.08V464.03Z" fill="#EFF1FF"/>
<path d="M1238.77 481.378H1231.68V491.386H1238.77V481.378Z" fill="#EFF1FF"/>
<path d="M1225.51 481.378H1218.42V491.386H1225.51V481.378Z" fill="#EFF1FF"/>
<path d="M1212.58 481.378H1205.49V491.386H1212.58V481.378Z" fill="#EFF1FF"/>
<path d="M1200.27 481.378H1193.18V491.386H1200.27V481.378Z" fill="#EFF1FF"/>
<path d="M1187.74 481.378H1180.66V491.386H1187.74V481.378Z" fill="#EFF1FF"/>
<path d="M1175.11 481.378H1168.02V491.386H1175.11V481.378Z" fill="#EFF1FF"/>
<path d="M1161.85 481.378H1154.76V491.386H1161.85V481.378Z" fill="#EFF1FF"/>
<path d="M1148.88 481.378H1141.79V491.386H1148.88V481.378Z" fill="#EFF1FF"/>
<path d="M1136.61 481.378H1129.52V491.386H1136.61V481.378Z" fill="#EFF1FF"/>
<path d="M1124.08 481.378H1117V491.386H1124.08V481.378Z" fill="#EFF1FF"/>
<path d="M1237.63 415.746H1231.68V426.046H1237.63V415.746Z" fill="#E3E5F5"/>
<path d="M1178.5 415.746H1172.55V426.046H1178.5V415.746Z" fill="#E3E5F5"/>
<path d="M1131.5 415.746H1125.54V426.046H1131.5V415.746Z" fill="#E3E5F5"/>
<path d="M567.403 465.655C524.87 464.807 482.729 440.778 447.5 427C412.271 413.222 369.38 416.226 334.5 427C299.438 437.811 243.666 361.417 191 363C138.334 364.583 88.8705 405.563 72.5 436C56.1295 466.437 76.1279 493.631 87.5232 505.976L644.467 505.83C644.431 505.867 626.315 466.86 567.403 465.655Z" fill="#ACD29A"/>
<path d="M41 512C41 512 50.6263 486.163 95.2578 493.285C139.926 500.407 159.685 495.403 181.672 489.742C203.622 484.045 213.082 483.752 233.973 491.386C254.901 498.983 262.206 514.651 330.285 498.983C398.365 483.314 430.578 470.531 473.055 482.62C515.531 494.709 567.833 472.613 620.207 493.285C672.582 513.994 794 513 794 513L41 512Z" fill="#88B374"/>
</svg>
