<svg width="501" height="185" viewBox="0 0 501 185" fill="none" xmlns="http://www.w3.org/2000/svg">
<g clip-path="url(#clip0)">
<path d="M40.8716 155.603L458.48 155.603V93.7181L40.8716 93.7181V155.603Z" fill="#141316"/>
<path d="M476.397 47.2851C476.397 47.2851 465.075 49.2463 463.987 47.2851C462.898 45.324 368.403 7.8446 289.802 7.8446C226.877 7.8446 169.832 24.6232 114.528 61.4489C114.528 61.4489 42.2411 73.8694 25.4758 91.5195C25.4758 91.5195 3.9204 105.901 7.83957 138.369C10.2346 158.852 26.129 159.505 46.8135 159.07C46.8135 159.07 38.9752 97.4029 94.0612 101.979C140.873 105.901 131.946 162.992 131.946 162.992H366.225C366.225 162.992 367.314 137.715 368.185 131.396C370.145 118.975 385.386 98.9283 413.909 101.761C445.262 105.03 455.713 133.575 453.753 157.762C453.753 157.762 486.849 164.953 491.203 138.369L499.042 135.972C499.042 135.972 502.09 80.8423 474.438 57.7445L480.317 53.8222L476.397 47.2851Z" fill="#57599B"/>
<path d="M418.261 51.2074C418.261 51.2074 421.527 54.0401 418.261 57.5266C414.995 61.0131 399.1 72.7798 391.915 73.4336C384.512 74.0873 161.773 89.3405 148.491 85.4183C135.21 81.7139 127.589 74.9589 130.855 71.2545L136.734 69.2934L241.68 71.2545L418.261 51.2074Z" fill="#6E70B5"/>
<path d="M89.9235 109.823C69.4567 109.823 52.6914 126.602 52.6914 147.085C52.6914 167.568 69.4567 184.346 89.9235 184.346C110.608 184.346 127.156 167.568 127.156 147.085C127.156 126.602 110.39 109.823 89.9235 109.823ZM65.1021 147.085C65.1021 133.357 76.2064 122.244 89.9235 122.244C103.641 122.244 114.745 133.357 114.745 147.085C114.745 160.813 103.641 171.926 89.9235 171.926C76.2064 171.926 65.1021 160.813 65.1021 147.085Z" fill="#2A2530"/>
<path d="M89.9229 122.244C76.2059 122.244 65.1016 133.357 65.1016 147.085C65.1016 160.813 76.2059 171.926 89.9229 171.926C103.64 171.926 114.744 160.813 114.744 147.085C114.744 133.357 103.64 122.244 89.9229 122.244ZM70.1094 147.085C70.1094 136.19 79.0364 127.256 89.9229 127.256C101.027 127.256 109.737 136.19 109.737 147.085C109.737 157.98 100.81 166.914 89.9229 166.914C78.8186 166.914 70.1094 158.198 70.1094 147.085Z" fill="#F0EAE8"/>
<path d="M89.9268 127.256C79.0403 127.256 70.1133 136.19 70.1133 147.085C70.1133 157.98 79.0403 166.914 89.9268 166.914C101.031 166.914 109.74 157.98 109.74 147.085C109.74 136.19 100.813 127.256 89.9268 127.256Z" fill="#D3D0CF"/>
<path d="M495.557 97.4028C495.557 97.4028 482.275 101.325 476.832 91.0836C471.388 80.8422 465.074 69.947 465.074 67.768C465.074 64.9352 467.469 55.7833 474.437 57.7444C474.437 57.7444 494.25 75.8304 495.557 97.4028Z" fill="#E7E0DB"/>
<path d="M19.8135 109.605C19.8135 109.605 69.8917 89.3405 61.8356 82.5854C57.6987 79.099 16.3298 98.9282 19.8135 109.605Z" fill="#E7E0DB"/>
<path opacity="0.56" d="M144.574 162.992C144.792 161.249 149.364 85.8541 85.5689 92.1733C30.0474 97.8388 37.0148 159.288 37.0148 159.288" stroke="#3C4278" stroke-miterlimit="10"/>
<path d="M416.087 51.2073C416.087 51.2073 396.709 68.2037 388.217 68.2037C379.726 68.2037 157.422 82.1496 147.406 78.0094C137.391 74.0871 132.383 70.8186 132.383 70.8186C132.383 70.8186 217.08 20.7008 289.367 20.7008C351.638 20.7008 416.087 51.2073 416.087 51.2073Z" fill="#103952"/>
<path opacity="0.56" d="M267.16 78.0094L265.418 150.789H177.672C169.181 150.789 161.342 145.777 158.294 137.715V137.497C154.593 127.256 151.98 104.158 159.6 78.2273" stroke="#3C4278" stroke-miterlimit="10"/>
<path d="M491.206 138.369L452.668 142.945L453.321 158.416C453.321 158.416 472.482 161.031 480.755 155.147C489.029 149.482 491.206 143.163 491.206 138.369Z" fill="#2A2730"/>
<path d="M89.9217 153.186C93.1685 153.186 95.8005 150.552 95.8005 147.303C95.8005 144.054 93.1685 141.419 89.9217 141.419C86.675 141.419 84.043 144.054 84.043 147.303C84.043 150.552 86.675 153.186 89.9217 153.186Z" fill="#7F8287"/>
<path d="M407.373 109.823C386.906 109.823 370.141 126.602 370.141 147.085C370.141 167.568 386.906 184.346 407.373 184.346C428.057 184.346 444.605 167.568 444.605 147.085C444.605 126.602 428.057 109.823 407.373 109.823ZM382.551 147.085C382.551 133.357 393.656 122.244 407.373 122.244C421.09 122.244 432.194 133.357 432.194 147.085C432.194 160.813 421.09 171.926 407.373 171.926C393.656 171.926 382.551 160.813 382.551 147.085Z" fill="#2A2530"/>
<path d="M407.372 122.244C393.655 122.244 382.551 133.357 382.551 147.085C382.551 160.813 393.655 171.926 407.372 171.926C421.089 171.926 432.193 160.813 432.193 147.085C432.193 133.357 421.089 122.244 407.372 122.244ZM387.559 147.085C387.559 136.19 396.486 127.256 407.372 127.256C418.476 127.256 427.186 136.19 427.186 147.085C427.186 157.98 418.259 166.914 407.372 166.914C396.486 166.914 387.559 158.198 387.559 147.085Z" fill="#F0EAE8"/>
<path d="M407.376 127.256C396.49 127.256 387.562 136.19 387.562 147.085C387.562 157.98 396.49 166.914 407.376 166.914C418.48 166.914 427.19 157.98 427.19 147.085C427.407 136.19 418.48 127.256 407.376 127.256Z" fill="#D3D0CF"/>
<path d="M412.605 54.2579C412.605 54.2579 343.802 25.4947 290.24 25.4947C240.597 25.4947 131.078 71.4723 131.078 71.4723L133.691 66.0247C133.691 66.0247 234.936 10.4594 291.111 16.9965C347.285 23.5336 420.008 47.285 420.008 47.285L412.605 54.2579Z" fill="#0B2938"/>
<path d="M175.056 51.2074C175.056 53.6043 162.645 78.8811 162.645 78.8811H155.242L165.258 54.6939L175.056 51.2074Z" fill="#2A2730"/>
<path opacity="0.56" d="M370.147 66.4607C370.147 66.4607 385.17 75.8305 376.461 94.1344C367.752 112.438 359.26 114.399 357.301 127.474C355.341 140.548 355.994 150.789 355.994 150.789H265.418L267.16 74.741" stroke="#3C4278" stroke-miterlimit="10"/>
<path d="M336.397 93.6986H362.743V91.0838C362.743 88.9047 361.001 87.1615 358.824 87.1615H340.099C337.922 87.1615 336.18 88.9047 336.18 91.0838V93.6986H336.397Z" fill="#6E70B5"/>
<path d="M233.628 93.6986H259.973V91.0838C259.973 88.9047 258.232 87.1615 256.054 87.1615H237.329C235.152 87.1615 233.41 88.9047 233.41 91.0838V93.6986H233.628Z" fill="#6E70B5"/>
<path d="M350.549 28.7633L374.282 68.8575L352.726 69.947L355.557 51.2073L340.969 26.5842L350.549 28.7633Z" fill="#2A2730"/>
<path opacity="0.35" d="M278.913 21.1367L307.653 72.1261L301.121 72.7798L271.074 21.7904L278.913 21.1367Z" fill="#1E5B7A"/>
<path opacity="0.35" d="M213.381 34.8645L238.203 76.2661L217.736 77.1377L194.656 41.4016C194.656 41.4016 208.809 34.4287 213.381 34.8645Z" fill="#1E5B7A"/>
<path opacity="0.35" d="M305.699 21.3546L336.399 71.2545L316.804 72.1261L285.668 20.7009L305.699 21.3546Z" fill="#1E5B7A"/>
<path d="M271.51 74.523L263.672 74.7409L267.156 22.2262L274.776 21.3546" fill="#2A2730"/>
<path d="M407.379 152.968C410.626 152.968 413.258 150.334 413.258 147.085C413.258 143.835 410.626 141.201 407.379 141.201C404.132 141.201 401.5 143.835 401.5 147.085C401.5 150.334 404.132 152.968 407.379 152.968Z" fill="#7F8287"/>
<path d="M497.083 110.041L498.825 109.823C500.349 109.605 501.22 108.298 501.002 106.773L500.349 103.286C500.131 101.761 498.825 100.889 497.3 101.107L495.559 101.325L497.083 110.041Z" fill="#EAB042"/>
<path d="M166.999 86.7257L170.265 83.2393L165.039 76.4843L160.467 80.8423C160.467 80.8423 159.596 81.496 159.378 83.2393C158.725 87.5973 164.168 89.9943 166.999 86.7257Z" fill="#2A2730"/>
<path d="M180.716 85.6361C188.772 85.854 195.304 77.5737 191.82 70.165C190.949 68.4217 189.643 67.1143 187.465 66.6785C178.974 65.1532 168.087 64.7174 165.039 76.7021C164.168 80.1885 166.128 82.3676 169.394 83.675C172.442 84.9824 176.796 85.4182 180.716 85.6361Z" fill="#57599B"/>
</g>
<defs>
<clipPath id="clip0">
<rect y="0.00012207" width="501" height="185" fill="white"/>
</clipPath>
</defs>
</svg>
