<svg width="245" height="232" viewBox="0 0 245 232" fill="none" xmlns="http://www.w3.org/2000/svg">
<path d="M90.5195 105.465L81.3448 113.127" stroke="#F1F0EF" stroke-width="2.3245" stroke-miterlimit="10" stroke-linecap="round"/>
<path d="M76.1055 117.504L66.9307 125.166" stroke="#F1F0EF" stroke-width="2.3245" stroke-miterlimit="10" stroke-linecap="round"/>
<path d="M88.5758 127.112L80.9141 117.937" stroke="#F1F0EF" stroke-width="2.3245" stroke-miterlimit="10" stroke-linecap="round"/>
<path d="M76.5407 112.694L68.8789 103.52" stroke="#F1F0EF" stroke-width="2.3245" stroke-miterlimit="10" stroke-linecap="round"/>
<path d="M223.879 86.0891L212.301 95.7576" stroke="#F1F0EF" stroke-width="2.1935" stroke-miterlimit="10" stroke-linecap="round"/>
<path d="M205.676 101.292L194.098 110.96" stroke="#F1F0EF" stroke-width="2.1935" stroke-miterlimit="10" stroke-linecap="round"/>
<path d="M196.484 83.6277L206.214 95.2781" stroke="#F1F0EF" stroke-width="2.1935" stroke-miterlimit="10" stroke-linecap="round"/>
<path d="M211.691 101.832L221.421 113.482" stroke="#F1F0EF" stroke-width="2.1935" stroke-miterlimit="10" stroke-linecap="round"/>
<path d="M210.434 82.9944L209.341 95.1541" stroke="#F1F0EF" stroke-width="2.1935" stroke-miterlimit="10" stroke-linecap="round"/>
<path d="M208.727 101.968L207.634 114.128" stroke="#F1F0EF" stroke-width="2.1935" stroke-miterlimit="10" stroke-linecap="round"/>
<path d="M193.468 97.1627L205.627 98.2553" stroke="#F1F0EF" stroke-width="2.1935" stroke-miterlimit="10" stroke-linecap="round"/>
<path d="M212.444 98.8675L224.604 99.9602" stroke="#F1F0EF" stroke-width="2.1935" stroke-miterlimit="10" stroke-linecap="round"/>
<path d="M128.996 148.147L124.117 152.221" stroke="#F1F0EF" stroke-width="0.9159" stroke-miterlimit="10" stroke-linecap="round"/>
<path d="M121.352 154.531L116.473 158.606" stroke="#F1F0EF" stroke-width="0.9159" stroke-miterlimit="10" stroke-linecap="round"/>
<path d="M117.504 147.114L121.578 151.993" stroke="#F1F0EF" stroke-width="0.9159" stroke-miterlimit="10" stroke-linecap="round"/>
<path d="M123.887 154.76L127.9 159.565" stroke="#F1F0EF" stroke-width="0.9159" stroke-miterlimit="10" stroke-linecap="round"/>
<path d="M123.32 146.829L122.864 151.906" stroke="#F1F0EF" stroke-width="0.9159" stroke-miterlimit="10" stroke-linecap="round"/>
<path d="M122.539 154.773L122.083 159.851" stroke="#F1F0EF" stroke-width="0.9159" stroke-miterlimit="10" stroke-linecap="round"/>
<path d="M116.186 152.788L121.264 153.244" stroke="#F1F0EF" stroke-width="0.9159" stroke-miterlimit="10" stroke-linecap="round"/>
<path d="M124.139 153.435L129.217 153.892" stroke="#F1F0EF" stroke-width="0.9159" stroke-miterlimit="10" stroke-linecap="round"/>
<path d="M48.4531 167.543L43.5745 171.617" stroke="#F1F0EF" stroke-width="0.9159" stroke-miterlimit="10" stroke-linecap="round"/>
<path d="M40.8086 173.927L36.0028 177.941" stroke="#F1F0EF" stroke-width="0.9159" stroke-miterlimit="10" stroke-linecap="round"/>
<path d="M36.9609 166.51L41.0351 171.389" stroke="#F1F0EF" stroke-width="0.9159" stroke-miterlimit="10" stroke-linecap="round"/>
<path d="M43.3438 174.156L47.4179 179.034" stroke="#F1F0EF" stroke-width="0.9159" stroke-miterlimit="10" stroke-linecap="round"/>
<path d="M42.7812 166.225L42.325 171.303" stroke="#F1F0EF" stroke-width="0.9159" stroke-miterlimit="10" stroke-linecap="round"/>
<path d="M42.0586 174.242L41.6023 179.32" stroke="#F1F0EF" stroke-width="0.9159" stroke-miterlimit="10" stroke-linecap="round"/>
<path d="M35.6432 172.184L40.7209 172.64" stroke="#F1F0EF" stroke-width="0.9159" stroke-miterlimit="10" stroke-linecap="round"/>
<path d="M43.6627 172.904L48.7404 173.361" stroke="#F1F0EF" stroke-width="0.9159" stroke-miterlimit="10" stroke-linecap="round"/>
<path d="M204.109 45.249L199.304 49.2623" stroke="#F1F0EF" stroke-width="0.9159" stroke-miterlimit="10" stroke-linecap="round"/>
<path d="M196.535 51.573L191.657 55.6471" stroke="#F1F0EF" stroke-width="0.9159" stroke-miterlimit="10" stroke-linecap="round"/>
<path d="M192.75 44.2283L196.824 49.1069" stroke="#F1F0EF" stroke-width="0.9159" stroke-miterlimit="10" stroke-linecap="round"/>
<path d="M199.07 51.801L203.144 56.6797" stroke="#F1F0EF" stroke-width="0.9159" stroke-miterlimit="10" stroke-linecap="round"/>
<path d="M198.57 43.9431L198.114 49.0208" stroke="#F1F0EF" stroke-width="0.9159" stroke-miterlimit="10" stroke-linecap="round"/>
<path d="M197.789 51.8877L197.333 56.9654" stroke="#F1F0EF" stroke-width="0.9159" stroke-miterlimit="10" stroke-linecap="round"/>
<path d="M191.436 49.9025L196.514 50.3588" stroke="#F1F0EF" stroke-width="0.9159" stroke-miterlimit="10" stroke-linecap="round"/>
<path d="M199.389 50.55L204.467 51.0062" stroke="#F1F0EF" stroke-width="0.9159" stroke-miterlimit="10" stroke-linecap="round"/>
<path d="M161.703 119.229C163.584 121.481 166.934 121.782 169.186 119.901C171.438 118.02 171.739 114.67 169.858 112.418C167.978 110.166 164.627 109.865 162.375 111.746C160.123 113.626 159.822 116.977 161.703 119.229Z" stroke="#F1F0EF" stroke-width="2.1935" stroke-miterlimit="10" stroke-linecap="round"/>
<path d="M5.49992 141.227C7.38058 143.479 10.7308 143.78 12.9828 141.899C15.2348 140.018 15.5359 136.668 13.6552 134.416C11.7746 132.164 8.42437 131.863 6.17234 133.744C3.92031 135.624 3.61926 138.974 5.49992 141.227Z" stroke="#F1F0EF" stroke-width="2.1935" stroke-miterlimit="10" stroke-linecap="round"/>
<path d="M161.812 143.484L156.715 147.74" stroke="#F1F0EF" stroke-width="1.2747" stroke-miterlimit="10" stroke-linecap="round"/>
<path d="M153.875 150.112L148.851 154.308" stroke="#F1F0EF" stroke-width="1.2747" stroke-miterlimit="10" stroke-linecap="round"/>
<path d="M149.98 142.488L154.176 147.512" stroke="#F1F0EF" stroke-width="1.2747" stroke-miterlimit="10" stroke-linecap="round"/>
<path d="M156.547 150.352L160.743 155.377" stroke="#F1F0EF" stroke-width="1.2747" stroke-miterlimit="10" stroke-linecap="round"/>
<path d="M93.3253 175.586C95.0044 177.597 97.9957 177.866 100.006 176.187C102.017 174.508 102.286 171.516 100.607 169.506C98.9276 167.495 95.9364 167.226 93.9256 168.905C91.9149 170.584 91.6461 173.576 93.3253 175.586Z" stroke="#F1F0EF" stroke-width="1.9505" stroke-miterlimit="10" stroke-linecap="round"/>
</svg>
