<svg width="202" height="243" viewBox="0 0 202 243" fill="none" xmlns="http://www.w3.org/2000/svg">
<path d="M133.484 125.697L138.55 136.339" stroke="#F1F0EF" stroke-width="2.3245" stroke-miterlimit="10" stroke-linecap="round"/>
<path d="M141.445 142.42L146.511 153.061" stroke="#F1F0EF" stroke-width="2.3245" stroke-miterlimit="10" stroke-linecap="round"/>
<path d="M126.315 145.893L136.957 140.827" stroke="#F1F0EF" stroke-width="2.3245" stroke-miterlimit="10" stroke-linecap="round"/>
<path d="M143.042 137.932L153.684 132.866" stroke="#F1F0EF" stroke-width="2.3245" stroke-miterlimit="10" stroke-linecap="round"/>
<path d="M21.9766 53.4358L28.3693 66.8647" stroke="#F1F0EF" stroke-width="2.1935" stroke-miterlimit="10" stroke-linecap="round"/>
<path d="M32.0234 74.5503L38.4162 87.9792" stroke="#F1F0EF" stroke-width="2.1935" stroke-miterlimit="10" stroke-linecap="round"/>
<path d="M47.5312 62.5083L34.0179 68.9412" stroke="#F1F0EF" stroke-width="2.1935" stroke-miterlimit="10" stroke-linecap="round"/>
<path d="M26.418 72.5588L12.9046 78.9918" stroke="#F1F0EF" stroke-width="2.1935" stroke-miterlimit="10" stroke-linecap="round"/>
<path d="M35.3125 56.2046L31.2855 67.549" stroke="#F1F0EF" stroke-width="2.1935" stroke-miterlimit="10" stroke-linecap="round"/>
<path d="M29.0273 73.9067L25.0003 85.2512" stroke="#F1F0EF" stroke-width="2.1935" stroke-miterlimit="10" stroke-linecap="round"/>
<path d="M44.6783 75.8835L33.3338 71.8565" stroke="#F1F0EF" stroke-width="2.1935" stroke-miterlimit="10" stroke-linecap="round"/>
<path d="M26.979 69.5995L15.6346 65.5725" stroke="#F1F0EF" stroke-width="2.1935" stroke-miterlimit="10" stroke-linecap="round"/>
<path d="M81.4531 148.1L84.1469 153.759" stroke="#F1F0EF" stroke-width="0.9159" stroke-miterlimit="10" stroke-linecap="round"/>
<path d="M85.6758 156.968L88.3696 162.627" stroke="#F1F0EF" stroke-width="0.9159" stroke-miterlimit="10" stroke-linecap="round"/>
<path d="M92.1719 151.906L86.5132 154.6" stroke="#F1F0EF" stroke-width="0.9159" stroke-miterlimit="10" stroke-linecap="round"/>
<path d="M83.3086 156.127L77.7343 158.781" stroke="#F1F0EF" stroke-width="0.9159" stroke-miterlimit="10" stroke-linecap="round"/>
<path d="M87.0781 149.256L85.3965 153.993" stroke="#F1F0EF" stroke-width="0.9159" stroke-miterlimit="10" stroke-linecap="round"/>
<path d="M84.5039 156.695L82.8223 161.432" stroke="#F1F0EF" stroke-width="0.9159" stroke-miterlimit="10" stroke-linecap="round"/>
<path d="M91.02 157.533L86.2828 155.851" stroke="#F1F0EF" stroke-width="0.9159" stroke-miterlimit="10" stroke-linecap="round"/>
<path d="M83.6216 154.838L78.8843 153.156" stroke="#F1F0EF" stroke-width="0.9159" stroke-miterlimit="10" stroke-linecap="round"/>
<path d="M145.625 198.638L148.319 204.296" stroke="#F1F0EF" stroke-width="0.9159" stroke-miterlimit="10" stroke-linecap="round"/>
<path d="M149.848 207.506L152.501 213.08" stroke="#F1F0EF" stroke-width="0.9159" stroke-miterlimit="10" stroke-linecap="round"/>
<path d="M156.344 202.444L150.685 205.137" stroke="#F1F0EF" stroke-width="0.9159" stroke-miterlimit="10" stroke-linecap="round"/>
<path d="M147.48 206.665L141.822 209.359" stroke="#F1F0EF" stroke-width="0.9159" stroke-miterlimit="10" stroke-linecap="round"/>
<path d="M151.254 199.794L149.572 204.531" stroke="#F1F0EF" stroke-width="0.9159" stroke-miterlimit="10" stroke-linecap="round"/>
<path d="M148.594 207.273L146.912 212.01" stroke="#F1F0EF" stroke-width="0.9159" stroke-miterlimit="10" stroke-linecap="round"/>
<path d="M155.196 208.07L150.459 206.389" stroke="#F1F0EF" stroke-width="0.9159" stroke-miterlimit="10" stroke-linecap="round"/>
<path d="M147.715 205.415L142.978 203.733" stroke="#F1F0EF" stroke-width="0.9159" stroke-miterlimit="10" stroke-linecap="round"/>
<path d="M56.5078 24.9841L59.1614 30.5584" stroke="#F1F0EF" stroke-width="0.9159" stroke-miterlimit="10" stroke-linecap="round"/>
<path d="M60.6914 33.7678L63.3852 39.4265" stroke="#F1F0EF" stroke-width="0.9159" stroke-miterlimit="10" stroke-linecap="round"/>
<path d="M67.1016 28.7458L61.4428 31.4396" stroke="#F1F0EF" stroke-width="0.9159" stroke-miterlimit="10" stroke-linecap="round"/>
<path d="M58.3203 32.9272L52.6616 35.621" stroke="#F1F0EF" stroke-width="0.9159" stroke-miterlimit="10" stroke-linecap="round"/>
<path d="M62.0078 26.0955L60.3262 30.8327" stroke="#F1F0EF" stroke-width="0.9159" stroke-miterlimit="10" stroke-linecap="round"/>
<path d="M59.4336 33.5349L57.752 38.2722" stroke="#F1F0EF" stroke-width="0.9159" stroke-miterlimit="10" stroke-linecap="round"/>
<path d="M65.9497 34.3732L61.2125 32.6916" stroke="#F1F0EF" stroke-width="0.9159" stroke-miterlimit="10" stroke-linecap="round"/>
<path d="M58.5513 31.6777L53.814 29.9961" stroke="#F1F0EF" stroke-width="0.9159" stroke-miterlimit="10" stroke-linecap="round"/>
<path d="M64.0468 108.727C61.4347 109.97 58.3091 108.861 57.0656 106.249C55.8221 103.636 56.9316 100.511 59.5438 99.2674C62.1559 98.0239 65.2815 99.1334 66.525 101.746C67.7684 104.358 66.6589 107.483 64.0468 108.727Z" stroke="#F1F0EF" stroke-width="2.1935" stroke-miterlimit="10" stroke-linecap="round"/>
<path d="M194.941 192.741C192.329 193.984 189.204 192.875 187.96 190.263C186.717 187.65 187.826 184.525 190.438 183.281C193.05 182.038 196.176 183.147 197.419 185.759C198.663 188.372 197.553 191.497 194.941 192.741Z" stroke="#F1F0EF" stroke-width="2.1935" stroke-miterlimit="10" stroke-linecap="round"/>
<path d="M53.9648 130.414L56.7793 136.326" stroke="#F1F0EF" stroke-width="1.2747" stroke-miterlimit="10" stroke-linecap="round"/>
<path d="M58.3438 139.62L61.118 145.448" stroke="#F1F0EF" stroke-width="1.2747" stroke-miterlimit="10" stroke-linecap="round"/>
<path d="M64.9727 134.393L59.145 137.167" stroke="#F1F0EF" stroke-width="1.2747" stroke-miterlimit="10" stroke-linecap="round"/>
<path d="M55.8555 138.735L50.0278 141.509" stroke="#F1F0EF" stroke-width="1.2747" stroke-miterlimit="10" stroke-linecap="round"/>
<path d="M102.11 187.37C99.7779 188.48 96.9872 187.489 95.8769 185.157C94.7667 182.825 95.7573 180.034 98.0896 178.924C100.422 177.814 103.213 178.804 104.323 181.136C105.433 183.469 104.442 186.259 102.11 187.37Z" stroke="#F1F0EF" stroke-width="1.9505" stroke-miterlimit="10" stroke-linecap="round"/>
</svg>
