<svg width="603" height="588" viewBox="0 0 603 588" fill="none" xmlns="http://www.w3.org/2000/svg">
<path d="M235.777 201.582C235.777 201.582 289.758 207.038 297.975 209.96C306.619 212.636 449.648 393.642 449.648 393.642L234.833 252.132L235.777 201.582Z" fill="url(#paint0_linear)"/>
<path d="M235.777 201.582C235.777 201.582 289.758 207.038 297.975 209.96C306.619 212.636 449.648 393.642 449.648 393.642L234.833 252.132L235.777 201.582Z" fill="#F4C38B"/>
<rect x="212.41" y="66" width="265.158" height="115.731" transform="rotate(76.236 212.41 66)" fill="#F9EBF4"/>
<rect opacity="0.1" x="212.41" y="66" width="265.158" height="13.5067" transform="rotate(76.236 212.41 66)" fill="#911368"/>
<rect opacity="0.3" x="227.359" y="127.037" width="149" height="115.731" transform="rotate(76.236 227.359 127.037)" fill="#911368"/>
<rect opacity="0.1" x="123.34" y="87.8186" width="265.158" height="24.0277" transform="rotate(76.236 123.34 87.8186)" fill="#911368"/>
<path opacity="0.2" d="M208.917 89.9833L207.204 93.7935L207.694 97.9423L203.789 99.4253L201.202 102.705L197.391 100.992L193.243 101.482L191.76 97.5769L188.48 94.9897L190.192 91.1794L189.703 87.0307L193.608 85.5476L196.195 82.2676L200.005 83.9805L204.154 83.4906L205.637 87.3961L208.917 89.9833Z" fill="#911368"/>
<path opacity="0.2" d="M214.937 114.564L213.224 118.374L213.714 122.523L209.808 124.006L207.221 127.286L203.411 125.573L199.262 126.063L197.779 122.158L194.499 119.57L196.212 115.76L195.722 111.611L199.628 110.128L202.215 106.848L206.025 108.561L210.174 108.071L211.657 111.977L214.937 114.564Z" fill="#911368"/>
<path opacity="0.2" d="M211.929 102.274L210.216 106.084L210.706 110.233L206.801 111.716L204.213 114.996L200.403 113.283L196.254 113.773L194.771 109.867L191.491 107.28L193.204 103.47L192.714 99.321L196.62 97.8379L199.207 94.5579L203.017 96.2708L207.166 95.7809L208.649 99.6864L211.929 102.274Z" fill="#911368"/>
<path d="M194.08 91.7153C194.726 94.3529 196.878 95.6114 198.798 95.1412C200.483 94.7285 201.255 93.2218 200.822 91.4542C200.741 91.1228 200.618 90.8015 200.472 90.5008L202.25 90.6506L203.214 94.5863L205.204 94.6406L203.769 88.7854L198.816 88.4033L198.21 89.6935C198.45 90.0153 198.73 90.5029 198.832 90.9172C199.133 92.1462 198.719 92.8477 198.029 93.0168C197.214 93.2164 196.324 92.5708 196.043 91.4246C195.823 90.527 196.006 89.721 196.552 88.8994L194.93 87.7158C194.111 88.6189 193.738 90.3205 194.08 91.7153ZM196.13 100.147C196.932 103.42 200.561 104.551 203.378 103.861C205.809 103.266 207.028 101.371 206.473 99.1067C205.672 95.8339 202.042 94.7028 199.225 95.3929C196.795 95.9882 195.576 97.8825 196.13 100.147ZM198.09 99.8427C197.83 98.7794 198.379 97.913 199.746 97.5781C201.541 97.1384 204.09 97.685 204.513 99.4111C204.774 100.474 204.225 101.341 202.858 101.676C201.062 102.115 198.513 101.569 198.09 99.8427ZM198.314 109.061C199.115 112.333 202.745 113.464 205.562 112.774C207.992 112.179 209.212 110.285 208.657 108.02C207.855 104.747 204.226 103.616 201.409 104.306C198.978 104.902 197.759 106.796 198.314 109.061ZM200.274 108.756C200.013 107.693 200.562 106.826 201.929 106.492C203.725 106.052 206.274 106.598 206.697 108.325C206.957 109.388 206.408 110.254 205.041 110.589C203.246 111.029 200.697 110.482 200.274 108.756ZM200.497 117.974C201.299 121.247 204.928 122.378 207.745 121.688C210.176 121.093 211.395 119.198 210.84 116.934C210.038 113.661 206.409 112.53 203.592 113.22C201.162 113.815 199.942 115.709 200.497 117.974ZM202.457 117.67C202.197 116.606 202.746 115.74 204.113 115.405C205.908 114.965 208.457 115.512 208.88 117.238C209.141 118.301 208.592 119.168 207.224 119.503C205.429 119.942 202.88 119.396 202.457 117.67Z" fill="#911368"/>
<path opacity="0.2" d="M255.089 278.48L253.376 282.29L253.866 286.439L249.961 287.922L247.373 291.202L243.563 289.489L239.414 289.979L237.931 286.074L234.651 283.486L236.364 279.676L235.874 275.527L239.78 274.044L242.367 270.764L246.177 272.477L250.326 271.987L251.809 275.893L255.089 278.48Z" fill="#911368"/>
<path opacity="0.2" d="M261.113 303.061L259.4 306.871L259.89 311.02L255.984 312.503L253.397 315.783L249.587 314.07L245.438 314.56L243.955 310.655L240.675 308.067L242.388 304.257L241.898 300.108L245.803 298.625L248.391 295.345L252.201 297.058L256.35 296.568L257.833 300.474L261.113 303.061Z" fill="#911368"/>
<path opacity="0.2" d="M258.101 290.771L256.388 294.581L256.878 298.73L252.972 300.213L250.385 303.493L246.575 301.78L242.426 302.27L240.943 298.364L237.663 295.777L239.376 291.967L238.886 287.818L242.792 286.335L245.379 283.055L249.189 284.768L253.338 284.278L254.821 288.183L258.101 290.771Z" fill="#911368"/>
<path d="M240.251 280.212C240.898 282.85 243.05 284.108 244.97 283.638C246.654 283.225 247.427 281.719 246.994 279.951C246.913 279.62 246.79 279.298 246.643 278.998L248.422 279.147L249.386 283.083L251.376 283.137L249.941 277.282L244.988 276.9L244.382 278.19C244.622 278.512 244.902 279 245.004 279.414C245.305 280.643 244.891 281.345 244.2 281.514C243.386 281.713 242.496 281.068 242.215 279.921C241.995 279.024 242.178 278.218 242.723 277.396L241.101 276.213C240.283 277.116 239.91 278.817 240.251 280.212ZM242.302 288.644C243.104 291.917 246.733 293.048 249.55 292.358C251.981 291.762 253.2 289.868 252.645 287.603C251.844 284.331 248.214 283.2 245.397 283.89C242.967 284.485 241.747 286.379 242.302 288.644ZM244.262 288.34C244.002 287.276 244.551 286.41 245.918 286.075C247.713 285.635 250.262 286.182 250.685 287.908C250.946 288.971 250.397 289.838 249.03 290.173C247.234 290.612 244.685 290.066 244.262 288.34ZM244.486 297.557C245.287 300.83 248.917 301.961 251.734 301.271C254.164 300.676 255.383 298.782 254.829 296.517C254.027 293.244 250.398 292.113 247.581 292.803C245.15 293.399 243.931 295.293 244.486 297.557ZM246.446 297.253C246.185 296.19 246.734 295.323 248.101 294.988C249.897 294.549 252.446 295.095 252.869 296.821C253.129 297.885 252.58 298.751 251.213 299.086C249.418 299.526 246.869 298.979 246.446 297.253ZM246.669 306.471C247.471 309.744 251.1 310.875 253.917 310.185C256.347 309.589 257.567 307.695 257.012 305.43C256.21 302.158 252.581 301.027 249.764 301.717C247.334 302.312 246.114 304.206 246.669 306.471ZM248.629 306.166C248.369 305.103 248.918 304.237 250.285 303.902C252.08 303.462 254.629 304.009 255.052 305.735C255.312 306.798 254.763 307.665 253.396 307.999C251.601 308.439 249.052 307.893 248.629 306.166Z" fill="#911368"/>
<path opacity="0.5" d="M149.937 259.592C151.026 264.039 154.333 266.303 158.42 265.302C162.839 264.219 163.925 260.762 163.005 257.006C162.741 255.929 162.434 255.272 162.051 254.546L165.447 253.949L167.463 262.179L171.191 261.266L168.282 249.39L158.619 251.171L157.591 254.029C158.201 254.845 158.803 255.869 159.101 257.084C159.595 259.1 158.973 260.746 157.316 261.152C155.548 261.585 154.277 260.578 153.79 258.59C153.371 256.878 153.792 255.252 154.759 253.463L151.065 251.646C149.729 253.964 149.179 256.499 149.937 259.592ZM153.972 276.064C155.237 281.228 160.474 283.605 166.081 282.232C171.742 280.845 175.233 276.33 173.981 271.221C172.723 266.084 167.479 263.679 161.873 265.053C156.211 266.44 152.707 270.899 153.972 276.064ZM157.824 275.178C157.195 272.61 159.406 270.282 162.942 269.416C166.532 268.537 169.506 269.565 170.129 272.106C170.751 274.647 168.519 277.009 165.012 277.868C161.449 278.741 158.454 277.747 157.824 275.178ZM158.288 293.683C159.553 298.848 164.79 301.225 170.397 299.851C176.059 298.464 179.549 293.95 178.297 288.84C177.039 283.703 171.795 281.299 166.189 282.673C160.527 284.059 157.023 288.519 158.288 293.683ZM162.141 292.798C161.511 290.23 163.722 287.902 167.258 287.036C170.848 286.157 173.822 287.185 174.445 289.726C175.067 292.267 172.835 294.628 169.328 295.488C165.765 296.36 162.77 295.367 162.141 292.798ZM162.604 311.303C163.869 316.468 169.106 318.844 174.713 317.471C180.375 316.084 183.865 311.57 182.614 306.46C181.355 301.323 176.111 298.919 170.505 300.292C164.843 301.679 161.339 306.138 162.604 311.303ZM166.457 310.418C165.827 307.849 168.039 305.522 171.574 304.656C175.164 303.777 178.139 304.804 178.761 307.345C179.383 309.886 177.152 312.248 173.644 313.107C170.081 313.98 167.086 312.987 166.457 310.418Z" fill="#911368"/>
<path opacity="0.5" d="M153.515 163.88L155.326 171.271L165.489 168.782L163.678 161.391L173.956 158.873L175.767 166.264L212.838 157.183L219.74 185.362C221.664 193.215 220.989 199.787 217.715 205.077C214.44 210.368 209.262 213.881 202.179 215.616C195.018 217.37 188.697 216.552 183.215 213.161C177.828 209.829 174.221 204.429 172.391 196.96L168.487 181.023L158.325 183.513L163.162 203.261L154.385 205.411L149.548 185.663L136.613 188.831L133.615 176.59L146.549 173.421L144.738 166.03L153.515 163.88ZM182.415 193.403C183.396 197.407 185.362 200.271 188.315 201.996C191.344 203.702 194.938 204.046 199.095 203.028C202.945 202.085 205.741 200.176 207.485 197.3C209.248 194.502 209.63 191.062 208.63 186.982L204.981 172.084L178.766 178.506L182.415 193.403Z" fill="#911368"/>
<rect x="291.645" y="58" width="265.158" height="115.731" transform="rotate(87.7825 291.645 58)" fill="#FFF7FC"/>
<rect opacity="0.1" x="291.645" y="58" width="265.158" height="13.5067" transform="rotate(87.7825 291.645 58)" fill="#911368"/>
<rect opacity="0.3" x="294.074" y="120.794" width="149" height="115.731" transform="rotate(87.7825 294.074 120.794)" fill="#911368"/>
<rect opacity="0.1" x="200.008" y="61.5483" width="265.158" height="24.0277" transform="rotate(87.7825 200.008 61.5483)" fill="#911368"/>
<path opacity="0.2" d="M283.423 80.7988L280.982 84.189L280.631 88.3519L276.508 89.0232L273.317 91.719L269.926 89.2781L265.764 88.9276L265.092 84.8043L262.396 81.6129L264.837 78.2226L265.188 74.0598L269.311 73.3885L272.503 70.6927L275.893 73.1336L280.056 73.4841L280.727 77.6074L283.423 80.7988Z" fill="#911368"/>
<path opacity="0.2" d="M284.399 106.087L281.958 109.477L281.608 113.64L277.485 114.312L274.293 117.007L270.903 114.566L266.74 114.216L266.069 110.093L263.373 106.901L265.814 103.511L266.164 99.3481L270.288 98.6768L273.479 95.9811L276.869 98.422L281.032 98.7724L281.704 102.896L284.399 106.087Z" fill="#911368"/>
<path opacity="0.2" d="M283.911 93.4433L281.47 96.8336L281.12 100.996L276.996 101.668L273.805 104.363L270.415 101.923L266.252 101.572L265.581 97.4489L262.885 94.2575L265.326 90.8672L265.676 86.7043L269.799 86.033L272.991 83.3373L276.381 85.7782L280.544 86.1286L281.215 90.2519L283.911 93.4433Z" fill="#911368"/>
<path opacity="0.5" d="M268.536 79.5254C268.641 82.2389 270.498 83.9029 272.473 83.8264C274.206 83.7593 275.265 82.4378 275.194 80.6193C275.181 80.2783 275.125 79.939 275.042 79.615L276.754 80.1178L276.911 84.1668L278.849 84.6181L278.616 78.5944L273.839 77.2285L272.987 78.3713C273.158 78.7346 273.335 79.2684 273.351 79.6946C273.4 80.9591 272.855 81.5636 272.144 81.5911C271.306 81.6235 270.563 80.8128 270.518 79.6336C270.482 78.7102 270.823 77.9571 271.521 77.2613L270.169 75.7771C269.187 76.498 268.48 78.0905 268.536 79.5254ZM268.857 88.1972C268.988 91.5642 272.317 93.3988 275.215 93.2866C277.716 93.1897 279.289 91.5779 279.199 89.248C279.069 85.881 275.74 84.0464 272.841 84.1586C270.341 84.2554 268.767 85.8672 268.857 88.1972ZM270.839 88.2912C270.796 87.1973 271.508 86.4583 272.914 86.4038C274.761 86.3323 277.149 87.3781 277.218 89.154C277.26 90.2479 276.549 90.9869 275.143 91.0413C273.296 91.1128 270.907 90.0671 270.839 88.2912ZM269.212 97.3673C269.343 100.734 272.672 102.569 275.57 102.457C278.071 102.36 279.645 100.748 279.554 98.4181C279.424 95.0511 276.095 93.2165 273.196 93.3287C270.696 93.4255 269.122 95.0374 269.212 97.3673ZM271.194 97.4613C271.151 96.3674 271.863 95.6284 273.269 95.574C275.116 95.5025 277.504 96.5482 277.573 98.3241C277.615 99.418 276.904 100.157 275.498 100.211C273.651 100.283 271.263 99.2372 271.194 97.4613ZM269.568 106.537C269.698 109.904 273.027 111.739 275.925 111.627C278.426 111.53 280 109.918 279.909 107.588C279.779 104.221 276.45 102.387 273.552 102.499C271.051 102.596 269.477 104.207 269.568 106.537ZM271.549 106.631C271.507 105.537 272.218 104.799 273.624 104.744C275.471 104.673 277.859 105.718 277.928 107.494C277.97 108.588 277.259 109.327 275.853 109.382C274.006 109.453 271.618 108.407 271.549 106.631Z" fill="#911368"/>
<path opacity="0.2" d="M290.931 274.723L288.49 278.114L288.139 282.276L284.016 282.948L280.824 285.644L277.434 283.203L273.271 282.852L272.6 278.729L269.904 275.537L272.345 272.147L272.696 267.984L276.819 267.313L280.01 264.617L283.401 267.058L287.563 267.409L288.235 271.532L290.931 274.723Z" fill="#911368"/>
<path opacity="0.2" d="M291.911 300.011L289.47 303.402L289.12 307.565L284.996 308.236L281.805 310.932L278.415 308.491L274.252 308.14L273.581 304.017L270.885 300.826L273.326 297.435L273.676 293.272L277.799 292.601L280.991 289.905L284.381 292.346L288.544 292.697L289.215 296.82L291.911 300.011Z" fill="#911368"/>
<path opacity="0.2" d="M291.419 287.367L288.978 290.758L288.627 294.92L284.504 295.592L281.313 298.288L277.922 295.847L273.76 295.496L273.088 291.373L270.393 288.182L272.833 284.791L273.184 280.628L277.307 279.957L280.499 277.261L283.889 279.702L288.052 280.053L288.723 284.176L291.419 287.367Z" fill="#911368"/>
<path d="M276.047 273.45C276.153 276.163 278.01 277.827 279.985 277.751C281.718 277.684 282.776 276.362 282.706 274.544C282.693 274.203 282.637 273.864 282.553 273.54L284.266 274.042L284.423 278.091L286.361 278.543L286.128 272.519L281.351 271.153L280.499 272.296C280.67 272.659 280.847 273.193 280.863 273.619C280.912 274.884 280.366 275.488 279.656 275.516C278.818 275.548 278.075 274.737 278.029 273.558C277.994 272.635 278.334 271.882 279.033 271.186L277.681 269.702C276.699 270.423 275.992 272.015 276.047 273.45ZM276.369 282.122C276.499 285.489 279.829 287.323 282.727 287.211C285.227 287.114 286.801 285.502 286.711 283.173C286.581 279.806 283.251 277.971 280.353 278.083C277.853 278.18 276.279 279.792 276.369 282.122ZM278.35 282.216C278.308 281.122 279.019 280.383 280.426 280.328C282.273 280.257 284.661 281.303 284.73 283.079C284.772 284.172 284.061 284.911 282.654 284.966C280.807 285.037 278.419 283.992 278.35 282.216ZM276.724 291.292C276.855 294.659 280.184 296.493 283.082 296.381C285.582 296.284 287.156 294.673 287.066 292.343C286.936 288.976 283.606 287.141 280.708 287.253C278.208 287.35 276.634 288.962 276.724 291.292ZM278.706 291.386C278.663 290.292 279.374 289.553 280.781 289.499C282.628 289.427 285.016 290.473 285.085 292.249C285.127 293.343 284.416 294.082 283.009 294.136C281.162 294.208 278.774 293.162 278.706 291.386ZM277.079 300.462C277.21 303.829 280.539 305.664 283.437 305.551C285.938 305.455 287.511 303.843 287.421 301.513C287.291 298.146 283.961 296.311 281.063 296.423C278.563 296.52 276.989 298.132 277.079 300.462ZM279.061 300.556C279.018 299.462 279.729 298.723 281.136 298.669C282.983 298.597 285.371 299.643 285.44 301.419C285.482 302.513 284.771 303.252 283.364 303.306C281.518 303.378 279.129 302.332 279.061 300.556Z" fill="#911368"/>
<path opacity="0.5" d="M191.686 235.17C191.863 239.745 194.649 242.625 198.854 242.462C203.401 242.286 205.156 239.116 205.006 235.252C204.964 234.144 204.794 233.439 204.564 232.651L208.011 232.745L208.339 241.213L212.175 241.064L211.702 228.846L201.877 228.657L200.299 231.251C200.733 232.173 201.118 233.297 201.166 234.547C201.246 236.621 200.308 238.109 198.603 238.175C196.785 238.245 195.741 237.005 195.661 234.959C195.593 233.198 196.332 231.689 197.637 230.131L194.381 227.61C192.609 229.614 191.562 231.988 191.686 235.17ZM192.342 252.116C192.548 257.429 197.203 260.806 202.971 260.582C208.796 260.357 213.119 256.632 212.916 251.376C212.711 246.091 208.055 242.686 202.287 242.909C196.462 243.135 192.136 246.802 192.342 252.116ZM196.294 252.02C196.191 249.377 198.823 247.539 202.46 247.398C206.154 247.255 208.863 248.858 208.964 251.472C209.065 254.086 206.406 255.953 202.797 256.093C199.132 256.235 196.396 254.662 196.294 252.02ZM193.044 270.243C193.25 275.556 197.905 278.933 203.673 278.71C209.498 278.484 213.821 274.76 213.618 269.503C213.413 264.218 208.757 260.813 202.989 261.036C197.164 261.262 192.838 264.929 193.044 270.243ZM196.995 270.147C196.893 267.504 199.525 265.666 203.162 265.526C206.856 265.383 209.565 266.985 209.666 269.599C209.767 272.213 207.108 274.08 203.499 274.22C199.834 274.362 197.098 272.789 196.995 270.147ZM193.746 288.37C193.951 293.683 198.607 297.06 204.375 296.837C210.2 296.611 214.523 292.887 214.319 287.63C214.115 282.345 209.458 278.94 203.69 279.163C197.866 279.389 193.54 283.057 193.746 288.37ZM197.697 288.274C197.595 285.631 200.227 283.794 203.864 283.653C207.558 283.51 210.267 285.112 210.368 287.726C210.469 290.34 207.809 292.208 204.201 292.347C200.536 292.489 197.8 290.916 197.697 288.274Z" fill="#911368"/>
<path opacity="0.5" d="M214.348 142.111L214.642 149.715L225.097 149.31L224.803 141.706L235.377 141.296L235.672 148.9L273.81 147.424L274.933 176.413C275.245 184.493 273.268 190.796 269.001 195.324C264.735 199.853 258.958 202.258 251.67 202.54C244.304 202.825 238.275 200.758 233.582 196.339C228.971 191.996 226.518 185.983 226.22 178.3L225.585 161.904L215.13 162.309L215.916 182.625L206.887 182.975L206.1 162.658L192.793 163.174L192.306 150.58L205.612 150.064L205.318 142.46L214.348 142.111ZM236.753 176.821C236.912 180.94 238.266 184.14 240.813 186.421C243.44 188.699 246.892 189.755 251.169 189.59C255.129 189.436 258.252 188.125 260.536 185.657C262.823 183.268 263.885 179.975 263.723 175.777L263.129 160.45L236.159 161.494L236.753 176.821Z" fill="#911368"/>
<path d="M298.989 269.318C298.989 269.318 195.087 223.103 190.002 239.395C184.916 255.688 264.765 297.62 264.765 297.62C264.765 297.62 273.988 350.534 284.033 360.072C293.742 369.519 331.027 379.509 331.027 379.509L373.925 461.263L449.647 393.637L298.989 269.318Z" fill="#F7D5A5"/>
<path d="M405.096 567.983L343.405 485.156L449.649 393.641L510.291 473.664L405.096 567.983Z" fill="url(#paint1_linear)"/>
<path d="M405.096 567.983L343.405 485.156L449.649 393.641L510.291 473.664L405.096 567.983Z" fill="#3D4773"/>
<defs>
<linearGradient id="paint0_linear" x1="413.959" y1="321.272" x2="165.214" y2="199.843" gradientUnits="userSpaceOnUse">
<stop stop-color="#6270CA"/>
<stop offset="0.1277" stop-color="#6873C7"/>
<stop offset="0.2965" stop-color="#797BBE"/>
<stop offset="0.4883" stop-color="#9489AF"/>
<stop offset="0.6972" stop-color="#BA9C9B"/>
<stop offset="0.9174" stop-color="#EBB481"/>
<stop offset="1" stop-color="#FFBE76"/>
</linearGradient>
<linearGradient id="paint1_linear" x1="496.938" y1="605.539" x2="400.335" y2="431.869" gradientUnits="userSpaceOnUse">
<stop stop-color="#FF791F"/>
<stop offset="1" stop-color="#FFC15B"/>
</linearGradient>
</defs>
</svg>
