<svg width="189" height="86" viewBox="0 0 189 86" fill="none" xmlns="http://www.w3.org/2000/svg">
<g id="logo copy 4">
<path id="Path" fill-rule="evenodd" clip-rule="evenodd" d="M146.584 0L148.206 5.11489H153.57L149.328 8.23373L150.95 13.3486L146.584 10.2298L142.217 13.3486L143.964 8.23373L139.598 5.11489H144.837L146.584 0Z" fill="#4D4C7F"/>
<path id="Path_2" fill-rule="evenodd" clip-rule="evenodd" d="M146.584 71.9827L148.206 76.9728H153.57L149.328 80.2164L150.95 85.3313L146.584 82.2125L142.217 85.3313L143.964 80.2164L139.598 76.9728H144.837L146.584 71.9827Z" fill="#CD5A44"/>
<path id="Path_3" fill-rule="evenodd" clip-rule="evenodd" d="M129.369 67.7412L130.991 72.7314H136.355L131.989 75.9749L133.735 81.0898L129.369 77.971L125.003 81.0898L126.624 75.9749L122.383 72.7314H127.747L129.369 67.7412Z" fill="#C54B43"/>
<path id="Path_4" fill-rule="evenodd" clip-rule="evenodd" d="M128.498 5.48901L130.12 10.6039H135.484L131.118 13.7227L132.864 18.8376L128.498 15.7188L124.132 18.8376L125.878 13.7227L121.512 10.6039H126.876L128.498 5.48901Z" fill="#3D4773"/>
<path id="Path_5" fill-rule="evenodd" clip-rule="evenodd" d="M163.799 5.48901L165.42 10.6039H170.91L166.543 13.7227L168.165 18.8376L163.799 15.7188L159.432 18.8376L161.179 13.7227L156.812 10.6039H162.177L163.799 5.48901Z" fill="#695181"/>
<path id="Path_6" fill-rule="evenodd" clip-rule="evenodd" d="M177.275 18.0891L179.022 23.204H184.386L180.02 26.3228L181.642 31.4377L177.275 28.3189L172.909 31.4377L174.655 26.3228L170.289 23.204H175.653L177.275 18.0891Z" fill="#7B465E"/>
<path id="Path_7" fill-rule="evenodd" clip-rule="evenodd" d="M181.889 35.8042L183.635 40.7943H188.999L184.633 44.0379L186.255 49.1528L181.889 46.034L177.522 49.1528L179.269 44.0379L174.902 40.7943H180.267L181.889 35.8042Z" fill="#9B5170"/>
<path id="Path_8" fill-rule="evenodd" clip-rule="evenodd" d="M177.275 53.8933L179.022 59.0082H184.386L180.02 62.127L181.642 67.2419L177.275 64.1231L172.909 67.2419L174.655 62.127L170.289 59.0082H175.653L177.275 53.8933Z" fill="#BB697D"/>
<path id="Path_9" fill-rule="evenodd" clip-rule="evenodd" d="M164.174 66.8679L165.92 71.9828H171.285L166.918 75.1017L168.54 80.2165L164.174 77.0977L159.932 80.2165L161.554 75.1017L157.188 71.9828H162.552L164.174 66.8679Z" fill="#CC6145"/>
<path id="Path_10" fill-rule="evenodd" clip-rule="evenodd" d="M54.1456 54.6421C54.2365 55.9297 53.784 57.1965 52.8981 58.1352C52.0589 59.0168 50.8681 59.4748 49.6545 59.3827C49.0644 59.3696 48.4781 59.2859 47.9079 59.1332C47.5142 59.0147 47.1369 58.8471 46.7852 58.6342V56.6381H46.9099L47.2842 57.0124C47.4719 57.1057 47.641 57.2326 47.7832 57.3867C48.0483 57.5427 48.3489 57.6286 48.6565 57.6362C48.8922 57.7378 49.1491 57.7806 49.405 57.7609C49.7016 57.781 49.9991 57.7385 50.2783 57.6362C50.5678 57.6165 50.8373 57.4817 51.0268 57.2619C51.257 57.1143 51.4323 56.8951 51.5258 56.6381C51.7605 56.31 51.8909 55.9187 51.9 55.5154H48.407V53.7688H51.9C51.7982 53.4684 51.6731 53.1765 51.5258 52.8955C51.4323 52.6385 51.257 52.4194 51.0268 52.2718L50.2783 51.8975C50.073 51.8437 49.8647 51.8021 49.6545 51.7728C49.2802 51.7728 49.0307 51.8975 48.7812 51.8975C48.5085 51.969 48.2536 52.0965 48.0327 52.2718C47.7832 52.3965 47.5337 52.3965 47.4089 52.646C47.2842 52.8955 47.1594 52.7708 47.0347 52.8955H46.7852V50.8995C47.2842 50.7747 47.6584 50.5252 48.1574 50.4005C48.7329 50.2923 49.319 50.2504 49.904 50.2757C51.0475 50.2461 52.1606 50.6468 53.0228 51.3985C53.8154 52.2863 54.2198 53.4543 54.1456 54.6421Z" fill="#C54B43"/>
<path id="Path_11" fill-rule="evenodd" clip-rule="evenodd" d="M63.1253 59.2576H60.5055L58.1352 55.6398H57.6362V59.2576H55.3906V50.4001H57.6362V54.018C57.9013 53.9922 58.1571 53.9069 58.3847 53.7685C58.6107 53.4907 58.819 53.1991 59.0085 52.8952C59.0085 52.6457 59.1332 52.521 59.258 52.2714C59.2892 52.0839 59.3762 51.91 59.5075 51.7724C59.6938 51.3273 59.9952 50.9398 60.3808 50.6497C60.8628 50.4851 61.3685 50.4008 61.8778 50.4001H62.6263V52.2714H62.1273C61.8778 52.2714 61.6283 52.2714 61.5035 52.521C61.3788 52.7705 61.1293 53.02 60.8798 53.3942C60.7779 53.6946 60.6528 53.9866 60.5055 54.2675C60.3808 54.517 60.256 54.6418 60.1313 54.6418L63.1253 59.2576Z" fill="#C54B43"/>
<path id="Path_12" fill-rule="evenodd" clip-rule="evenodd" d="M67.6183 59.3827C66.4449 59.451 65.302 58.9938 64.4994 58.1352C63.6873 57.2092 63.2826 55.995 63.3767 54.7669C63.3025 53.5791 63.7068 52.411 64.4994 51.5233C65.302 50.6646 66.4449 50.2075 67.6183 50.2757H68.6163C68.9906 50.2757 69.2401 50.4005 69.4896 50.4005C69.7391 50.4005 69.8638 50.5252 70.1133 50.65C70.3629 50.7747 70.4876 50.8995 70.6124 50.8995V53.0203H70.4876C70.3629 52.8956 70.2381 52.8956 70.1133 52.646C69.9886 52.3965 69.7391 52.3965 69.4896 52.2718C69.2709 52.1151 69.01 52.0281 68.7411 52.0223C68.5053 51.9207 68.2485 51.8779 67.9925 51.8975C67.6959 51.8774 67.3984 51.9199 67.1193 52.0223C66.8429 52.1442 66.5896 52.313 66.3707 52.5213C66.1335 52.7657 65.9618 53.0661 65.8717 53.3946C65.7174 53.8362 65.6332 54.2992 65.6222 54.7669C65.6213 55.2357 65.7058 55.7007 65.8717 56.1391C66.013 56.4838 66.1798 56.8174 66.3707 57.1372C66.6148 57.3749 66.9153 57.5466 67.244 57.6362C67.4935 57.6362 67.743 57.7609 68.1173 57.7609C68.4916 57.7609 68.6163 57.6362 68.8658 57.6362C69.1272 57.5369 69.378 57.4115 69.6143 57.2619C69.7391 57.1372 69.9886 57.0124 70.1133 56.8877L70.4876 56.5134H70.6124V58.6342C70.4876 58.6342 70.3629 58.759 70.1133 58.8837C69.8638 59.0085 69.7391 59.0085 69.4896 59.1332C69.2127 59.2443 68.9132 59.2871 68.6163 59.258C68.2982 59.378 67.9561 59.4208 67.6183 59.3827Z" fill="#C54B43"/>
<path id="Path_13" fill-rule="evenodd" clip-rule="evenodd" d="M79.3446 59.2576H77.099V52.0219H74.1049V59.2576H71.8594V50.4001H79.3446V59.2576Z" fill="#C54B43"/>
<path id="Shape" fill-rule="evenodd" clip-rule="evenodd" d="M87.702 54.2677C87.9018 53.9292 87.9892 53.5361 87.9515 53.1449C87.9546 52.7163 87.8697 52.2917 87.702 51.8973C87.5179 51.556 87.2627 51.2582 86.9535 51.0241C86.634 50.8327 86.3003 50.6659 85.9555 50.5251C85.5067 50.4158 85.0443 50.3737 84.5832 50.4003H81.2148V59.2578H83.3357V56.3885H84.5832C84.8327 56.3885 85.207 56.3885 85.4565 56.2637C85.5233 56.2303 85.5812 56.1969 85.635 56.1658C85.7818 56.0811 85.8976 56.0142 86.0802 56.0142C86.3297 56.0142 86.5792 56.0142 86.704 55.7647C86.791 55.5907 86.9386 55.4774 87.0623 55.3825C87.116 55.3412 87.1652 55.3035 87.203 55.2657C87.4887 55.0074 87.6668 54.6512 87.702 54.2677ZM85.6409 52.833C85.6721 52.9266 85.7033 53.0201 85.7033 53.1449C85.7033 53.5191 85.7033 53.6439 85.5786 53.7686C85.5748 53.9641 85.4832 54.1474 85.3291 54.2677C85.2667 54.33 85.2043 54.3612 85.1419 54.3924C85.0796 54.4236 85.0172 54.4548 84.9548 54.5172C84.8177 54.5007 84.6803 54.5464 84.5805 54.6419H83.333V52.0221H84.4558C84.5805 52.0221 84.6741 52.0533 84.7677 52.0845C84.8612 52.1157 84.9548 52.1468 85.0796 52.1468C85.2217 52.3009 85.3908 52.4278 85.5786 52.5211C85.5786 52.6459 85.6098 52.7394 85.6409 52.833Z" fill="#C54B43"/>
<path id="Path_14" fill-rule="evenodd" clip-rule="evenodd" d="M89.0742 59.2576V50.4001H95.0624V52.0219H91.3198V53.6437H94.8129V55.2655H91.3198V57.5111H95.0624V59.2576H89.0742Z" fill="#C54B43"/>
<path id="Path_15" fill-rule="evenodd" clip-rule="evenodd" d="M100.302 59.3827C99.1285 59.451 97.9856 58.9938 97.183 58.1352C96.3709 57.2092 95.9662 55.995 96.0603 54.7669C95.9861 53.5791 96.3904 52.411 97.183 51.5233C97.9856 50.6646 99.1285 50.2075 100.302 50.2757H101.3C101.674 50.2757 101.924 50.4005 102.173 50.4005C102.423 50.4005 102.547 50.5252 102.797 50.65C103.046 50.7747 103.171 50.8995 103.296 50.8995V53.0203H103.171C103.046 52.8956 102.922 52.8956 102.797 52.646C102.672 52.3965 102.423 52.3965 102.173 52.2718C101.955 52.1151 101.694 52.0281 101.425 52.0223C101.189 51.9207 100.932 51.8779 100.676 51.8975C100.38 51.8774 100.082 51.9199 99.8029 52.0223C99.5263 52.144 99.273 52.3128 99.0543 52.5213C98.8166 52.7654 98.6449 53.0659 98.5553 53.3946C98.401 53.8362 98.3168 54.2992 98.3058 54.7669C98.3046 55.2357 98.3891 55.7008 98.5553 56.1391C98.6963 56.4839 98.8631 56.8175 99.0543 57.1372C99.2984 57.3749 99.5989 57.5466 99.9276 57.6362C100.177 57.6362 100.427 57.7609 100.676 57.7609C100.926 57.7609 101.3 57.6362 101.549 57.6362C101.811 57.5369 102.062 57.4116 102.298 57.2619C102.44 57.1078 102.609 56.981 102.797 56.8877L103.171 56.5134H103.296V58.6342C103.171 58.6342 103.046 58.759 102.797 58.8837C102.547 59.0085 102.298 59.0085 102.173 59.1332C101.896 59.2443 101.597 59.2871 101.3 59.258C100.982 59.378 100.64 59.4208 100.302 59.3827Z" fill="#C54B43"/>
<path id="Path_16" fill-rule="evenodd" clip-rule="evenodd" d="M108.411 59.3827C107.201 59.4509 106.02 58.9966 105.167 58.1352C104.355 57.2092 103.951 55.995 104.045 54.7669C103.97 53.5791 104.375 52.411 105.167 51.5233C106.02 50.6619 107.201 50.2076 108.411 50.2757H109.409C109.659 50.2757 109.908 50.4005 110.158 50.4005C110.407 50.4005 110.657 50.5252 110.906 50.65C111.044 50.7813 111.217 50.8683 111.405 50.8995V53.0203H111.156C111.031 52.8956 110.906 52.8956 110.781 52.6461C110.657 52.3965 110.407 52.3965 110.282 52.2718C110.055 52.1334 109.799 52.0481 109.534 52.0223C109.298 51.9207 109.041 51.8779 108.785 51.8975C108.488 51.8679 108.189 51.9108 107.912 52.0223C107.635 52.144 107.382 52.3128 107.163 52.5213C106.926 52.7904 106.717 53.083 106.54 53.3946C106.43 53.8433 106.388 54.3058 106.415 54.7669C106.382 55.228 106.424 55.6915 106.54 56.1391C106.719 56.4889 106.928 56.8228 107.163 57.1372C107.382 57.3456 107.635 57.5145 107.912 57.6362C108.286 57.6362 108.536 57.7609 108.785 57.7609C109.035 57.7609 109.409 57.6362 109.659 57.6362C109.882 57.5398 110.092 57.4139 110.282 57.2619C110.532 57.1372 110.657 57.0124 110.906 56.8877L111.28 56.5134H111.405V58.6342C111.217 58.6655 111.044 58.7524 110.906 58.8837C110.657 59.0085 110.407 59.0085 110.158 59.1332C109.922 59.2348 109.665 59.2776 109.409 59.258C109.088 59.3669 108.749 59.4093 108.411 59.3827Z" fill="#C54B43"/>
<g id="Group">
<path id="Path_17" fill-rule="evenodd" clip-rule="evenodd" d="M124.004 59.2579H121.384L119.014 55.64H118.39V59.2579H116.27V50.4004H118.39V54.0182C118.663 54.0358 118.931 53.9462 119.139 53.7687C119.388 53.644 119.513 53.2697 119.763 52.8955C120.012 52.5212 119.887 52.5212 120.012 52.2717C120.143 52.1341 120.23 51.9603 120.262 51.7727C120.492 51.3184 120.836 50.9316 121.26 50.6499C121.701 50.4956 122.164 50.4114 122.632 50.4004H123.505V52.2717H123.006C122.732 52.2369 122.456 52.3287 122.258 52.5212C122.133 52.646 122.008 53.0202 121.759 53.3945C121.669 53.7232 121.497 54.0237 121.26 54.2677C121.135 54.5173 121.01 54.642 120.885 54.642L124.004 59.2579Z" fill="#3D4773"/>
<path id="Shape_2" fill-rule="evenodd" clip-rule="evenodd" d="M131.241 54.2676C131.383 53.9089 131.467 53.5299 131.49 53.1448C131.52 52.6975 131.387 52.2544 131.116 51.8973C131.013 51.5073 130.737 51.1857 130.368 51.024C130.077 50.7845 129.736 50.6139 129.37 50.525C128.963 50.4154 128.542 50.3733 128.122 50.4003H124.629V59.2577H126.874V56.3884H127.997H127.997C128.372 56.3884 128.621 56.3884 128.871 56.2637C129.12 56.1389 129.37 56.0142 129.619 56.0142C129.802 56.0142 129.917 55.9473 130.064 55.8625C130.118 55.8315 130.176 55.7981 130.243 55.7647C130.341 55.5417 130.519 55.3637 130.742 55.2656C130.981 54.9749 131.152 54.6337 131.241 54.2676ZM129.094 52.6996C129.179 52.8464 129.246 52.9622 129.246 53.1449C129.231 53.3573 129.189 53.5669 129.121 53.7686C129.074 53.8639 129.044 53.941 129.019 54.0069C128.978 54.1134 128.949 54.1905 128.872 54.2677C128.809 54.33 128.747 54.3612 128.685 54.3924C128.622 54.4236 128.56 54.4548 128.498 54.5172C128.36 54.5007 128.223 54.5464 128.123 54.6419H126.876V52.0221H127.999C128.204 52.0759 128.412 52.1176 128.622 52.1468L128.997 52.5211C129.03 52.588 129.063 52.6459 129.094 52.6996Z" fill="#3D4773"/>
<path id="Path_18" fill-rule="evenodd" clip-rule="evenodd" d="M132.613 59.2579V50.4004H138.601L138.477 52.0222H134.734V53.644H138.227V55.2658H134.734V57.5113H138.601V59.2579H132.613Z" fill="#3D4773"/>
<path id="Shape_3" fill-rule="evenodd" clip-rule="evenodd" d="M146.209 61.2539H148.205V57.5113H147.332V50.4004H141.094C141.099 51.7401 140.974 53.0771 140.72 54.3925C140.557 55.4791 140.22 56.5323 139.722 57.5113H139.223V61.2539H141.219V59.2579H146.209V61.2539ZM145.083 52.0222V57.5114H141.84C142.245 56.7239 142.538 55.8843 142.713 55.0163C142.96 54.0334 143.127 53.0321 143.212 52.0222H145.083Z" fill="#3D4773"/>
<path id="Path_19" fill-rule="evenodd" clip-rule="evenodd" d="M156.938 59.2579H154.817V53.3945L151.324 59.2579H149.328V50.4004H151.449V55.64L154.568 50.4004H156.938V59.2579Z" fill="#3D4773"/>
<path id="Path_20" fill-rule="evenodd" clip-rule="evenodd" d="M160.308 59.2579V52.0222H157.812V50.4004H165.173V52.0222H162.553V59.2579H160.308Z" fill="#3D4773"/>
<path id="Path_21" fill-rule="evenodd" clip-rule="evenodd" d="M0 45.2853V30.0654C0 29.9407 0 29.8159 0.249507 29.8159H10.3545C10.4872 29.8275 10.5924 29.9327 10.604 30.0654V32.5605C10.5978 32.6956 10.4896 32.8037 10.3545 32.81H4.11686C3.98176 32.8163 3.87365 32.9244 3.86736 33.0595V35.3051C3.87365 35.4402 3.98176 35.5483 4.11686 35.5546H9.73077C9.85553 35.5546 10.105 35.6793 10.105 35.8041V38.2992C10.105 38.4239 9.85553 38.5487 9.73077 38.5487H4.11686C3.98176 38.555 3.87365 38.6631 3.86736 38.7982V42.2913C3.87365 42.4264 3.98176 42.5345 4.11686 42.5408H10.3545C10.4872 42.5524 10.5924 42.6576 10.604 42.7903V45.2853C10.5924 45.418 10.4872 45.5233 10.3545 45.5349H0.249507C0 45.5349 0 45.4101 0 45.2853H0Z" fill="#3D4773"/>
<path id="Shape_4" fill-rule="evenodd" clip-rule="evenodd" d="M25.4485 42.7904C25.7261 42.1191 25.8539 41.3953 25.8228 40.6695C25.8809 39.754 25.5659 38.8539 24.9495 38.1745C24.2933 37.5428 23.4714 37.1103 22.5792 36.9269V36.8022C23.2369 36.566 23.804 36.1298 24.201 35.5547C24.5944 34.916 24.8097 34.1838 24.8247 33.4338C24.8519 32.813 24.6768 32.2001 24.3257 31.6873C24.0572 31.1872 23.672 30.7593 23.2029 30.4398C22.6334 30.232 22.0497 30.0653 21.4564 29.9407C20.5884 29.8235 19.7118 29.7818 18.8366 29.816H13.4722C13.3395 29.8276 13.2343 29.9328 13.2227 30.0655V45.2854C13.2343 45.4181 13.3395 45.5233 13.4722 45.5349H19.5851C20.466 45.5883 21.3499 45.5042 22.2049 45.2854C22.9268 45.0805 23.6039 44.742 24.201 44.2874C24.7112 43.8752 25.1351 43.3665 25.4485 42.7904ZM20.8319 34.3072C20.7554 33.5342 20.2093 32.8888 19.4596 32.6854H17.214V36.0537H19.0853C19.3869 36.0129 19.681 35.9289 19.9586 35.8042C20.2244 35.6637 20.4418 35.4463 20.5823 35.1805C20.7389 34.9155 20.8249 34.6148 20.8319 34.3072ZM21.7051 40.6696C21.7051 40.1706 21.7051 39.7964 21.4556 39.5469C21.2552 39.2347 20.9426 39.0114 20.5823 38.9231C20.4473 38.8556 20.2756 38.8246 20.0872 38.7906C19.9276 38.7618 19.756 38.7308 19.5843 38.6736H17.214V42.6657H19.5843C19.9694 42.6425 20.3484 42.5583 20.7071 42.4162C21.0659 42.3073 21.3468 42.0265 21.4556 41.6677C21.6675 41.3811 21.7572 41.0222 21.7051 40.6696Z" fill="#3D4773"/>
<path id="Shape_5" fill-rule="evenodd" clip-rule="evenodd" d="M39.7971 36.9269C40.042 36.2465 40.1686 35.5292 40.1714 34.8061C40.1516 33.9921 39.9824 33.1886 39.6724 32.4357C39.3563 31.7898 38.8848 31.2326 38.3001 30.8139C37.7458 30.4173 37.1038 30.1605 36.4288 30.0654C35.6906 29.907 34.9382 29.8234 34.1832 29.8159H28.3198C28.0703 29.8159 28.0703 29.9407 28.0703 30.0654V45.2853C28.0703 45.4101 28.0703 45.5349 28.3198 45.5349H31.6882C31.9377 45.5349 31.9377 45.4101 31.9377 45.2853V40.6695C31.9377 40.5447 32.0624 40.42 32.3119 40.42H34.0585C34.5575 40.42 35.0565 40.42 35.5555 40.2952C36.0545 40.1705 36.4288 40.0457 36.8031 39.9209C37.1915 39.7397 37.5667 39.5313 37.9258 39.2972C38.2426 39.0793 38.5354 38.8284 38.7991 38.5487C39.2034 38.0555 39.5391 37.51 39.7971 36.9269ZM35.8049 33.6836C35.9586 34.0821 36.043 34.5041 36.0544 34.9311C36.0818 35.3098 36.0395 35.6904 35.9296 36.0539C35.8079 36.3304 35.639 36.5837 35.4306 36.8024C35.2404 36.9545 35.0306 37.0804 34.8068 37.1767C34.6821 37.239 34.5885 37.2702 34.4949 37.3014C34.4014 37.3326 34.3078 37.3638 34.1831 37.4262H31.9375V32.6855H32.5613C32.8287 32.6855 33.0961 32.7214 33.3443 32.7546C33.5593 32.7834 33.7599 32.8103 33.9336 32.8103C34.2806 32.8186 34.6215 32.9038 34.9316 33.0598C35.2691 33.1937 35.5688 33.4078 35.8049 33.6836Z" fill="#3D4773"/>
<path id="Shape_6" fill-rule="evenodd" clip-rule="evenodd" d="M54.5176 43.6638C55.967 42.0207 56.6873 39.8597 56.5137 37.6756C56.6434 35.4971 55.9285 33.3524 54.5176 31.6874C53.0637 30.1555 51.0131 29.3352 48.9037 29.4419C46.7944 29.3352 44.7437 30.1555 43.2898 31.6874C41.9319 33.3817 41.224 35.5054 41.2938 37.6756C41.224 39.8458 41.9319 41.9695 43.2898 43.6638C44.7437 45.1957 46.7944 46.016 48.9037 45.9093C51.0131 46.016 53.0637 45.1957 54.5176 43.6638ZM52.1463 35.3053C52.4232 36.0637 52.5504 36.8687 52.5205 37.6756C52.5197 38.4722 52.4361 39.2666 52.271 40.0459C52.0557 40.624 51.7618 41.1697 51.3977 41.6677C51.1161 42.0919 50.7292 42.4358 50.275 42.6657C49.8334 42.8201 49.3703 42.9043 48.9027 42.9153C48.4362 42.8929 47.9748 42.809 47.5304 42.6657C47.097 42.4062 46.7162 42.0676 46.4076 41.6677C46.0136 41.2551 45.7528 40.7335 45.6591 40.1707C45.4401 39.3582 45.3558 38.5153 45.4096 37.6756C45.3476 36.8769 45.4322 36.0736 45.6591 35.3053C45.8348 34.7336 46.0866 34.1881 46.4076 33.6835C46.6797 33.2511 47.0691 32.905 47.5304 32.6855C47.9748 32.5422 48.4362 32.4583 48.9027 32.436C49.3703 32.447 49.8334 32.5311 50.275 32.6855C50.7083 32.9451 51.0891 33.2836 51.3977 33.6835C51.8164 34.1287 52.0791 34.6979 52.1463 35.3053Z" fill="#3D4773"/>
<path id="Path_22" fill-rule="evenodd" clip-rule="evenodd" d="M71.8572 45.5349H68.4888C68.2393 45.5349 68.2393 45.4101 68.2393 45.2853V33.0595C68.2393 32.9348 68.1146 32.81 67.8651 32.81H63.1244C62.8749 32.81 62.8749 32.9348 62.8749 33.0595V45.2853C62.8749 45.4101 62.7502 45.5349 62.5007 45.5349H59.1323C58.9972 45.5286 58.8891 45.4205 58.8828 45.2853V30.0654C58.8891 29.9303 58.9972 29.8222 59.1323 29.8159H71.8572C72.1067 29.8159 72.1067 29.9407 72.1067 30.0654V45.2853C72.1067 45.4101 72.1067 45.5349 71.8572 45.5349Z" fill="#3D4773"/>
<path id="Path_23" fill-rule="evenodd" clip-rule="evenodd" d="M75.3516 45.2853V30.0654C75.3632 29.9327 75.4684 29.8275 75.6011 29.8159H85.7061C85.8412 29.8222 85.9493 29.9303 85.9556 30.0654V32.5605C85.9493 32.6956 85.8412 32.8037 85.7061 32.81H79.4684C79.3357 32.8216 79.2305 32.9268 79.2189 33.0595V35.3051C79.2305 35.4378 79.3357 35.543 79.4684 35.5546H85.2071C85.3422 35.5609 85.4503 35.669 85.4566 35.8041V38.2992C85.4503 38.4343 85.3422 38.5424 85.2071 38.5487H79.4684C79.3357 38.5603 79.2305 38.6655 79.2189 38.7982V42.2913C79.2305 42.424 79.3357 42.5292 79.4684 42.5408H85.7061C85.8412 42.5471 85.9493 42.6552 85.9556 42.7903V45.2853C85.9493 45.4205 85.8412 45.5286 85.7061 45.5349H75.6011C75.4684 45.5233 75.3632 45.418 75.3516 45.2853H75.3516Z" fill="#3D4773"/>
<path id="Path_24" fill-rule="evenodd" clip-rule="evenodd" d="M101.923 45.5349H98.5545C98.4218 45.5233 98.3166 45.418 98.305 45.2853V36.1783C98.3117 36.0531 98.2286 35.9406 98.1069 35.9102C97.9852 35.8798 97.859 35.9399 97.806 36.0536L92.3168 45.4101C92.3168 45.5349 92.1921 45.5349 92.0673 45.5349H88.8237C88.691 45.5233 88.5858 45.418 88.5742 45.2853V30.0654C88.5858 29.9327 88.691 29.8275 88.8237 29.8159H92.1921C92.4416 29.8159 92.4416 29.9407 92.4416 30.0654V38.1744C92.4416 38.4239 92.9406 38.5487 93.0653 38.2992L98.0555 29.9407C98.0555 29.8159 98.1802 29.8159 98.305 29.8159H101.923C102.056 29.8275 102.161 29.9327 102.172 30.0654V45.2853C102.161 45.418 102.056 45.5233 101.923 45.5349Z" fill="#3D4773"/>
<path id="Path_25" fill-rule="evenodd" clip-rule="evenodd" d="M112.152 45.9092C110.043 46.0159 107.992 45.1956 106.538 43.6636C105.049 42.0376 104.283 39.8765 104.417 37.6755C104.329 35.481 105.088 33.3367 106.538 31.6873C108.009 30.1925 110.061 29.4174 112.152 29.5665H113.899C114.398 29.6912 114.897 29.816 115.271 29.9407C115.645 30.0655 116.019 30.1903 116.518 30.315C116.785 30.4915 117.08 30.6183 117.392 30.6893C117.463 30.754 117.507 30.843 117.517 30.9388V34.5566H117.142C116.863 34.387 116.611 34.1767 116.394 33.9329C116.079 33.6971 115.745 33.4885 115.396 33.3091C115.021 33.0278 114.598 32.8164 114.148 32.6853C113.704 32.5421 113.242 32.4582 112.776 32.4358C112.268 32.4476 111.763 32.5316 111.279 32.6853C110.747 32.9015 110.276 33.2441 109.907 33.6834C109.408 34.1021 109.058 34.671 108.909 35.3051C108.634 36.1074 108.507 36.9527 108.534 37.8002C108.516 38.6063 108.643 39.4091 108.909 40.1705C109.137 40.7688 109.475 41.319 109.907 41.7923C110.303 42.17 110.769 42.4666 111.279 42.6656C111.766 42.8094 112.269 42.8932 112.776 42.9151C113.323 42.8839 113.866 42.8004 114.398 42.6656C114.797 42.5062 115.174 42.2966 115.52 42.0418C115.858 41.908 116.158 41.6939 116.394 41.4181C116.768 41.1686 117.017 41.0438 117.142 40.7943H117.517V44.2874C117.517 44.4122 117.517 44.5369 117.392 44.5369C117.111 44.684 116.819 44.8092 116.518 44.9112C116.209 45.0897 115.871 45.2161 115.52 45.2854C114.993 45.4914 114.451 45.6582 113.899 45.7844C113.524 45.7844 112.901 45.9092 112.152 45.9092Z" fill="#3D4773"/>
<path id="Path_26" fill-rule="evenodd" clip-rule="evenodd" d="M133.11 45.535H128.869L124.752 39.2973C124.685 39.2295 124.597 39.1857 124.502 39.1725H124.003C123.879 39.1725 123.754 39.422 123.754 39.5468V45.2854C123.754 45.535 123.629 45.535 123.38 45.535H120.011C119.886 45.535 119.762 45.535 119.762 45.2854V30.0655C119.773 29.9328 119.879 29.8276 120.011 29.816H123.38C123.629 29.816 123.754 29.9408 123.754 30.0655V35.9289C123.754 36.0537 123.879 36.3032 124.003 36.3032C124.415 36.2396 124.803 36.0673 125.126 35.8042C125.596 35.3365 125.977 34.7869 126.249 34.1824C126.249 33.9329 126.498 33.6834 126.623 33.3091C126.725 33.0088 126.85 32.7168 126.997 32.4358C127.336 31.5914 127.952 30.8874 128.744 30.4398C129.522 29.9422 130.445 29.7224 131.364 29.816H132.736V32.9349C132.724 33.0676 132.619 33.1728 132.487 33.1844H131.863C131.418 33.1743 130.981 33.3053 130.615 33.5586C130.221 34.1033 129.886 34.6889 129.617 35.3052C129.419 35.8281 129.168 36.3297 128.869 36.8022C128.619 37.0517 128.494 37.3012 128.37 37.3012C128.312 37.3461 128.278 37.4152 128.278 37.4884C128.278 37.5615 128.312 37.6306 128.37 37.6755L133.36 45.1607C133.485 45.2854 133.36 45.535 133.11 45.535Z" fill="#3D4773"/>
<path id="Path_27" fill-rule="evenodd" clip-rule="evenodd" d="M148.204 45.5349H144.836C144.703 45.5233 144.598 45.418 144.586 45.2853V36.1783C144.593 36.0531 144.51 35.9406 144.388 35.9102C144.266 35.8798 144.14 35.9399 144.087 36.0536L138.598 45.4101C138.473 45.5349 138.473 45.5349 138.349 45.5349H135.105C134.972 45.5233 134.867 45.418 134.855 45.2853V30.0654C134.867 29.9327 134.972 29.8275 135.105 29.8159H138.473C138.608 29.8222 138.717 29.9303 138.723 30.0654V38.1744C138.716 38.2997 138.799 38.4121 138.921 38.4425C139.043 38.473 139.169 38.4128 139.222 38.2992L144.337 29.9407C144.337 29.8718 144.393 29.8159 144.461 29.8159H148.204C148.337 29.8275 148.442 29.9327 148.454 30.0654V45.2853C148.442 45.418 148.337 45.5233 148.204 45.5349Z" fill="#3D4773"/>
<path id="Path_28" fill-rule="evenodd" clip-rule="evenodd" d="M164.923 45.5349H161.554C161.422 45.5233 161.317 45.418 161.305 45.2853V36.1783C161.312 36.0531 161.229 35.9406 161.107 35.9102C160.985 35.8798 160.859 35.9399 160.806 36.0536L155.317 45.4101C155.317 45.5349 155.192 45.5349 155.067 45.5349H151.824C151.689 45.5286 151.581 45.4205 151.574 45.2853V30.0654C151.581 29.9303 151.689 29.8222 151.824 29.8159H155.192C155.325 29.8275 155.43 29.9327 155.442 30.0654V38.1744C155.435 38.2997 155.518 38.4121 155.64 38.4425C155.761 38.473 155.888 38.4128 155.941 38.2992L161.055 29.9407C161.055 29.9076 161.069 29.8759 161.092 29.8525C161.115 29.8291 161.147 29.8159 161.18 29.8159H164.923C165.058 29.8222 165.166 29.9303 165.172 30.0654V45.2853C165.166 45.4205 165.058 45.5286 164.923 45.5349Z" fill="#3D4773"/>
<path id="Path_29" fill-rule="evenodd" clip-rule="evenodd" d="M94.4375 31.0636V26.9468C94.4375 26.822 94.4375 26.822 94.5623 26.822H97.1821C97.3148 26.8336 97.42 26.9388 97.4316 27.0715L94.687 31.1884C94.5623 31.1884 94.4375 31.1884 94.4375 31.0636H94.4375Z" fill="#3D4773"/>
<path id="Path_30" fill-rule="evenodd" clip-rule="evenodd" d="M157.566 31.0636V26.9468C157.566 26.8779 157.622 26.822 157.691 26.822H160.436C160.503 26.8893 160.547 26.977 160.56 27.0715L157.816 31.1884C157.816 31.1884 157.566 31.1884 157.566 31.0636H157.566Z" fill="#3D4773"/>
</g>
</g>
</svg>
