<svg width="155" height="35" viewBox="0 0 155 35" fill="none" xmlns="http://www.w3.org/2000/svg">
<path fill-rule="evenodd" clip-rule="evenodd" d="M42.1758 14.914V12.296H42.8028C43.6938 11.372 44.1668 9.843 44.1668 7.324V5.212H48.9518V12.296H49.8318V14.914H49.0838V13H42.9238V14.914H42.1758ZM43.8038 12.296H48.1598V5.916H44.9368V7.324C44.9368 10.019 44.3648 11.537 43.8038 12.296ZM51.3314 13V7.852H52.0794V11.966H52.0904L55.1374 7.852H55.9514V13H55.2144V8.842H55.1924L52.1454 13H51.3314ZM59.5631 13.132C58.6061 13.132 57.8471 12.824 57.3631 12.12L57.9791 11.68C58.2431 12.142 58.8921 12.494 59.5521 12.494C60.1571 12.494 60.8171 12.274 60.8171 11.537C60.8171 10.877 60.0581 10.624 59.2881 10.624H58.9361V10.03H59.2661C60.0251 10.03 60.6411 9.777 60.6411 9.117C60.6411 8.556 60.1021 8.347 59.4421 8.347C58.9141 8.347 58.3861 8.633 58.1221 9.062L57.5391 8.644C57.8801 8.061 58.6281 7.72 59.4641 7.72C60.5641 7.72 61.3891 8.215 61.3891 9.106C61.3891 9.689 60.9381 10.151 60.3111 10.283V10.305C61.0371 10.426 61.5651 10.888 61.5651 11.57C61.5651 12.56 60.7291 13.132 59.5631 13.132ZM64.6598 13.132C63.8788 13.132 62.8778 12.714 62.8778 11.57C62.8778 9.986 64.6268 9.843 66.5078 9.843V9.678C66.5078 8.787 66.0238 8.347 65.1328 8.347C64.5278 8.347 63.9668 8.589 63.6038 8.952L63.1858 8.457C63.6038 8.039 64.3298 7.72 65.2098 7.72C66.3208 7.72 67.2118 8.336 67.2118 9.59V11.845C67.2118 12.241 67.2448 12.714 67.2998 13H66.6288C66.5848 12.747 66.5518 12.439 66.5518 12.164H66.5298C66.0568 12.846 65.4848 13.132 64.6598 13.132ZM64.8578 12.516C65.9139 12.516 66.5079 11.724 66.5079 10.811V10.426H66.2879C65.0668 10.426 63.6478 10.558 63.6478 11.537C63.6478 12.274 64.2748 12.516 64.8578 12.516ZM69.2284 13V7.852H69.9764V11.966H69.9874L73.0344 7.852H73.8484V13H73.1114V8.842H73.0894L70.0424 13H69.2284ZM71.4944 6.664C70.5924 6.664 69.9764 6.114 69.8884 5.256L70.3944 5.157C70.4934 5.729 70.9444 6.07 71.4944 6.07C72.0444 6.07 72.4954 5.729 72.5944 5.157L73.1004 5.256C73.0124 6.114 72.3964 6.664 71.4944 6.664ZM75.9201 13V7.852H76.6681V10.008H79.1831V7.852H79.9311V13H79.1831V10.635H76.6681V13H75.9201ZM85.2884 13V7.852H86.0364V11.966H86.0474L89.0944 7.852H89.9084V13H89.1714V8.842H89.1494L86.1024 13H85.2884ZM94.8218 15.64V7.852H95.5698V8.743H95.6028C96.0318 8.072 96.8018 7.72 97.5388 7.72C99.1448 7.72 100.201 8.908 100.201 10.426C100.201 11.944 99.1448 13.132 97.5388 13.132C96.8018 13.132 96.0318 12.769 95.6028 12.131H95.5698V15.64H94.8218ZM97.4618 12.494C98.7048 12.494 99.4088 11.57 99.4088 10.426C99.4088 9.282 98.7048 8.347 97.4618 8.347C96.3068 8.347 95.4818 9.249 95.4818 10.426C95.4818 11.603 96.3068 12.494 97.4618 12.494ZM103.295 13.132C102.514 13.132 101.513 12.714 101.513 11.57C101.513 9.986 103.262 9.843 105.143 9.843V9.678C105.143 8.787 104.659 8.347 103.768 8.347C103.163 8.347 102.602 8.589 102.239 8.952L101.821 8.457C102.239 8.039 102.965 7.72 103.845 7.72C104.956 7.72 105.847 8.336 105.847 9.59V11.845C105.847 12.241 105.88 12.714 105.935 13H105.264C105.22 12.747 105.187 12.439 105.187 12.164H105.165C104.692 12.846 104.12 13.132 103.295 13.132ZM103.493 12.516C104.549 12.516 105.143 11.724 105.143 10.811V10.426H104.923C103.702 10.426 102.283 10.558 102.283 11.537C102.283 12.274 102.91 12.516 103.493 12.516ZM109.404 13.132C108.447 13.132 107.688 12.824 107.204 12.12L107.82 11.68C108.084 12.142 108.733 12.494 109.393 12.494C109.998 12.494 110.658 12.274 110.658 11.537C110.658 10.877 109.899 10.624 109.129 10.624H108.777V10.03H109.107C109.866 10.03 110.482 9.777 110.482 9.117C110.482 8.556 109.943 8.347 109.283 8.347C108.755 8.347 108.227 8.633 107.963 9.062L107.38 8.644C107.721 8.061 108.469 7.72 109.305 7.72C110.405 7.72 111.23 8.215 111.23 9.106C111.23 9.689 110.779 10.151 110.152 10.283V10.305C110.878 10.426 111.406 10.888 111.406 11.57C111.406 12.56 110.57 13.132 109.404 13.132ZM113.104 15.64V7.852H113.852V8.743H113.885C114.314 8.072 115.084 7.72 115.821 7.72C117.427 7.72 118.483 8.908 118.483 10.426C118.483 11.944 117.427 13.132 115.821 13.132C115.084 13.132 114.314 12.769 113.885 12.131H113.852V15.64H113.104ZM115.744 12.494C116.987 12.494 117.691 11.57 117.691 10.426C117.691 9.282 116.987 8.347 115.744 8.347C114.589 8.347 113.764 9.249 113.764 10.426C113.764 11.603 114.589 12.494 115.744 12.494ZM121.577 13.132C120.796 13.132 119.795 12.714 119.795 11.57C119.795 9.986 121.544 9.843 123.425 9.843V9.678C123.425 8.787 122.941 8.347 122.05 8.347C121.445 8.347 120.884 8.589 120.521 8.952L120.103 8.457C120.521 8.039 121.247 7.72 122.127 7.72C123.238 7.72 124.129 8.336 124.129 9.59V11.845C124.129 12.241 124.162 12.714 124.217 13H123.546C123.502 12.747 123.469 12.439 123.469 12.164H123.447C122.974 12.846 122.402 13.132 121.577 13.132ZM121.775 12.516C122.831 12.516 123.425 11.724 123.425 10.811V10.426H123.205C121.984 10.426 120.565 10.558 120.565 11.537C120.565 12.274 121.192 12.516 121.775 12.516ZM128.599 13.132C127.587 13.132 126.817 12.758 126.355 12.054C126.036 11.57 125.871 10.943 125.871 9.623C125.871 7.159 126.157 5.487 128.225 5.245L129.787 5.058C130.249 5.003 130.601 4.904 130.711 4.552L131.25 4.717C131.096 5.3 130.755 5.564 130.018 5.663L128.555 5.85C127.081 6.037 126.52 6.631 126.487 9.029H126.52C126.971 8.116 127.807 7.72 128.786 7.72C130.304 7.72 131.349 8.875 131.349 10.426C131.349 11.977 130.205 13.132 128.599 13.132ZM128.599 12.494C129.798 12.494 130.557 11.581 130.557 10.426C130.557 9.271 129.798 8.347 128.599 8.347C127.411 8.347 126.652 9.271 126.652 10.426C126.652 11.581 127.411 12.494 128.599 12.494ZM135.412 13.132C133.817 13.132 132.673 11.977 132.673 10.426C132.673 8.875 133.817 7.72 135.412 7.72C137.018 7.72 138.162 8.875 138.162 10.426C138.162 11.977 137.018 13.132 135.412 13.132ZM135.412 12.494C136.611 12.494 137.37 11.581 137.37 10.426C137.37 9.271 136.611 8.347 135.412 8.347C134.224 8.347 133.465 9.271 133.465 10.426C133.465 11.581 134.224 12.494 135.412 12.494ZM140.816 13V8.479H138.957V7.852H143.423V8.479H141.564V13H140.816ZM144.747 13V7.852H145.495V10.283H145.528L147.904 7.852H148.982L146.386 10.316L149.246 13H148.146L145.528 10.404H145.495V13H144.747ZM151.824 13.132C151.043 13.132 150.042 12.714 150.042 11.57C150.042 9.986 151.791 9.843 153.672 9.843V9.678C153.672 8.787 153.188 8.347 152.297 8.347C151.692 8.347 151.131 8.589 150.768 8.952L150.35 8.457C150.768 8.039 151.494 7.72 152.374 7.72C153.485 7.72 154.376 8.336 154.376 9.59V11.845C154.376 12.241 154.409 12.714 154.464 13H153.793C153.749 12.747 153.716 12.439 153.716 12.164H153.694C153.221 12.846 152.649 13.132 151.824 13.132ZM152.022 12.516C153.078 12.516 153.672 11.724 153.672 10.811V10.426H153.452C152.231 10.426 150.812 10.558 150.812 11.537C150.812 12.274 151.439 12.516 152.022 12.516Z" fill="#737373"/>
<path fill-rule="evenodd" clip-rule="evenodd" d="M50.8008 24.0951C50.8008 26.4931 49.0408 28.1981 46.6648 28.1981C44.2998 28.1981 42.5508 26.4931 42.5508 24.0951C42.5508 21.6641 44.2998 20.0141 46.6648 20.0141C49.0408 20.0141 50.8008 21.6641 50.8008 24.0951ZM49.6238 24.0951C49.6238 22.3901 48.4798 20.9711 46.6648 20.9711C44.8718 20.9711 43.7278 22.3901 43.7278 24.0951C43.7278 25.8331 44.8828 27.2191 46.6648 27.2191C48.4688 27.2191 49.6238 25.8331 49.6238 24.0951ZM51.5084 28.0001L53.5984 25.2611L51.6954 22.7861H52.9714L54.2474 24.5791L55.5344 22.7861H56.7444L54.8634 25.2501L56.9644 28.0001H55.6774L54.2254 25.9651L52.7514 28.0001H51.5084ZM58.6401 24.9311H61.7421C61.7201 24.1061 61.2361 23.4571 60.2791 23.4571C59.3881 23.4571 58.7061 24.1171 58.6401 24.9311ZM62.7871 25.3491C62.7871 25.4591 62.7871 25.5801 62.7761 25.7011H58.6401C58.6731 26.5921 59.4211 27.2851 60.3341 27.2851C61.0381 27.2851 61.5551 26.9331 61.8521 26.4931L62.5781 27.0761C62.0171 27.8021 61.2581 28.1431 60.3341 28.1431C58.7501 28.1431 57.5841 27.0431 57.5841 25.4041C57.5841 23.7761 58.7501 22.6431 60.2791 22.6431C61.8191 22.6431 62.7871 23.6881 62.7871 25.3491ZM65.3318 23.6441C65.5958 23.0941 66.2008 22.6431 66.9928 22.6431C67.6858 22.6431 68.2908 22.9511 68.6098 23.6881C68.9618 23.0171 69.6438 22.6431 70.3808 22.6431C71.7228 22.6431 72.3278 23.6001 72.3278 24.7661V28.0001H71.2938V25.1071C71.2938 24.2601 71.0408 23.5121 70.1388 23.5121C69.1928 23.5121 68.8188 24.3701 68.8188 25.1841V28.0001H67.7848V24.8981C67.7848 24.0841 67.5098 23.5121 66.6848 23.5121C65.9258 23.5121 65.3538 24.1941 65.3538 25.2281V28.0001H64.3198V23.9081C64.3198 23.6331 64.3088 23.1271 64.2758 22.7861H65.2548C65.2768 23.0501 65.2988 23.4241 65.2988 23.6441H65.3318ZM81.7071 20.9051L80.9371 21.6531C80.6291 21.2241 80.0681 20.9271 79.4191 20.9271C78.7151 20.9271 77.9011 21.3121 77.9011 22.1921C77.9011 23.0391 78.6161 23.2701 79.4961 23.5561C80.5411 23.8861 81.7841 24.2821 81.7841 25.8331C81.7841 27.4501 80.4751 28.1981 79.0891 28.1981C78.1101 28.1981 77.1201 27.8131 76.5261 27.0651L77.3731 26.3501C77.7361 26.8891 78.3961 27.2631 79.1111 27.2631C79.8371 27.2631 80.6731 26.8561 80.6731 25.9321C80.6731 24.9861 79.8151 24.7331 78.8251 24.4251C77.8351 24.1171 76.8011 23.6661 76.8011 22.2361C76.8011 20.6851 78.1871 20.0141 79.4741 20.0141C80.3761 20.0141 81.2231 20.3661 81.7071 20.9051ZM85.8468 22.7861V23.6331H84.4608V26.3501C84.4608 26.9771 84.6808 27.2301 85.1978 27.2301C85.3848 27.2301 85.6268 27.1861 85.8028 27.0981L85.8358 27.9451C85.5938 28.0331 85.2748 28.0881 84.9558 28.0881C83.9768 28.0881 83.4378 27.5381 83.4378 26.4601V23.6331H82.4368V22.7861H83.4378V21.2901H84.4608V22.7861H85.8468ZM91.6584 28.0001H90.6794C90.6574 27.7361 90.6354 27.3621 90.6354 27.1421H90.6134C90.3494 27.6921 89.6674 28.1431 88.9084 28.1431C87.5664 28.1431 86.9614 27.1861 86.9614 26.0201V22.7861H87.9954V25.6681C87.9954 26.5261 88.2264 27.2741 89.1834 27.2741C90.0084 27.2741 90.5804 26.5921 90.5804 25.5581V22.7861H91.6144V26.8781C91.6144 27.1531 91.6255 27.6591 91.6584 28.0001ZM97.6571 27.1751C97.2611 27.8021 96.5131 28.1431 95.7761 28.1431C94.1701 28.1431 93.1471 26.9111 93.1471 25.3821C93.1471 23.8421 94.2031 22.6431 95.7651 22.6431C96.6121 22.6431 97.2611 23.0611 97.6241 23.5671H97.6461V19.6841H98.6801V28.0001H97.6791V27.1751H97.6571ZM94.2251 25.3821C94.2251 26.3611 94.8191 27.2741 95.9521 27.2741C97.0081 27.2741 97.7121 26.3941 97.7121 25.3931C97.7121 24.3921 97.0081 23.5011 95.9521 23.5011C94.8191 23.5011 94.2251 24.4031 94.2251 25.3821ZM101.621 22.7861V28.0001H100.587V22.7861H101.621ZM101.797 20.9051C101.797 21.2791 101.478 21.5651 101.104 21.5651C100.73 21.5651 100.422 21.2681 100.422 20.9051C100.422 20.5311 100.73 20.2341 101.104 20.2341C101.478 20.2341 101.797 20.5201 101.797 20.9051ZM108.796 25.3821C108.796 26.9881 107.575 28.1431 105.98 28.1431C104.385 28.1431 103.175 26.9881 103.175 25.3821C103.175 23.7761 104.385 22.6431 105.98 22.6431C107.575 22.6431 108.796 23.7761 108.796 25.3821ZM107.718 25.3821C107.718 24.3921 107.102 23.5011 105.98 23.5011C104.869 23.5011 104.242 24.3921 104.242 25.3821C104.242 26.3721 104.869 27.2741 105.98 27.2741C107.102 27.2741 107.718 26.3721 107.718 25.3821Z" fill="#737373"/>
<path opacity="0.184036" d="M42.5 31.5H108.508" stroke="black" stroke-linecap="square"/>
<path fill-rule="evenodd" clip-rule="evenodd" d="M35 0H0V35H35V0ZM1 34V1H34V34H1Z" fill="#939393"/>
<path d="M19.9297 25.1279V20.137H20.9485V20.4915C21.2797 20.2698 21.4859 20.137 21.9359 20.137C22.6152 20.137 23.16 20.3939 23.5081 20.7929C23.8732 20.3939 24.3384 20.137 24.9072 20.137C25.994 20.137 26.9854 21.0587 26.9854 22.1933V25.1279H25.9664V22.1933C25.9664 21.6438 25.4337 21.2007 24.9072 21.2007C24.4147 21.2007 24.0685 21.5819 24.009 22.078V25.1279H22.9902L22.9817 22.1933C22.9817 21.6438 22.5982 21.2007 21.9359 21.2007C21.2652 21.2007 20.9485 21.7502 20.9485 22.4503V25.1279H19.9297Z" fill="#737373"/>
<path fill-rule="evenodd" clip-rule="evenodd" d="M13.9029 12.2281C13.9029 11.4978 13.6455 10.8755 13.1311 10.3609C12.6165 9.84634 11.9941 9.58911 11.2641 9.58911C10.5364 9.58911 9.91524 9.84634 9.40068 10.3609C8.88625 10.8755 8.62891 11.4978 8.62891 12.2281C8.62891 12.9555 8.88625 13.5767 9.40068 14.0912C9.91524 14.6059 10.5364 14.8631 11.2641 14.8631C11.9941 14.8631 12.6165 14.6059 13.1311 14.0912C13.6455 13.5767 13.9029 12.9555 13.9029 12.2281ZM12.4107 13.3745C12.0946 13.6907 11.7124 13.8487 11.2641 13.8487C10.8181 13.8487 10.4359 13.6907 10.1173 13.3745C9.80138 13.056 9.64328 12.6738 9.64328 12.2281C9.64328 11.7795 9.80138 11.3973 10.1173 11.0812C10.4359 10.7627 10.8181 10.6035 11.2641 10.6035C11.7124 10.6035 12.0946 10.7627 12.4107 11.0812C12.7291 11.3973 12.8885 11.7795 12.8885 12.2281C12.8885 12.6738 12.7291 13.056 12.4107 13.3745Z" fill="#737373"/>
<path fill-rule="evenodd" clip-rule="evenodd" d="M13.8613 22.3208C13.8959 22.5179 13.9078 22.7099 13.9011 22.8979L13.3949 22.9867L9.71704 23.4312C9.83023 23.6222 10.1062 23.9583 10.3028 24.0973C10.6708 24.3534 11.1062 24.4467 11.5449 24.3698C11.9387 24.3007 12.2585 24.116 12.5051 23.8172L13.2709 24.4841C12.8711 24.9613 12.3544 25.2561 11.7199 25.3674C11.0041 25.4929 10.3486 25.3471 9.75353 24.9297C9.15864 24.5125 8.79828 23.946 8.67273 23.2306C8.54671 22.5124 8.69249 21.856 9.10979 21.2613C9.52723 20.6664 10.0939 20.3063 10.8098 20.1808C11.528 20.0548 12.1847 20.2004 12.7798 20.6177C13.3747 21.035 13.7352 21.6026 13.8613 22.3208ZM12.2266 21.4003C11.8607 21.1416 11.5112 20.9986 10.9184 21.0769C10.3255 21.1552 10.0149 21.4869 9.85133 21.7939C9.7609 21.9636 9.72437 22.1721 9.69062 22.3648C9.68423 22.4013 9.67795 22.4371 9.67141 22.4721L12.6605 21.948C12.6539 21.9369 12.6473 21.9257 12.6407 21.9145C12.5323 21.7311 12.4137 21.5304 12.2266 21.4003Z" fill="#737373"/>
<path d="M21.3958 8.99414L23.0769 11.3235L24.6058 8.99414H25.9992L23.7781 12.1818L25.9992 15.0066H24.6148L23.0769 13.0313L21.3958 15.0066H20.0024L22.3757 12.1818L19.9844 8.99414H21.3958Z" fill="#737373"/>
</svg>
