<svg width="27" height="34" viewBox="0 0 27 34" fill="none" xmlns="http://www.w3.org/2000/svg">
<path fill-rule="evenodd" clip-rule="evenodd" d="M13.486 0C6.02739 0 0 6.09687 0 13.596C0 17.1932 1.4111 20.6481 3.95107 23.2087C6.39025 25.6678 12.1354 29.2243 12.4781 32.984C12.5386 33.5531 12.9418 34.0002 13.486 34.0002C14.0505 34.0002 14.4537 33.5328 14.494 32.984C14.8367 29.2446 20.5818 25.6881 23.021 23.2291C25.5408 20.6887 26.9721 17.2135 26.9721 13.6163C26.9721 6.09687 20.9245 0 13.486 0Z" fill="#FF4433"/>
<path opacity="0.251" fill-rule="evenodd" clip-rule="evenodd" d="M13.4872 18.3721C16.1079 18.3721 18.2245 16.2382 18.2245 13.5962C18.2245 10.9542 16.1079 8.82031 13.4872 8.82031C10.8666 8.82031 8.75 10.9542 8.75 13.5962C8.75 16.2382 10.8666 18.3721 13.4872 18.3721Z" fill="black"/>
</svg>
