<svg width="30" height="28" viewBox="0 0 30 28" fill="none" xmlns="http://www.w3.org/2000/svg">
<path fill-rule="evenodd" clip-rule="evenodd" d="M28.7823 27.9705C30.5803 28.4865 28.2673 22.0755 28.2673 22.0755C29.2973 18.9955 30.3173 8.48048 29.6773 5.27549C29.0373 2.06948 26.6373 2.18048 22.2273 1.30348C17.7383 0.403485 6.44831 -0.111515 3.99831 0.0204849C1.56331 0.147485 -0.226691 1.81049 0.0233094 5.15049C0.280309 8.48048 4.18631 20.8905 6.12331 23.9705C8.05331 27.0505 10.9063 26.5125 12.6083 26.3065C14.9423 26.0185 23.7283 23.9705 23.7283 23.9705C22.9423 22.9605 26.9843 27.4545 28.7813 27.9705H28.7823ZM16.9983 8.59048L18.5623 5.26648H23.2423L18.1263 15.0085V20.7485H12.7563V15.0085L9.89631 9.56248L7.63331 5.26648H12.3133L15.4373 11.8915L16.9983 8.59048Z" fill="#ED484A"/>
</svg>
