<svg width="24" height="34" viewBox="0 0 24 34" fill="none" xmlns="http://www.w3.org/2000/svg">
<path d="M6.33594 25.2745C7.35429 26.5481 8.39145 28.1495 8.93421 29.1168C9.5952 30.3743 9.86926 31.2234 10.361 32.7442C10.6485 33.5771 10.9225 33.8297 11.4976 33.8297C12.1263 33.8297 12.4138 33.4052 12.6341 32.7442C13.0936 31.3174 13.4483 30.2319 14.0098 29.1974C16.1755 25.1133 19.7062 22.2114 21.6945 18.2347C21.6945 18.2347 23.003 15.8057 23.003 12.404C23.003 9.23344 21.7133 7.03015 21.7133 7.03015L6.344 25.3013L6.33594 25.2745Z" fill="#34A853"/>
<path d="M1.12037 17.8047C2.35905 20.626 4.72087 23.098 6.33304 25.2744L14.8775 15.1447C14.8775 15.1447 13.6711 16.7246 11.492 16.7246C9.06297 16.7246 7.08538 14.79 7.08538 12.3449C7.08538 10.6628 8.08761 9.4967 8.08761 9.4967C1.80017 10.4318 2.14947 11.9553 1.10156 17.7994L1.12037 17.8047Z" fill="#FBBC04"/>
<path d="M14.9877 1.35254C17.8359 2.26879 20.2541 4.2007 21.705 7.02198L14.8802 15.1634C14.8802 15.1634 15.8824 13.9919 15.8824 12.3153C15.8824 9.81909 13.7759 7.93554 11.5027 7.93554C9.34512 7.93554 8.11719 9.49666 8.11719 9.49666C8.64114 8.30365 14.0553 1.75827 14.9958 1.35523L14.9877 1.35254Z" fill="#4285F4"/>
<path d="M2.67969 4.93426C4.37783 2.91368 7.35496 0.823242 11.466 0.823242C13.4516 0.823242 14.959 1.34988 14.959 1.34988L8.10731 9.49131C7.64515 9.24143 3.13647 5.7296 2.67969 4.92351V4.93426Z" fill="#1A73E8"/>
<path d="M1.12045 17.8046C1.12045 17.8046 0 15.5798 0 12.377C0 9.34077 1.18763 6.6807 2.68694 4.96106L8.11456 9.52886L1.12852 17.8046H1.12045Z" fill="#EA4335"/>
</svg>
