<svg width="59" height="44" viewBox="0 0 59 44" fill="none" xmlns="http://www.w3.org/2000/svg">
<g opacity="0.05">
<path d="M33.0079 44V41.2374C41.2265 36.4533 46.3046 30.389 48.2424 23.0444C46.171 24.392 44.2333 25.1332 42.5629 25.1332C39.6897 25.1332 37.2843 23.9877 35.3465 21.6294C33.4088 19.3384 32.4066 16.441 32.4066 13.1394C32.4066 9.43338 33.6761 6.33384 36.282 3.77335C38.8211 1.28024 42.0283 0 45.7701 0C49.5119 0 52.7191 1.61715 55.1914 4.78407C57.7305 8.01838 59 11.9939 59 16.7779C59 23.5161 56.4609 29.513 51.3828 34.8361C46.3046 40.1593 40.1574 43.2588 33.0079 44ZM0.601359 44V41.2374C8.81993 36.4533 13.8981 30.389 15.8358 23.0444C13.7644 24.392 11.8267 25.1332 10.0895 25.1332C7.28313 25.1332 4.87769 23.9877 2.93998 21.6294C1.00226 19.3384 0 16.5084 0 13.1394C0 9.43338 1.26954 6.26646 3.87542 3.77335C6.4145 1.28024 9.55493 0 13.3635 0C17.1721 0 20.3126 1.61715 22.8516 4.78407C25.3907 8.01838 26.6602 11.9939 26.6602 16.7779C26.6602 23.5161 24.1212 29.513 19.043 34.8361C13.8981 40.1593 7.75085 43.2588 0.601359 44Z" fill="black"/>
</g>
</svg>
