<svg width="174" height="117" viewBox="0 0 174 117" fill="none" xmlns="http://www.w3.org/2000/svg">
<g opacity="0.46">
<path opacity="0.46" d="M58.0252 105.028C37.0715 82.1266 22.8578 89.5043 9.07382 73.9971C-4.91163 58.2633 -0.979317 42.5296 9.07561 28.8663C19.1305 15.203 27.8651 16.1118 45.3476 8.10313C62.8302 0.0944793 74.7647 0.934893 84.9486 0.0944795C96.6649 -0.894243 107.541 6.17512 119.208 7.41102C128.057 8.35031 137.153 5.92794 145.755 8.10313C155.791 10.6738 166.78 25.9956 170.784 35.5368C174.788 45.0779 181.71 81.864 140.191 96.7237C98.6708 111.583 78.9788 127.929 58.0252 105.028Z" fill="#D2D6FF"/>
</g>
<path opacity="0.4" d="M85.5569 84.011C71.2323 84.011 59.5547 72.4891 59.5547 58.1645C59.5547 43.6843 71.2323 32.1624 85.5569 32.1624C99.8814 32.1624 111.559 43.84 111.559 58.1645C111.559 72.4891 99.8814 84.011 85.5569 84.011Z" stroke="#133A50" stroke-width="3.11404" stroke-miterlimit="10"/>
<path d="M66.4023 47.8882L83.0624 73.2675L128.994 25L84.1523 55.2061L66.4023 47.8882Z" fill="#911368"/>
</svg>
