<svg width="28" height="23" viewBox="0 0 28 23" fill="none" xmlns="http://www.w3.org/2000/svg">
<path d="M0.937642 10.6738C3.74324 9.12848 6.87504 7.83864 9.80124 6.54224C14.8354 4.41884 19.8896 2.33224 24.9948 0.389636C25.9881 0.0586564 27.7728 -0.264983 27.9478 1.20696C27.852 3.29056 27.4578 5.36196 27.1874 7.43336C26.5012 11.9886 25.7079 16.5282 24.9344 21.0684C24.6679 22.5807 22.7734 23.3636 21.5612 22.3957C18.648 20.428 15.7124 18.4793 12.8364 16.4659C11.8943 15.5087 12.7679 14.1339 13.6093 13.4503C16.0087 11.0857 18.5533 9.07674 20.8273 6.58994C21.4407 5.10872 19.6283 6.35704 19.0305 6.73957C15.7457 9.00316 12.5413 11.405 9.07808 13.3944C7.30908 14.3681 5.24728 13.536 3.47908 12.9926C1.8937 12.3362 -0.429519 11.6749 0.937481 10.674L0.937642 10.6738Z" fill="white"/>
</svg>
